<svg width="649" height="376" viewBox="0 0 649 376" fill="none" xmlns="http://www.w3.org/2000/svg">
<g filter="url(#filter0_d)">
<rect x="95" y="248" width="407" height="72" rx="16" fill="white"/>
</g>
<path d="M141.084 278.596H139.527C139.188 278.596 138.866 278.758 138.667 279.037L133.447 286.276L131.083 282.995C130.884 282.72 130.565 282.554 130.223 282.554H128.666C128.45 282.554 128.324 282.799 128.45 282.975L132.587 288.713C132.685 288.849 132.814 288.96 132.963 289.037C133.112 289.114 133.278 289.154 133.446 289.154C133.613 289.154 133.779 289.114 133.928 289.037C134.077 288.96 134.206 288.849 134.304 288.713L141.297 279.017C141.426 278.841 141.3 278.596 141.084 278.596Z" fill="#CF2932"/>
<path d="M134.875 269C126.661 269 120 275.661 120 283.875C120 292.089 126.661 298.75 134.875 298.75C143.089 298.75 149.75 292.089 149.75 283.875C149.75 275.661 143.089 269 134.875 269ZM134.875 296.227C128.055 296.227 122.523 290.695 122.523 283.875C122.523 277.055 128.055 271.523 134.875 271.523C141.695 271.523 147.227 277.055 147.227 283.875C147.227 290.695 141.695 296.227 134.875 296.227Z" fill="#CF2932"/>
<path d="M174.605 289.09C173.825 289.09 173.075 288.965 172.355 288.715C171.645 288.465 171.095 288.135 170.705 287.725L171.14 286.87C171.52 287.25 172.025 287.56 172.655 287.8C173.285 288.03 173.935 288.145 174.605 288.145C175.545 288.145 176.25 287.975 176.72 287.635C177.19 287.285 177.425 286.835 177.425 286.285C177.425 285.865 177.295 285.53 177.035 285.28C176.785 285.03 176.475 284.84 176.105 284.71C175.735 284.57 175.22 284.42 174.56 284.26C173.77 284.06 173.14 283.87 172.67 283.69C172.2 283.5 171.795 283.215 171.455 282.835C171.125 282.455 170.96 281.94 170.96 281.29C170.96 280.76 171.1 280.28 171.38 279.85C171.66 279.41 172.09 279.06 172.67 278.8C173.25 278.54 173.97 278.41 174.83 278.41C175.43 278.41 176.015 278.495 176.585 278.665C177.165 278.825 177.665 279.05 178.085 279.34L177.71 280.225C177.27 279.935 176.8 279.72 176.3 279.58C175.8 279.43 175.31 279.355 174.83 279.355C173.91 279.355 173.215 279.535 172.745 279.895C172.285 280.245 172.055 280.7 172.055 281.26C172.055 281.68 172.18 282.02 172.43 282.28C172.69 282.53 173.01 282.725 173.39 282.865C173.78 282.995 174.3 283.14 174.95 283.3C175.72 283.49 176.34 283.68 176.81 283.87C177.29 284.05 177.695 284.33 178.025 284.71C178.355 285.08 178.52 285.585 178.52 286.225C178.52 286.755 178.375 287.24 178.085 287.68C177.805 288.11 177.37 288.455 176.78 288.715C176.19 288.965 175.465 289.09 174.605 289.09ZM183.639 285.04L181.779 286.75V289H180.714V277.87H181.779V285.415L186.489 281.11H187.809L184.434 284.335L188.124 289H186.819L183.639 285.04ZM196.27 285.385H189.67C189.73 286.205 190.045 286.87 190.615 287.38C191.185 287.88 191.905 288.13 192.775 288.13C193.265 288.13 193.715 288.045 194.125 287.875C194.535 287.695 194.89 287.435 195.19 287.095L195.79 287.785C195.44 288.205 195 288.525 194.47 288.745C193.95 288.965 193.375 289.075 192.745 289.075C191.935 289.075 191.215 288.905 190.585 288.565C189.965 288.215 189.48 287.735 189.13 287.125C188.78 286.515 188.605 285.825 188.605 285.055C188.605 284.285 188.77 283.595 189.1 282.985C189.44 282.375 189.9 281.9 190.48 281.56C191.07 281.22 191.73 281.05 192.46 281.05C193.19 281.05 193.845 281.22 194.425 281.56C195.005 281.9 195.46 282.375 195.79 282.985C196.12 283.585 196.285 284.275 196.285 285.055L196.27 285.385ZM192.46 281.965C191.7 281.965 191.06 282.21 190.54 282.7C190.03 283.18 189.74 283.81 189.67 284.59H195.265C195.195 283.81 194.9 283.18 194.38 282.7C193.87 282.21 193.23 281.965 192.46 281.965ZM208.293 281.05C209.283 281.05 210.058 281.335 210.618 281.905C211.188 282.475 211.473 283.315 211.473 284.425V289H210.408V284.53C210.408 283.71 210.208 283.085 209.808 282.655C209.418 282.225 208.863 282.01 208.143 282.01C207.323 282.01 206.678 282.265 206.208 282.775C205.738 283.275 205.503 283.97 205.503 284.86V289H204.438V284.53C204.438 283.71 204.238 283.085 203.838 282.655C203.448 282.225 202.888 282.01 202.158 282.01C201.348 282.01 200.703 282.265 200.223 282.775C199.753 283.275 199.518 283.97 199.518 284.86V289H198.453V281.11H199.473V282.55C199.753 282.07 200.143 281.7 200.643 281.44C201.143 281.18 201.718 281.05 202.368 281.05C203.028 281.05 203.598 281.19 204.078 281.47C204.568 281.75 204.933 282.165 205.173 282.715C205.463 282.195 205.878 281.79 206.418 281.5C206.968 281.2 207.593 281.05 208.293 281.05ZM217.121 281.05C218.151 281.05 218.941 281.31 219.491 281.83C220.041 282.34 220.316 283.1 220.316 284.11V289H219.296V287.77C219.056 288.18 218.701 288.5 218.231 288.73C217.771 288.96 217.221 289.075 216.581 289.075C215.701 289.075 215.001 288.865 214.481 288.445C213.961 288.025 213.701 287.47 213.701 286.78C213.701 286.11 213.941 285.57 214.421 285.16C214.911 284.75 215.686 284.545 216.746 284.545H219.251V284.065C219.251 283.385 219.061 282.87 218.681 282.52C218.301 282.16 217.746 281.98 217.016 281.98C216.516 281.98 216.036 282.065 215.576 282.235C215.116 282.395 214.721 282.62 214.391 282.91L213.911 282.115C214.311 281.775 214.791 281.515 215.351 281.335C215.911 281.145 216.501 281.05 217.121 281.05ZM216.746 288.235C217.346 288.235 217.861 288.1 218.291 287.83C218.721 287.55 219.041 287.15 219.251 286.63V285.34H216.776C215.426 285.34 214.751 285.81 214.751 286.75C214.751 287.21 214.926 287.575 215.276 287.845C215.626 288.105 216.116 288.235 216.746 288.235ZM231.289 278.5C232.629 278.5 233.679 278.82 234.439 279.46C235.199 280.1 235.579 280.98 235.579 282.1C235.579 283.22 235.199 284.1 234.439 284.74C233.679 285.37 232.629 285.685 231.289 285.685H228.469V289H227.359V278.5H231.289ZM231.259 284.71C232.299 284.71 233.094 284.485 233.644 284.035C234.194 283.575 234.469 282.93 234.469 282.1C234.469 281.25 234.194 280.6 233.644 280.15C233.094 279.69 232.299 279.46 231.259 279.46H228.469V284.71H231.259ZM244.581 285.385H237.981C238.041 286.205 238.356 286.87 238.926 287.38C239.496 287.88 240.216 288.13 241.086 288.13C241.576 288.13 242.026 288.045 242.436 287.875C242.846 287.695 243.201 287.435 243.501 287.095L244.101 287.785C243.751 288.205 243.311 288.525 242.781 288.745C242.261 288.965 241.686 289.075 241.056 289.075C240.246 289.075 239.526 288.905 238.896 288.565C238.276 288.215 237.791 287.735 237.441 287.125C237.091 286.515 236.916 285.825 236.916 285.055C236.916 284.285 237.081 283.595 237.411 282.985C237.751 282.375 238.211 281.9 238.791 281.56C239.381 281.22 240.041 281.05 240.771 281.05C241.501 281.05 242.156 281.22 242.736 281.56C243.316 281.9 243.771 282.375 244.101 282.985C244.431 283.585 244.596 284.275 244.596 285.055L244.581 285.385ZM240.771 281.965C240.011 281.965 239.371 282.21 238.851 282.7C238.341 283.18 238.051 283.81 237.981 284.59H243.576C243.506 283.81 243.211 283.18 242.691 282.7C242.181 282.21 241.541 281.965 240.771 281.965ZM250.783 281.05C251.773 281.05 252.558 281.34 253.138 281.92C253.728 282.49 254.023 283.325 254.023 284.425V289H252.958V284.53C252.958 283.71 252.753 283.085 252.343 282.655C251.933 282.225 251.348 282.01 250.588 282.01C249.738 282.01 249.063 282.265 248.563 282.775C248.073 283.275 247.828 283.97 247.828 284.86V289H246.763V281.11H247.783V282.565C248.073 282.085 248.473 281.715 248.983 281.455C249.503 281.185 250.103 281.05 250.783 281.05ZM264.249 281.11V288.04C264.249 289.38 263.919 290.37 263.259 291.01C262.609 291.66 261.624 291.985 260.304 291.985C259.574 291.985 258.879 291.875 258.219 291.655C257.569 291.445 257.039 291.15 256.629 290.77L257.169 289.96C257.549 290.3 258.009 290.565 258.549 290.755C259.099 290.945 259.674 291.04 260.274 291.04C261.274 291.04 262.009 290.805 262.479 290.335C262.949 289.875 263.184 289.155 263.184 288.175V287.17C262.854 287.67 262.419 288.05 261.879 288.31C261.349 288.57 260.759 288.7 260.109 288.7C259.369 288.7 258.694 288.54 258.084 288.22C257.484 287.89 257.009 287.435 256.659 286.855C256.319 286.265 256.149 285.6 256.149 284.86C256.149 284.12 256.319 283.46 256.659 282.88C257.009 282.3 257.484 281.85 258.084 281.53C258.684 281.21 259.359 281.05 260.109 281.05C260.779 281.05 261.384 281.185 261.924 281.455C262.464 281.725 262.899 282.115 263.229 282.625V281.11H264.249ZM260.214 287.755C260.784 287.755 261.299 287.635 261.759 287.395C262.219 287.145 262.574 286.8 262.824 286.36C263.084 285.92 263.214 285.42 263.214 284.86C263.214 284.3 263.084 283.805 262.824 283.375C262.574 282.935 262.219 282.595 261.759 282.355C261.309 282.105 260.794 281.98 260.214 281.98C259.644 281.98 259.129 282.1 258.669 282.34C258.219 282.58 257.864 282.92 257.604 283.36C257.354 283.8 257.229 284.3 257.229 284.86C257.229 285.42 257.354 285.92 257.604 286.36C257.864 286.8 258.219 287.145 258.669 287.395C259.129 287.635 259.644 287.755 260.214 287.755ZM274.097 285.385H267.497C267.557 286.205 267.872 286.87 268.442 287.38C269.012 287.88 269.732 288.13 270.602 288.13C271.092 288.13 271.542 288.045 271.952 287.875C272.362 287.695 272.717 287.435 273.017 287.095L273.617 287.785C273.267 288.205 272.827 288.525 272.297 288.745C271.777 288.965 271.202 289.075 270.572 289.075C269.762 289.075 269.042 288.905 268.412 288.565C267.792 288.215 267.307 287.735 266.957 287.125C266.607 286.515 266.432 285.825 266.432 285.055C266.432 284.285 266.597 283.595 266.927 282.985C267.267 282.375 267.727 281.9 268.307 281.56C268.897 281.22 269.557 281.05 270.287 281.05C271.017 281.05 271.672 281.22 272.252 281.56C272.832 281.9 273.287 282.375 273.617 282.985C273.947 283.585 274.112 284.275 274.112 285.055L274.097 285.385ZM270.287 281.965C269.527 281.965 268.887 282.21 268.367 282.7C267.857 283.18 267.567 283.81 267.497 284.59H273.092C273.022 283.81 272.727 283.18 272.207 282.7C271.697 282.21 271.057 281.965 270.287 281.965ZM286.12 281.05C287.11 281.05 287.885 281.335 288.445 281.905C289.015 282.475 289.3 283.315 289.3 284.425V289H288.235V284.53C288.235 283.71 288.035 283.085 287.635 282.655C287.245 282.225 286.69 282.01 285.97 282.01C285.15 282.01 284.505 282.265 284.035 282.775C283.565 283.275 283.33 283.97 283.33 284.86V289H282.265V284.53C282.265 283.71 282.065 283.085 281.665 282.655C281.275 282.225 280.715 282.01 279.985 282.01C279.175 282.01 278.53 282.265 278.05 282.775C277.58 283.275 277.345 283.97 277.345 284.86V289H276.28V281.11H277.3V282.55C277.58 282.07 277.97 281.7 278.47 281.44C278.97 281.18 279.545 281.05 280.195 281.05C280.855 281.05 281.425 281.19 281.905 281.47C282.395 281.75 282.76 282.165 283 282.715C283.29 282.195 283.705 281.79 284.245 281.5C284.795 281.2 285.42 281.05 286.12 281.05ZM296.253 281.05C296.993 281.05 297.663 281.22 298.263 281.56C298.863 281.89 299.333 282.36 299.673 282.97C300.013 283.58 300.183 284.275 300.183 285.055C300.183 285.835 300.013 286.53 299.673 287.14C299.333 287.75 298.863 288.225 298.263 288.565C297.663 288.905 296.993 289.075 296.253 289.075C295.593 289.075 294.998 288.935 294.468 288.655C293.948 288.375 293.528 287.97 293.208 287.44V289H292.188V277.87H293.253V282.61C293.583 282.1 294.003 281.715 294.513 281.455C295.033 281.185 295.613 281.05 296.253 281.05ZM296.178 288.13C296.728 288.13 297.228 288.005 297.678 287.755C298.128 287.495 298.478 287.13 298.728 286.66C298.988 286.19 299.118 285.655 299.118 285.055C299.118 284.455 298.988 283.92 298.728 283.45C298.478 282.98 298.128 282.62 297.678 282.37C297.228 282.11 296.728 281.98 296.178 281.98C295.618 281.98 295.113 282.11 294.663 282.37C294.223 282.62 293.873 282.98 293.613 283.45C293.363 283.92 293.238 284.455 293.238 285.055C293.238 285.655 293.363 286.19 293.613 286.66C293.873 287.13 294.223 287.495 294.663 287.755C295.113 288.005 295.618 288.13 296.178 288.13ZM305.07 281.05C306.1 281.05 306.89 281.31 307.44 281.83C307.99 282.34 308.265 283.1 308.265 284.11V289H307.245V287.77C307.005 288.18 306.65 288.5 306.18 288.73C305.72 288.96 305.17 289.075 304.53 289.075C303.65 289.075 302.95 288.865 302.43 288.445C301.91 288.025 301.65 287.47 301.65 286.78C301.65 286.11 301.89 285.57 302.37 285.16C302.86 284.75 303.635 284.545 304.695 284.545H307.2V284.065C307.2 283.385 307.01 282.87 306.63 282.52C306.25 282.16 305.695 281.98 304.965 281.98C304.465 281.98 303.985 282.065 303.525 282.235C303.065 282.395 302.67 282.62 302.34 282.91L301.86 282.115C302.26 281.775 302.74 281.515 303.3 281.335C303.86 281.145 304.45 281.05 305.07 281.05ZM304.695 288.235C305.295 288.235 305.81 288.1 306.24 287.83C306.67 287.55 306.99 287.15 307.2 286.63V285.34H304.725C303.375 285.34 302.7 285.81 302.7 286.75C302.7 287.21 302.875 287.575 303.225 287.845C303.575 288.105 304.065 288.235 304.695 288.235ZM315.178 281.05C316.168 281.05 316.953 281.34 317.533 281.92C318.123 282.49 318.418 283.325 318.418 284.425V289H317.353V284.53C317.353 283.71 317.148 283.085 316.738 282.655C316.328 282.225 315.743 282.01 314.983 282.01C314.133 282.01 313.458 282.265 312.958 282.775C312.468 283.275 312.223 283.97 312.223 284.86V289H311.158V281.11H312.178V282.565C312.468 282.085 312.868 281.715 313.378 281.455C313.898 281.185 314.498 281.05 315.178 281.05ZM328.644 281.11V288.04C328.644 289.38 328.314 290.37 327.654 291.01C327.004 291.66 326.019 291.985 324.699 291.985C323.969 291.985 323.274 291.875 322.614 291.655C321.964 291.445 321.434 291.15 321.024 290.77L321.564 289.96C321.944 290.3 322.404 290.565 322.944 290.755C323.494 290.945 324.069 291.04 324.669 291.04C325.669 291.04 326.404 290.805 326.874 290.335C327.344 289.875 327.579 289.155 327.579 288.175V287.17C327.249 287.67 326.814 288.05 326.274 288.31C325.744 288.57 325.154 288.7 324.504 288.7C323.764 288.7 323.089 288.54 322.479 288.22C321.879 287.89 321.404 287.435 321.054 286.855C320.714 286.265 320.544 285.6 320.544 284.86C320.544 284.12 320.714 283.46 321.054 282.88C321.404 282.3 321.879 281.85 322.479 281.53C323.079 281.21 323.754 281.05 324.504 281.05C325.174 281.05 325.779 281.185 326.319 281.455C326.859 281.725 327.294 282.115 327.624 282.625V281.11H328.644ZM324.609 287.755C325.179 287.755 325.694 287.635 326.154 287.395C326.614 287.145 326.969 286.8 327.219 286.36C327.479 285.92 327.609 285.42 327.609 284.86C327.609 284.3 327.479 283.805 327.219 283.375C326.969 282.935 326.614 282.595 326.154 282.355C325.704 282.105 325.189 281.98 324.609 281.98C324.039 281.98 323.524 282.1 323.064 282.34C322.614 282.58 322.259 282.92 321.999 283.36C321.749 283.8 321.624 284.3 321.624 284.86C321.624 285.42 321.749 285.92 321.999 286.36C322.259 286.8 322.614 287.145 323.064 287.395C323.524 287.635 324.039 287.755 324.609 287.755ZM334.382 281.05C335.412 281.05 336.202 281.31 336.752 281.83C337.302 282.34 337.577 283.1 337.577 284.11V289H336.557V287.77C336.317 288.18 335.962 288.5 335.492 288.73C335.032 288.96 334.482 289.075 333.842 289.075C332.962 289.075 332.262 288.865 331.742 288.445C331.222 288.025 330.962 287.47 330.962 286.78C330.962 286.11 331.202 285.57 331.682 285.16C332.172 284.75 332.947 284.545 334.007 284.545H336.512V284.065C336.512 283.385 336.322 282.87 335.942 282.52C335.562 282.16 335.007 281.98 334.277 281.98C333.777 281.98 333.297 282.065 332.837 282.235C332.377 282.395 331.982 282.62 331.652 282.91L331.172 282.115C331.572 281.775 332.052 281.515 332.612 281.335C333.172 281.145 333.762 281.05 334.382 281.05ZM334.007 288.235C334.607 288.235 335.122 288.1 335.552 287.83C335.982 287.55 336.302 287.15 336.512 286.63V285.34H334.037C332.687 285.34 332.012 285.81 332.012 286.75C332.012 287.21 332.187 287.575 332.537 287.845C332.887 288.105 333.377 288.235 334.007 288.235ZM344.489 281.05C345.479 281.05 346.264 281.34 346.844 281.92C347.434 282.49 347.729 283.325 347.729 284.425V289H346.664V284.53C346.664 283.71 346.459 283.085 346.049 282.655C345.639 282.225 345.054 282.01 344.294 282.01C343.444 282.01 342.769 282.265 342.269 282.775C341.779 283.275 341.534 283.97 341.534 284.86V289H340.469V281.11H341.489V282.565C341.779 282.085 342.179 281.715 342.689 281.455C343.209 281.185 343.809 281.05 344.489 281.05ZM367.472 278.5V289H366.377V284.155H359.807V289H358.697V278.5H359.807V283.18H366.377V278.5H367.472ZM377.784 281.11V289H376.764V287.56C376.484 288.04 376.099 288.415 375.609 288.685C375.119 288.945 374.559 289.075 373.929 289.075C372.899 289.075 372.084 288.79 371.484 288.22C370.894 287.64 370.599 286.795 370.599 285.685V281.11H371.664V285.58C371.664 286.41 371.869 287.04 372.279 287.47C372.689 287.9 373.274 288.115 374.034 288.115C374.864 288.115 375.519 287.865 375.999 287.365C376.479 286.855 376.719 286.15 376.719 285.25V281.11H377.784ZM390.607 281.05C391.597 281.05 392.372 281.335 392.932 281.905C393.502 282.475 393.787 283.315 393.787 284.425V289H392.722V284.53C392.722 283.71 392.522 283.085 392.122 282.655C391.732 282.225 391.177 282.01 390.457 282.01C389.637 282.01 388.992 282.265 388.522 282.775C388.052 283.275 387.817 283.97 387.817 284.86V289H386.752V284.53C386.752 283.71 386.552 283.085 386.152 282.655C385.762 282.225 385.202 282.01 384.472 282.01C383.662 282.01 383.017 282.265 382.537 282.775C382.067 283.275 381.832 283.97 381.832 284.86V289H380.767V281.11H381.787V282.55C382.067 282.07 382.457 281.7 382.957 281.44C383.457 281.18 384.032 281.05 384.682 281.05C385.342 281.05 385.912 281.19 386.392 281.47C386.882 281.75 387.247 282.165 387.487 282.715C387.777 282.195 388.192 281.79 388.732 281.5C389.282 281.2 389.907 281.05 390.607 281.05ZM399.435 281.05C400.465 281.05 401.255 281.31 401.805 281.83C402.355 282.34 402.63 283.1 402.63 284.11V289H401.61V287.77C401.37 288.18 401.015 288.5 400.545 288.73C400.085 288.96 399.535 289.075 398.895 289.075C398.015 289.075 397.315 288.865 396.795 288.445C396.275 288.025 396.015 287.47 396.015 286.78C396.015 286.11 396.255 285.57 396.735 285.16C397.225 284.75 398 284.545 399.06 284.545H401.565V284.065C401.565 283.385 401.375 282.87 400.995 282.52C400.615 282.16 400.06 281.98 399.33 281.98C398.83 281.98 398.35 282.065 397.89 282.235C397.43 282.395 397.035 282.62 396.705 282.91L396.225 282.115C396.625 281.775 397.105 281.515 397.665 281.335C398.225 281.145 398.815 281.05 399.435 281.05ZM399.06 288.235C399.66 288.235 400.175 288.1 400.605 287.83C401.035 287.55 401.355 287.15 401.565 286.63V285.34H399.09C397.74 285.34 397.065 285.81 397.065 286.75C397.065 287.21 397.24 287.575 397.59 287.845C397.94 288.105 398.43 288.235 399.06 288.235ZM409.543 281.05C410.533 281.05 411.318 281.34 411.898 281.92C412.488 282.49 412.783 283.325 412.783 284.425V289H411.718V284.53C411.718 283.71 411.513 283.085 411.103 282.655C410.693 282.225 410.108 282.01 409.348 282.01C408.498 282.01 407.823 282.265 407.323 282.775C406.833 283.275 406.588 283.97 406.588 284.86V289H405.523V281.11H406.543V282.565C406.833 282.085 407.233 281.715 407.743 281.455C408.263 281.185 408.863 281.05 409.543 281.05ZM424.385 289.09C423.345 289.09 422.405 288.86 421.565 288.4C420.735 287.94 420.08 287.305 419.6 286.495C419.13 285.675 418.895 284.76 418.895 283.75C418.895 282.74 419.13 281.83 419.6 281.02C420.08 280.2 420.74 279.56 421.58 279.1C422.42 278.64 423.36 278.41 424.4 278.41C425.18 278.41 425.9 278.54 426.56 278.8C427.22 279.06 427.78 279.44 428.24 279.94L427.535 280.645C426.715 279.815 425.68 279.4 424.43 279.4C423.6 279.4 422.845 279.59 422.165 279.97C421.485 280.35 420.95 280.87 420.56 281.53C420.18 282.19 419.99 282.93 419.99 283.75C419.99 284.57 420.18 285.31 420.56 285.97C420.95 286.63 421.485 287.15 422.165 287.53C422.845 287.91 423.6 288.1 424.43 288.1C425.69 288.1 426.725 287.68 427.535 286.84L428.24 287.545C427.78 288.045 427.215 288.43 426.545 288.7C425.885 288.96 425.165 289.09 424.385 289.09ZM433.024 281.05C434.054 281.05 434.844 281.31 435.394 281.83C435.944 282.34 436.219 283.1 436.219 284.11V289H435.199V287.77C434.959 288.18 434.604 288.5 434.134 288.73C433.674 288.96 433.124 289.075 432.484 289.075C431.604 289.075 430.904 288.865 430.384 288.445C429.864 288.025 429.604 287.47 429.604 286.78C429.604 286.11 429.844 285.57 430.324 285.16C430.814 284.75 431.589 284.545 432.649 284.545H435.154V284.065C435.154 283.385 434.964 282.87 434.584 282.52C434.204 282.16 433.649 281.98 432.919 281.98C432.419 281.98 431.939 282.065 431.479 282.235C431.019 282.395 430.624 282.62 430.294 282.91L429.814 282.115C430.214 281.775 430.694 281.515 431.254 281.335C431.814 281.145 432.404 281.05 433.024 281.05ZM432.649 288.235C433.249 288.235 433.764 288.1 434.194 287.83C434.624 287.55 434.944 287.15 435.154 286.63V285.34H432.679C431.329 285.34 430.654 285.81 430.654 286.75C430.654 287.21 430.829 287.575 431.179 287.845C431.529 288.105 432.019 288.235 432.649 288.235ZM443.177 281.05C443.917 281.05 444.587 281.22 445.187 281.56C445.787 281.89 446.257 282.36 446.597 282.97C446.937 283.58 447.107 284.275 447.107 285.055C447.107 285.845 446.937 286.545 446.597 287.155C446.257 287.765 445.787 288.24 445.187 288.58C444.597 288.91 443.927 289.075 443.177 289.075C442.537 289.075 441.957 288.945 441.437 288.685C440.927 288.415 440.507 288.025 440.177 287.515V291.91H439.112V281.11H440.132V282.67C440.452 282.15 440.872 281.75 441.392 281.47C441.922 281.19 442.517 281.05 443.177 281.05ZM443.102 288.13C443.652 288.13 444.152 288.005 444.602 287.755C445.052 287.495 445.402 287.13 445.652 286.66C445.912 286.19 446.042 285.655 446.042 285.055C446.042 284.455 445.912 283.925 445.652 283.465C445.402 282.995 445.052 282.63 444.602 282.37C444.152 282.11 443.652 281.98 443.102 281.98C442.542 281.98 442.037 282.11 441.587 282.37C441.147 282.63 440.797 282.995 440.537 283.465C440.287 283.925 440.162 284.455 440.162 285.055C440.162 285.655 440.287 286.19 440.537 286.66C440.797 287.13 441.147 287.495 441.587 287.755C442.037 288.005 442.542 288.13 443.102 288.13ZM449.278 281.11H450.343V289H449.278V281.11ZM449.818 279.385C449.598 279.385 449.413 279.31 449.263 279.16C449.113 279.01 449.038 278.83 449.038 278.62C449.038 278.42 449.113 278.245 449.263 278.095C449.413 277.945 449.598 277.87 449.818 277.87C450.038 277.87 450.223 277.945 450.373 278.095C450.523 278.235 450.598 278.405 450.598 278.605C450.598 278.825 450.523 279.01 450.373 279.16C450.223 279.31 450.038 279.385 449.818 279.385ZM457.461 288.52C457.261 288.7 457.011 288.84 456.711 288.94C456.421 289.03 456.116 289.075 455.796 289.075C455.056 289.075 454.486 288.875 454.086 288.475C453.686 288.075 453.486 287.51 453.486 286.78V282.01H452.076V281.11H453.486V279.385H454.551V281.11H456.951V282.01H454.551V286.72C454.551 287.19 454.666 287.55 454.896 287.8C455.136 288.04 455.476 288.16 455.916 288.16C456.136 288.16 456.346 288.125 456.546 288.055C456.756 287.985 456.936 287.885 457.086 287.755L457.461 288.52ZM462.16 281.05C463.19 281.05 463.98 281.31 464.53 281.83C465.08 282.34 465.355 283.1 465.355 284.11V289H464.335V287.77C464.095 288.18 463.74 288.5 463.27 288.73C462.81 288.96 462.26 289.075 461.62 289.075C460.74 289.075 460.04 288.865 459.52 288.445C459 288.025 458.74 287.47 458.74 286.78C458.74 286.11 458.98 285.57 459.46 285.16C459.95 284.75 460.725 284.545 461.785 284.545H464.29V284.065C464.29 283.385 464.1 282.87 463.72 282.52C463.34 282.16 462.785 281.98 462.055 281.98C461.555 281.98 461.075 282.065 460.615 282.235C460.155 282.395 459.76 282.62 459.43 282.91L458.95 282.115C459.35 281.775 459.83 281.515 460.39 281.335C460.95 281.145 461.54 281.05 462.16 281.05ZM461.785 288.235C462.385 288.235 462.9 288.1 463.33 287.83C463.76 287.55 464.08 287.15 464.29 286.63V285.34H461.815C460.465 285.34 459.79 285.81 459.79 286.75C459.79 287.21 459.965 287.575 460.315 287.845C460.665 288.105 461.155 288.235 461.785 288.235ZM468.248 277.87H469.313V289H468.248V277.87Z" fill="#1C2C34"/>
<g filter="url(#filter1_d)">
<rect x="194" y="136" width="415" height="72" rx="16" fill="white"/>
</g>
<path d="M240.084 166.596H238.527C238.188 166.596 237.866 166.758 237.667 167.037L232.447 174.276L230.083 170.995C229.884 170.72 229.565 170.554 229.223 170.554H227.666C227.45 170.554 227.324 170.799 227.45 170.975L231.587 176.713C231.685 176.849 231.814 176.96 231.963 177.037C232.112 177.114 232.278 177.154 232.446 177.154C232.613 177.154 232.779 177.114 232.928 177.037C233.077 176.96 233.206 176.849 233.304 176.713L240.297 167.017C240.426 166.841 240.3 166.596 240.084 166.596Z" fill="#CF2932"/>
<path d="M233.875 157C225.661 157 219 163.661 219 171.875C219 180.089 225.661 186.75 233.875 186.75C242.089 186.75 248.75 180.089 248.75 171.875C248.75 163.661 242.089 157 233.875 157ZM233.875 184.227C227.055 184.227 221.523 178.695 221.523 171.875C221.523 165.055 227.055 159.523 233.875 159.523C240.695 159.523 246.227 165.055 246.227 171.875C246.227 178.695 240.695 184.227 233.875 184.227Z" fill="#CF2932"/>
<path d="M273.605 177.09C272.825 177.09 272.075 176.965 271.355 176.715C270.645 176.465 270.095 176.135 269.705 175.725L270.14 174.87C270.52 175.25 271.025 175.56 271.655 175.8C272.285 176.03 272.935 176.145 273.605 176.145C274.545 176.145 275.25 175.975 275.72 175.635C276.19 175.285 276.425 174.835 276.425 174.285C276.425 173.865 276.295 173.53 276.035 173.28C275.785 173.03 275.475 172.84 275.105 172.71C274.735 172.57 274.22 172.42 273.56 172.26C272.77 172.06 272.14 171.87 271.67 171.69C271.2 171.5 270.795 171.215 270.455 170.835C270.125 170.455 269.96 169.94 269.96 169.29C269.96 168.76 270.1 168.28 270.38 167.85C270.66 167.41 271.09 167.06 271.67 166.8C272.25 166.54 272.97 166.41 273.83 166.41C274.43 166.41 275.015 166.495 275.585 166.665C276.165 166.825 276.665 167.05 277.085 167.34L276.71 168.225C276.27 167.935 275.8 167.72 275.3 167.58C274.8 167.43 274.31 167.355 273.83 167.355C272.91 167.355 272.215 167.535 271.745 167.895C271.285 168.245 271.055 168.7 271.055 169.26C271.055 169.68 271.18 170.02 271.43 170.28C271.69 170.53 272.01 170.725 272.39 170.865C272.78 170.995 273.3 171.14 273.95 171.3C274.72 171.49 275.34 171.68 275.81 171.87C276.29 172.05 276.695 172.33 277.025 172.71C277.355 173.08 277.52 173.585 277.52 174.225C277.52 174.755 277.375 175.24 277.085 175.68C276.805 176.11 276.37 176.455 275.78 176.715C275.19 176.965 274.465 177.09 273.605 177.09ZM282.639 173.04L280.779 174.75V177H279.714V165.87H280.779V173.415L285.489 169.11H286.809L283.434 172.335L287.124 177H285.819L282.639 173.04ZM295.27 173.385H288.67C288.73 174.205 289.045 174.87 289.615 175.38C290.185 175.88 290.905 176.13 291.775 176.13C292.265 176.13 292.715 176.045 293.125 175.875C293.535 175.695 293.89 175.435 294.19 175.095L294.79 175.785C294.44 176.205 294 176.525 293.47 176.745C292.95 176.965 292.375 177.075 291.745 177.075C290.935 177.075 290.215 176.905 289.585 176.565C288.965 176.215 288.48 175.735 288.13 175.125C287.78 174.515 287.605 173.825 287.605 173.055C287.605 172.285 287.77 171.595 288.1 170.985C288.44 170.375 288.9 169.9 289.48 169.56C290.07 169.22 290.73 169.05 291.46 169.05C292.19 169.05 292.845 169.22 293.425 169.56C294.005 169.9 294.46 170.375 294.79 170.985C295.12 171.585 295.285 172.275 295.285 173.055L295.27 173.385ZM291.46 169.965C290.7 169.965 290.06 170.21 289.54 170.7C289.03 171.18 288.74 171.81 288.67 172.59H294.265C294.195 171.81 293.9 171.18 293.38 170.7C292.87 170.21 292.23 169.965 291.46 169.965ZM307.293 169.05C308.283 169.05 309.058 169.335 309.618 169.905C310.188 170.475 310.473 171.315 310.473 172.425V177H309.408V172.53C309.408 171.71 309.208 171.085 308.808 170.655C308.418 170.225 307.863 170.01 307.143 170.01C306.323 170.01 305.678 170.265 305.208 170.775C304.738 171.275 304.503 171.97 304.503 172.86V177H303.438V172.53C303.438 171.71 303.238 171.085 302.838 170.655C302.448 170.225 301.888 170.01 301.158 170.01C300.348 170.01 299.703 170.265 299.223 170.775C298.753 171.275 298.518 171.97 298.518 172.86V177H297.453V169.11H298.473V170.55C298.753 170.07 299.143 169.7 299.643 169.44C300.143 169.18 300.718 169.05 301.368 169.05C302.028 169.05 302.598 169.19 303.078 169.47C303.568 169.75 303.933 170.165 304.173 170.715C304.463 170.195 304.878 169.79 305.418 169.5C305.968 169.2 306.593 169.05 307.293 169.05ZM316.121 169.05C317.151 169.05 317.941 169.31 318.491 169.83C319.041 170.34 319.316 171.1 319.316 172.11V177H318.296V175.77C318.056 176.18 317.701 176.5 317.231 176.73C316.771 176.96 316.221 177.075 315.581 177.075C314.701 177.075 314.001 176.865 313.481 176.445C312.961 176.025 312.701 175.47 312.701 174.78C312.701 174.11 312.941 173.57 313.421 173.16C313.911 172.75 314.686 172.545 315.746 172.545H318.251V172.065C318.251 171.385 318.061 170.87 317.681 170.52C317.301 170.16 316.746 169.98 316.016 169.98C315.516 169.98 315.036 170.065 314.576 170.235C314.116 170.395 313.721 170.62 313.391 170.91L312.911 170.115C313.311 169.775 313.791 169.515 314.351 169.335C314.911 169.145 315.501 169.05 316.121 169.05ZM315.746 176.235C316.346 176.235 316.861 176.1 317.291 175.83C317.721 175.55 318.041 175.15 318.251 174.63V173.34H315.776C314.426 173.34 313.751 173.81 313.751 174.75C313.751 175.21 313.926 175.575 314.276 175.845C314.626 176.105 315.116 176.235 315.746 176.235ZM330.289 166.5C331.629 166.5 332.679 166.82 333.439 167.46C334.199 168.1 334.579 168.98 334.579 170.1C334.579 171.22 334.199 172.1 333.439 172.74C332.679 173.37 331.629 173.685 330.289 173.685H327.469V177H326.359V166.5H330.289ZM330.259 172.71C331.299 172.71 332.094 172.485 332.644 172.035C333.194 171.575 333.469 170.93 333.469 170.1C333.469 169.25 333.194 168.6 332.644 168.15C332.094 167.69 331.299 167.46 330.259 167.46H327.469V172.71H330.259ZM343.581 173.385H336.981C337.041 174.205 337.356 174.87 337.926 175.38C338.496 175.88 339.216 176.13 340.086 176.13C340.576 176.13 341.026 176.045 341.436 175.875C341.846 175.695 342.201 175.435 342.501 175.095L343.101 175.785C342.751 176.205 342.311 176.525 341.781 176.745C341.261 176.965 340.686 177.075 340.056 177.075C339.246 177.075 338.526 176.905 337.896 176.565C337.276 176.215 336.791 175.735 336.441 175.125C336.091 174.515 335.916 173.825 335.916 173.055C335.916 172.285 336.081 171.595 336.411 170.985C336.751 170.375 337.211 169.9 337.791 169.56C338.381 169.22 339.041 169.05 339.771 169.05C340.501 169.05 341.156 169.22 341.736 169.56C342.316 169.9 342.771 170.375 343.101 170.985C343.431 171.585 343.596 172.275 343.596 173.055L343.581 173.385ZM339.771 169.965C339.011 169.965 338.371 170.21 337.851 170.7C337.341 171.18 337.051 171.81 336.981 172.59H342.576C342.506 171.81 342.211 171.18 341.691 170.7C341.181 170.21 340.541 169.965 339.771 169.965ZM349.783 169.05C350.773 169.05 351.558 169.34 352.138 169.92C352.728 170.49 353.023 171.325 353.023 172.425V177H351.958V172.53C351.958 171.71 351.753 171.085 351.343 170.655C350.933 170.225 350.348 170.01 349.588 170.01C348.738 170.01 348.063 170.265 347.563 170.775C347.073 171.275 346.828 171.97 346.828 172.86V177H345.763V169.11H346.783V170.565C347.073 170.085 347.473 169.715 347.983 169.455C348.503 169.185 349.103 169.05 349.783 169.05ZM363.249 169.11V176.04C363.249 177.38 362.919 178.37 362.259 179.01C361.609 179.66 360.624 179.985 359.304 179.985C358.574 179.985 357.879 179.875 357.219 179.655C356.569 179.445 356.039 179.15 355.629 178.77L356.169 177.96C356.549 178.3 357.009 178.565 357.549 178.755C358.099 178.945 358.674 179.04 359.274 179.04C360.274 179.04 361.009 178.805 361.479 178.335C361.949 177.875 362.184 177.155 362.184 176.175V175.17C361.854 175.67 361.419 176.05 360.879 176.31C360.349 176.57 359.759 176.7 359.109 176.7C358.369 176.7 357.694 176.54 357.084 176.22C356.484 175.89 356.009 175.435 355.659 174.855C355.319 174.265 355.149 173.6 355.149 172.86C355.149 172.12 355.319 171.46 355.659 170.88C356.009 170.3 356.484 169.85 357.084 169.53C357.684 169.21 358.359 169.05 359.109 169.05C359.779 169.05 360.384 169.185 360.924 169.455C361.464 169.725 361.899 170.115 362.229 170.625V169.11H363.249ZM359.214 175.755C359.784 175.755 360.299 175.635 360.759 175.395C361.219 175.145 361.574 174.8 361.824 174.36C362.084 173.92 362.214 173.42 362.214 172.86C362.214 172.3 362.084 171.805 361.824 171.375C361.574 170.935 361.219 170.595 360.759 170.355C360.309 170.105 359.794 169.98 359.214 169.98C358.644 169.98 358.129 170.1 357.669 170.34C357.219 170.58 356.864 170.92 356.604 171.36C356.354 171.8 356.229 172.3 356.229 172.86C356.229 173.42 356.354 173.92 356.604 174.36C356.864 174.8 357.219 175.145 357.669 175.395C358.129 175.635 358.644 175.755 359.214 175.755ZM373.097 173.385H366.497C366.557 174.205 366.872 174.87 367.442 175.38C368.012 175.88 368.732 176.13 369.602 176.13C370.092 176.13 370.542 176.045 370.952 175.875C371.362 175.695 371.717 175.435 372.017 175.095L372.617 175.785C372.267 176.205 371.827 176.525 371.297 176.745C370.777 176.965 370.202 177.075 369.572 177.075C368.762 177.075 368.042 176.905 367.412 176.565C366.792 176.215 366.307 175.735 365.957 175.125C365.607 174.515 365.432 173.825 365.432 173.055C365.432 172.285 365.597 171.595 365.927 170.985C366.267 170.375 366.727 169.9 367.307 169.56C367.897 169.22 368.557 169.05 369.287 169.05C370.017 169.05 370.672 169.22 371.252 169.56C371.832 169.9 372.287 170.375 372.617 170.985C372.947 171.585 373.112 172.275 373.112 173.055L373.097 173.385ZM369.287 169.965C368.527 169.965 367.887 170.21 367.367 170.7C366.857 171.18 366.567 171.81 366.497 172.59H372.092C372.022 171.81 371.727 171.18 371.207 170.7C370.697 170.21 370.057 169.965 369.287 169.965ZM375.28 165.87H376.345V177H375.28V165.87ZM382.533 177.075C381.773 177.075 381.088 176.905 380.478 176.565C379.868 176.215 379.388 175.735 379.038 175.125C378.688 174.515 378.513 173.825 378.513 173.055C378.513 172.285 378.688 171.595 379.038 170.985C379.388 170.375 379.868 169.9 380.478 169.56C381.088 169.22 381.773 169.05 382.533 169.05C383.293 169.05 383.978 169.22 384.588 169.56C385.198 169.9 385.673 170.375 386.013 170.985C386.363 171.595 386.538 172.285 386.538 173.055C386.538 173.825 386.363 174.515 386.013 175.125C385.673 175.735 385.198 176.215 384.588 176.565C383.978 176.905 383.293 177.075 382.533 177.075ZM382.533 176.13C383.093 176.13 383.593 176.005 384.033 175.755C384.483 175.495 384.833 175.13 385.083 174.66C385.333 174.19 385.458 173.655 385.458 173.055C385.458 172.455 385.333 171.92 385.083 171.45C384.833 170.98 384.483 170.62 384.033 170.37C383.593 170.11 383.093 169.98 382.533 169.98C381.973 169.98 381.468 170.11 381.018 170.37C380.578 170.62 380.228 170.98 379.968 171.45C379.718 171.92 379.593 172.455 379.593 173.055C379.593 173.655 379.718 174.19 379.968 174.66C380.228 175.13 380.578 175.495 381.018 175.755C381.468 176.005 381.973 176.13 382.533 176.13ZM388.713 165.87H389.778V177H388.713V165.87ZM395.501 169.05C396.531 169.05 397.321 169.31 397.871 169.83C398.421 170.34 398.696 171.1 398.696 172.11V177H397.676V175.77C397.436 176.18 397.081 176.5 396.611 176.73C396.151 176.96 395.601 177.075 394.961 177.075C394.081 177.075 393.381 176.865 392.861 176.445C392.341 176.025 392.081 175.47 392.081 174.78C392.081 174.11 392.321 173.57 392.801 173.16C393.291 172.75 394.066 172.545 395.126 172.545H397.631V172.065C397.631 171.385 397.441 170.87 397.061 170.52C396.681 170.16 396.126 169.98 395.396 169.98C394.896 169.98 394.416 170.065 393.956 170.235C393.496 170.395 393.101 170.62 392.771 170.91L392.291 170.115C392.691 169.775 393.171 169.515 393.731 169.335C394.291 169.145 394.881 169.05 395.501 169.05ZM395.126 176.235C395.726 176.235 396.241 176.1 396.671 175.83C397.101 175.55 397.421 175.15 397.631 174.63V173.34H395.156C393.806 173.34 393.131 173.81 393.131 174.75C393.131 175.21 393.306 175.575 393.656 175.845C394.006 176.105 394.496 176.235 395.126 176.235ZM404.349 169.05C405.379 169.05 406.169 169.31 406.719 169.83C407.269 170.34 407.544 171.1 407.544 172.11V177H406.524V175.77C406.284 176.18 405.929 176.5 405.459 176.73C404.999 176.96 404.449 177.075 403.809 177.075C402.929 177.075 402.229 176.865 401.709 176.445C401.189 176.025 400.929 175.47 400.929 174.78C400.929 174.11 401.169 173.57 401.649 173.16C402.139 172.75 402.914 172.545 403.974 172.545H406.479V172.065C406.479 171.385 406.289 170.87 405.909 170.52C405.529 170.16 404.974 169.98 404.244 169.98C403.744 169.98 403.264 170.065 402.804 170.235C402.344 170.395 401.949 170.62 401.619 170.91L401.139 170.115C401.539 169.775 402.019 169.515 402.579 169.335C403.139 169.145 403.729 169.05 404.349 169.05ZM403.974 176.235C404.574 176.235 405.089 176.1 405.519 175.83C405.949 175.55 406.269 175.15 406.479 174.63V173.34H404.004C402.654 173.34 401.979 173.81 401.979 174.75C401.979 175.21 402.154 175.575 402.504 175.845C402.854 176.105 403.344 176.235 403.974 176.235ZM414.456 169.05C415.446 169.05 416.231 169.34 416.811 169.92C417.401 170.49 417.696 171.325 417.696 172.425V177H416.631V172.53C416.631 171.71 416.426 171.085 416.016 170.655C415.606 170.225 415.021 170.01 414.261 170.01C413.411 170.01 412.736 170.265 412.236 170.775C411.746 171.275 411.501 171.97 411.501 172.86V177H410.436V169.11H411.456V170.565C411.746 170.085 412.146 169.715 412.656 169.455C413.176 169.185 413.776 169.05 414.456 169.05ZM433.513 166.5V177H432.418V172.155H425.848V177H424.738V166.5H425.848V171.18H432.418V166.5H433.513ZM443.825 169.11V177H442.805V175.56C442.525 176.04 442.14 176.415 441.65 176.685C441.16 176.945 440.6 177.075 439.97 177.075C438.94 177.075 438.125 176.79 437.525 176.22C436.935 175.64 436.64 174.795 436.64 173.685V169.11H437.705V173.58C437.705 174.41 437.91 175.04 438.32 175.47C438.73 175.9 439.315 176.115 440.075 176.115C440.905 176.115 441.56 175.865 442.04 175.365C442.52 174.855 442.76 174.15 442.76 173.25V169.11H443.825ZM450.873 169.05C451.613 169.05 452.283 169.22 452.883 169.56C453.483 169.89 453.953 170.36 454.293 170.97C454.633 171.58 454.803 172.275 454.803 173.055C454.803 173.835 454.633 174.53 454.293 175.14C453.953 175.75 453.483 176.225 452.883 176.565C452.283 176.905 451.613 177.075 450.873 177.075C450.213 177.075 449.618 176.935 449.088 176.655C448.568 176.375 448.148 175.97 447.828 175.44V177H446.808V165.87H447.873V170.61C448.203 170.1 448.623 169.715 449.133 169.455C449.653 169.185 450.233 169.05 450.873 169.05ZM450.798 176.13C451.348 176.13 451.848 176.005 452.298 175.755C452.748 175.495 453.098 175.13 453.348 174.66C453.608 174.19 453.738 173.655 453.738 173.055C453.738 172.455 453.608 171.92 453.348 171.45C453.098 170.98 452.748 170.62 452.298 170.37C451.848 170.11 451.348 169.98 450.798 169.98C450.238 169.98 449.733 170.11 449.283 170.37C448.843 170.62 448.493 170.98 448.233 171.45C447.983 171.92 447.858 172.455 447.858 173.055C447.858 173.655 447.983 174.19 448.233 174.66C448.493 175.13 448.843 175.495 449.283 175.755C449.733 176.005 450.238 176.13 450.798 176.13ZM464.084 169.11V177H463.064V175.56C462.784 176.04 462.399 176.415 461.909 176.685C461.419 176.945 460.859 177.075 460.229 177.075C459.199 177.075 458.384 176.79 457.784 176.22C457.194 175.64 456.899 174.795 456.899 173.685V169.11H457.964V173.58C457.964 174.41 458.169 175.04 458.579 175.47C458.989 175.9 459.574 176.115 460.334 176.115C461.164 176.115 461.819 175.865 462.299 175.365C462.779 174.855 463.019 174.15 463.019 173.25V169.11H464.084ZM471.087 169.05C472.077 169.05 472.862 169.34 473.442 169.92C474.032 170.49 474.327 171.325 474.327 172.425V177H473.262V172.53C473.262 171.71 473.057 171.085 472.647 170.655C472.237 170.225 471.652 170.01 470.892 170.01C470.042 170.01 469.367 170.265 468.867 170.775C468.377 171.275 468.132 171.97 468.132 172.86V177H467.067V169.11H468.087V170.565C468.377 170.085 468.777 169.715 469.287 169.455C469.807 169.185 470.407 169.05 471.087 169.05ZM484.553 169.11V176.04C484.553 177.38 484.223 178.37 483.563 179.01C482.913 179.66 481.928 179.985 480.608 179.985C479.878 179.985 479.183 179.875 478.523 179.655C477.873 179.445 477.343 179.15 476.933 178.77L477.473 177.96C477.853 178.3 478.313 178.565 478.853 178.755C479.403 178.945 479.978 179.04 480.578 179.04C481.578 179.04 482.313 178.805 482.783 178.335C483.253 177.875 483.488 177.155 483.488 176.175V175.17C483.158 175.67 482.723 176.05 482.183 176.31C481.653 176.57 481.063 176.7 480.413 176.7C479.673 176.7 478.998 176.54 478.388 176.22C477.788 175.89 477.313 175.435 476.963 174.855C476.623 174.265 476.453 173.6 476.453 172.86C476.453 172.12 476.623 171.46 476.963 170.88C477.313 170.3 477.788 169.85 478.388 169.53C478.988 169.21 479.663 169.05 480.413 169.05C481.083 169.05 481.688 169.185 482.228 169.455C482.768 169.725 483.203 170.115 483.533 170.625V169.11H484.553ZM480.518 175.755C481.088 175.755 481.603 175.635 482.063 175.395C482.523 175.145 482.878 174.8 483.128 174.36C483.388 173.92 483.518 173.42 483.518 172.86C483.518 172.3 483.388 171.805 483.128 171.375C482.878 170.935 482.523 170.595 482.063 170.355C481.613 170.105 481.098 169.98 480.518 169.98C479.948 169.98 479.433 170.1 478.973 170.34C478.523 170.58 478.168 170.92 477.908 171.36C477.658 171.8 477.533 172.3 477.533 172.86C477.533 173.42 477.658 173.92 477.908 174.36C478.168 174.8 478.523 175.145 478.973 175.395C479.433 175.635 479.948 175.755 480.518 175.755ZM490.291 169.05C491.321 169.05 492.111 169.31 492.661 169.83C493.211 170.34 493.486 171.1 493.486 172.11V177H492.466V175.77C492.226 176.18 491.871 176.5 491.401 176.73C490.941 176.96 490.391 177.075 489.751 177.075C488.871 177.075 488.171 176.865 487.651 176.445C487.131 176.025 486.871 175.47 486.871 174.78C486.871 174.11 487.111 173.57 487.591 173.16C488.081 172.75 488.856 172.545 489.916 172.545H492.421V172.065C492.421 171.385 492.231 170.87 491.851 170.52C491.471 170.16 490.916 169.98 490.186 169.98C489.686 169.98 489.206 170.065 488.746 170.235C488.286 170.395 487.891 170.62 487.561 170.91L487.081 170.115C487.481 169.775 487.961 169.515 488.521 169.335C489.081 169.145 489.671 169.05 490.291 169.05ZM489.916 176.235C490.516 176.235 491.031 176.1 491.461 175.83C491.891 175.55 492.211 175.15 492.421 174.63V173.34H489.946C488.596 173.34 487.921 173.81 487.921 174.75C487.921 175.21 488.096 175.575 488.446 175.845C488.796 176.105 489.286 176.235 489.916 176.235ZM500.399 169.05C501.389 169.05 502.174 169.34 502.754 169.92C503.344 170.49 503.639 171.325 503.639 172.425V177H502.574V172.53C502.574 171.71 502.369 171.085 501.959 170.655C501.549 170.225 500.964 170.01 500.204 170.01C499.354 170.01 498.679 170.265 498.179 170.775C497.689 171.275 497.444 171.97 497.444 172.86V177H496.379V169.11H497.399V170.565C497.689 170.085 498.089 169.715 498.599 169.455C499.119 169.185 499.719 169.05 500.399 169.05ZM510.681 166.5H511.791V177H510.681V166.5ZM519.002 169.05C519.992 169.05 520.777 169.34 521.357 169.92C521.947 170.49 522.242 171.325 522.242 172.425V177H521.177V172.53C521.177 171.71 520.972 171.085 520.562 170.655C520.152 170.225 519.567 170.01 518.807 170.01C517.957 170.01 517.282 170.265 516.782 170.775C516.292 171.275 516.047 171.97 516.047 172.86V177H514.982V169.11H516.002V170.565C516.292 170.085 516.692 169.715 517.202 169.455C517.722 169.185 518.322 169.05 519.002 169.05ZM532.363 165.87V177H531.343V175.44C531.023 175.97 530.598 176.375 530.068 176.655C529.548 176.935 528.958 177.075 528.298 177.075C527.558 177.075 526.888 176.905 526.288 176.565C525.688 176.225 525.218 175.75 524.878 175.14C524.538 174.53 524.368 173.835 524.368 173.055C524.368 172.275 524.538 171.58 524.878 170.97C525.218 170.36 525.688 169.89 526.288 169.56C526.888 169.22 527.558 169.05 528.298 169.05C528.938 169.05 529.513 169.185 530.023 169.455C530.543 169.715 530.968 170.1 531.298 170.61V165.87H532.363ZM528.388 176.13C528.938 176.13 529.433 176.005 529.873 175.755C530.323 175.495 530.673 175.13 530.923 174.66C531.183 174.19 531.313 173.655 531.313 173.055C531.313 172.455 531.183 171.92 530.923 171.45C530.673 170.98 530.323 170.62 529.873 170.37C529.433 170.11 528.938 169.98 528.388 169.98C527.828 169.98 527.323 170.11 526.873 170.37C526.433 170.62 526.083 170.98 525.823 171.45C525.573 171.92 525.448 172.455 525.448 173.055C525.448 173.655 525.573 174.19 525.823 174.66C526.083 175.13 526.433 175.495 526.873 175.755C527.323 176.005 527.828 176.13 528.388 176.13ZM542.439 169.11V177H541.419V175.56C541.139 176.04 540.754 176.415 540.264 176.685C539.774 176.945 539.214 177.075 538.584 177.075C537.554 177.075 536.739 176.79 536.139 176.22C535.549 175.64 535.254 174.795 535.254 173.685V169.11H536.319V173.58C536.319 174.41 536.524 175.04 536.934 175.47C537.344 175.9 537.929 176.115 538.689 176.115C539.519 176.115 540.174 175.865 540.654 175.365C541.134 174.855 541.374 174.15 541.374 173.25V169.11H542.439ZM547.537 177.075C546.897 177.075 546.282 176.985 545.692 176.805C545.112 176.615 544.657 176.38 544.327 176.1L544.807 175.26C545.137 175.52 545.552 175.735 546.052 175.905C546.552 176.065 547.072 176.145 547.612 176.145C548.332 176.145 548.862 176.035 549.202 175.815C549.552 175.585 549.727 175.265 549.727 174.855C549.727 174.565 549.632 174.34 549.442 174.18C549.252 174.01 549.012 173.885 548.722 173.805C548.432 173.715 548.047 173.63 547.567 173.55C546.927 173.43 546.412 173.31 546.022 173.19C545.632 173.06 545.297 172.845 545.017 172.545C544.747 172.245 544.612 171.83 544.612 171.3C544.612 170.64 544.887 170.1 545.437 169.68C545.987 169.26 546.752 169.05 547.732 169.05C548.242 169.05 548.752 169.12 549.262 169.26C549.772 169.39 550.192 169.565 550.522 169.785L550.057 170.64C549.407 170.19 548.632 169.965 547.732 169.965C547.052 169.965 546.537 170.085 546.187 170.325C545.847 170.565 545.677 170.88 545.677 171.27C545.677 171.57 545.772 171.81 545.962 171.99C546.162 172.17 546.407 172.305 546.697 172.395C546.987 172.475 547.387 172.56 547.897 172.65C548.527 172.77 549.032 172.89 549.412 173.01C549.792 173.13 550.117 173.335 550.387 173.625C550.657 173.915 550.792 174.315 550.792 174.825C550.792 175.515 550.502 176.065 549.922 176.475C549.352 176.875 548.557 177.075 547.537 177.075ZM556.915 176.52C556.715 176.7 556.465 176.84 556.165 176.94C555.875 177.03 555.57 177.075 555.25 177.075C554.51 177.075 553.94 176.875 553.54 176.475C553.14 176.075 552.94 175.51 552.94 174.78V170.01H551.53V169.11H552.94V167.385H554.005V169.11H556.405V170.01H554.005V174.72C554.005 175.19 554.12 175.55 554.35 175.8C554.59 176.04 554.93 176.16 555.37 176.16C555.59 176.16 555.8 176.125 556 176.055C556.21 175.985 556.39 175.885 556.54 175.755L556.915 176.52ZM559.874 170.655C560.124 170.125 560.494 169.725 560.984 169.455C561.484 169.185 562.099 169.05 562.829 169.05V170.085L562.574 170.07C561.744 170.07 561.094 170.325 560.624 170.835C560.154 171.345 559.919 172.06 559.919 172.98V177H558.854V169.11H559.874V170.655ZM564.757 169.11H565.822V177H564.757V169.11ZM565.297 167.385C565.077 167.385 564.892 167.31 564.742 167.16C564.592 167.01 564.517 166.83 564.517 166.62C564.517 166.42 564.592 166.245 564.742 166.095C564.892 165.945 565.077 165.87 565.297 165.87C565.517 165.87 565.702 165.945 565.852 166.095C566.002 166.235 566.077 166.405 566.077 166.605C566.077 166.825 566.002 167.01 565.852 167.16C565.702 167.31 565.517 167.385 565.297 167.385ZM571.546 169.05C572.576 169.05 573.366 169.31 573.916 169.83C574.466 170.34 574.741 171.1 574.741 172.11V177H573.721V175.77C573.481 176.18 573.126 176.5 572.656 176.73C572.196 176.96 571.646 177.075 571.006 177.075C570.126 177.075 569.426 176.865 568.906 176.445C568.386 176.025 568.126 175.47 568.126 174.78C568.126 174.11 568.366 173.57 568.846 173.16C569.336 172.75 570.111 172.545 571.171 172.545H573.676V172.065C573.676 171.385 573.486 170.87 573.106 170.52C572.726 170.16 572.171 169.98 571.441 169.98C570.941 169.98 570.461 170.065 570.001 170.235C569.541 170.395 569.146 170.62 568.816 170.91L568.336 170.115C568.736 169.775 569.216 169.515 569.776 169.335C570.336 169.145 570.926 169.05 571.546 169.05ZM571.171 176.235C571.771 176.235 572.286 176.1 572.716 175.83C573.146 175.55 573.466 175.15 573.676 174.63V173.34H571.201C569.851 173.34 569.176 173.81 569.176 174.75C569.176 175.21 569.351 175.575 569.701 175.845C570.051 176.105 570.541 176.235 571.171 176.235ZM577.633 165.87H578.698V177H577.633V165.87Z" fill="#1C2C34"/>
<g filter="url(#filter2_d)">
<rect x="40" y="24" width="375" height="72" rx="16" fill="white"/>
</g>
<path d="M86.084 54.5957H84.5268C84.1881 54.5957 83.866 54.7584 83.6668 55.0373L78.4473 62.2756L76.0832 58.9951C75.884 58.7195 75.5652 58.5535 75.2232 58.5535H73.666C73.4502 58.5535 73.324 58.7992 73.4502 58.9752L77.5873 64.7127C77.685 64.8491 77.8139 64.9603 77.9631 65.0369C78.1124 65.1136 78.2778 65.1536 78.4456 65.1536C78.6134 65.1536 78.7788 65.1136 78.9281 65.0369C79.0773 64.9603 79.2062 64.8491 79.3039 64.7127L86.2965 55.0174C86.426 54.8414 86.2998 54.5957 86.084 54.5957Z" fill="#CF2932"/>
<path d="M79.875 45C71.6605 45 65 51.6605 65 59.875C65 68.0895 71.6605 74.75 79.875 74.75C88.0895 74.75 94.75 68.0895 94.75 59.875C94.75 51.6605 88.0895 45 79.875 45ZM79.875 72.2266C73.0551 72.2266 67.5234 66.6949 67.5234 59.875C67.5234 53.0551 73.0551 47.5234 79.875 47.5234C86.6949 47.5234 92.2266 53.0551 92.2266 59.875C92.2266 66.6949 86.6949 72.2266 79.875 72.2266Z" fill="#CF2932"/>
<path d="M119.605 65.09C118.825 65.09 118.075 64.965 117.355 64.715C116.645 64.465 116.095 64.135 115.705 63.725L116.14 62.87C116.52 63.25 117.025 63.56 117.655 63.8C118.285 64.03 118.935 64.145 119.605 64.145C120.545 64.145 121.25 63.975 121.72 63.635C122.19 63.285 122.425 62.835 122.425 62.285C122.425 61.865 122.295 61.53 122.035 61.28C121.785 61.03 121.475 60.84 121.105 60.71C120.735 60.57 120.22 60.42 119.56 60.26C118.77 60.06 118.14 59.87 117.67 59.69C117.2 59.5 116.795 59.215 116.455 58.835C116.125 58.455 115.96 57.94 115.96 57.29C115.96 56.76 116.1 56.28 116.38 55.85C116.66 55.41 117.09 55.06 117.67 54.8C118.25 54.54 118.97 54.41 119.83 54.41C120.43 54.41 121.015 54.495 121.585 54.665C122.165 54.825 122.665 55.05 123.085 55.34L122.71 56.225C122.27 55.935 121.8 55.72 121.3 55.58C120.8 55.43 120.31 55.355 119.83 55.355C118.91 55.355 118.215 55.535 117.745 55.895C117.285 56.245 117.055 56.7 117.055 57.26C117.055 57.68 117.18 58.02 117.43 58.28C117.69 58.53 118.01 58.725 118.39 58.865C118.78 58.995 119.3 59.14 119.95 59.3C120.72 59.49 121.34 59.68 121.81 59.87C122.29 60.05 122.695 60.33 123.025 60.71C123.355 61.08 123.52 61.585 123.52 62.225C123.52 62.755 123.375 63.24 123.085 63.68C122.805 64.11 122.37 64.455 121.78 64.715C121.19 64.965 120.465 65.09 119.605 65.09ZM128.639 61.04L126.779 62.75V65H125.714V53.87H126.779V61.415L131.489 57.11H132.809L129.434 60.335L133.124 65H131.819L128.639 61.04ZM141.27 61.385H134.67C134.73 62.205 135.045 62.87 135.615 63.38C136.185 63.88 136.905 64.13 137.775 64.13C138.265 64.13 138.715 64.045 139.125 63.875C139.535 63.695 139.89 63.435 140.19 63.095L140.79 63.785C140.44 64.205 140 64.525 139.47 64.745C138.95 64.965 138.375 65.075 137.745 65.075C136.935 65.075 136.215 64.905 135.585 64.565C134.965 64.215 134.48 63.735 134.13 63.125C133.78 62.515 133.605 61.825 133.605 61.055C133.605 60.285 133.77 59.595 134.1 58.985C134.44 58.375 134.9 57.9 135.48 57.56C136.07 57.22 136.73 57.05 137.46 57.05C138.19 57.05 138.845 57.22 139.425 57.56C140.005 57.9 140.46 58.375 140.79 58.985C141.12 59.585 141.285 60.275 141.285 61.055L141.27 61.385ZM137.46 57.965C136.7 57.965 136.06 58.21 135.54 58.7C135.03 59.18 134.74 59.81 134.67 60.59H140.265C140.195 59.81 139.9 59.18 139.38 58.7C138.87 58.21 138.23 57.965 137.46 57.965ZM153.293 57.05C154.283 57.05 155.058 57.335 155.618 57.905C156.188 58.475 156.473 59.315 156.473 60.425V65H155.408V60.53C155.408 59.71 155.208 59.085 154.808 58.655C154.418 58.225 153.863 58.01 153.143 58.01C152.323 58.01 151.678 58.265 151.208 58.775C150.738 59.275 150.503 59.97 150.503 60.86V65H149.438V60.53C149.438 59.71 149.238 59.085 148.838 58.655C148.448 58.225 147.888 58.01 147.158 58.01C146.348 58.01 145.703 58.265 145.223 58.775C144.753 59.275 144.518 59.97 144.518 60.86V65H143.453V57.11H144.473V58.55C144.753 58.07 145.143 57.7 145.643 57.44C146.143 57.18 146.718 57.05 147.368 57.05C148.028 57.05 148.598 57.19 149.078 57.47C149.568 57.75 149.933 58.165 150.173 58.715C150.463 58.195 150.878 57.79 151.418 57.5C151.968 57.2 152.593 57.05 153.293 57.05ZM162.121 57.05C163.151 57.05 163.941 57.31 164.491 57.83C165.041 58.34 165.316 59.1 165.316 60.11V65H164.296V63.77C164.056 64.18 163.701 64.5 163.231 64.73C162.771 64.96 162.221 65.075 161.581 65.075C160.701 65.075 160.001 64.865 159.481 64.445C158.961 64.025 158.701 63.47 158.701 62.78C158.701 62.11 158.941 61.57 159.421 61.16C159.911 60.75 160.686 60.545 161.746 60.545H164.251V60.065C164.251 59.385 164.061 58.87 163.681 58.52C163.301 58.16 162.746 57.98 162.016 57.98C161.516 57.98 161.036 58.065 160.576 58.235C160.116 58.395 159.721 58.62 159.391 58.91L158.911 58.115C159.311 57.775 159.791 57.515 160.351 57.335C160.911 57.145 161.501 57.05 162.121 57.05ZM161.746 64.235C162.346 64.235 162.861 64.1 163.291 63.83C163.721 63.55 164.041 63.15 164.251 62.63V61.34H161.776C160.426 61.34 159.751 61.81 159.751 62.75C159.751 63.21 159.926 63.575 160.276 63.845C160.626 64.105 161.116 64.235 161.746 64.235ZM176.289 54.5C177.629 54.5 178.679 54.82 179.439 55.46C180.199 56.1 180.579 56.98 180.579 58.1C180.579 59.22 180.199 60.1 179.439 60.74C178.679 61.37 177.629 61.685 176.289 61.685H173.469V65H172.359V54.5H176.289ZM176.259 60.71C177.299 60.71 178.094 60.485 178.644 60.035C179.194 59.575 179.469 58.93 179.469 58.1C179.469 57.25 179.194 56.6 178.644 56.15C178.094 55.69 177.299 55.46 176.259 55.46H173.469V60.71H176.259ZM189.581 61.385H182.981C183.041 62.205 183.356 62.87 183.926 63.38C184.496 63.88 185.216 64.13 186.086 64.13C186.576 64.13 187.026 64.045 187.436 63.875C187.846 63.695 188.201 63.435 188.501 63.095L189.101 63.785C188.751 64.205 188.311 64.525 187.781 64.745C187.261 64.965 186.686 65.075 186.056 65.075C185.246 65.075 184.526 64.905 183.896 64.565C183.276 64.215 182.791 63.735 182.441 63.125C182.091 62.515 181.916 61.825 181.916 61.055C181.916 60.285 182.081 59.595 182.411 58.985C182.751 58.375 183.211 57.9 183.791 57.56C184.381 57.22 185.041 57.05 185.771 57.05C186.501 57.05 187.156 57.22 187.736 57.56C188.316 57.9 188.771 58.375 189.101 58.985C189.431 59.585 189.596 60.275 189.596 61.055L189.581 61.385ZM185.771 57.965C185.011 57.965 184.371 58.21 183.851 58.7C183.341 59.18 183.051 59.81 182.981 60.59H188.576C188.506 59.81 188.211 59.18 187.691 58.7C187.181 58.21 186.541 57.965 185.771 57.965ZM192.783 58.655C193.033 58.125 193.403 57.725 193.893 57.455C194.393 57.185 195.008 57.05 195.738 57.05V58.085L195.483 58.07C194.653 58.07 194.003 58.325 193.533 58.835C193.063 59.345 192.828 60.06 192.828 60.98V65H191.763V57.11H192.783V58.655ZM204.463 61.385H197.863C197.923 62.205 198.238 62.87 198.808 63.38C199.378 63.88 200.098 64.13 200.968 64.13C201.458 64.13 201.908 64.045 202.318 63.875C202.728 63.695 203.083 63.435 203.383 63.095L203.983 63.785C203.633 64.205 203.193 64.525 202.663 64.745C202.143 64.965 201.568 65.075 200.938 65.075C200.128 65.075 199.408 64.905 198.778 64.565C198.158 64.215 197.673 63.735 197.323 63.125C196.973 62.515 196.798 61.825 196.798 61.055C196.798 60.285 196.963 59.595 197.293 58.985C197.633 58.375 198.093 57.9 198.673 57.56C199.263 57.22 199.923 57.05 200.653 57.05C201.383 57.05 202.038 57.22 202.618 57.56C203.198 57.9 203.653 58.375 203.983 58.985C204.313 59.585 204.478 60.275 204.478 61.055L204.463 61.385ZM200.653 57.965C199.893 57.965 199.253 58.21 198.733 58.7C198.223 59.18 197.933 59.81 197.863 60.59H203.458C203.388 59.81 203.093 59.18 202.573 58.7C202.063 58.21 201.423 57.965 200.653 57.965ZM210.666 57.05C211.656 57.05 212.441 57.34 213.021 57.92C213.611 58.49 213.906 59.325 213.906 60.425V65H212.841V60.53C212.841 59.71 212.636 59.085 212.226 58.655C211.816 58.225 211.231 58.01 210.471 58.01C209.621 58.01 208.946 58.265 208.446 58.775C207.956 59.275 207.711 59.97 207.711 60.86V65H206.646V57.11H207.666V58.565C207.956 58.085 208.356 57.715 208.866 57.455C209.386 57.185 209.986 57.05 210.666 57.05ZM220.097 65.075C219.317 65.075 218.617 64.905 217.997 64.565C217.387 64.225 216.907 63.75 216.557 63.14C216.207 62.52 216.032 61.825 216.032 61.055C216.032 60.285 216.207 59.595 216.557 58.985C216.907 58.375 217.387 57.9 217.997 57.56C218.617 57.22 219.317 57.05 220.097 57.05C220.777 57.05 221.382 57.185 221.912 57.455C222.452 57.715 222.877 58.1 223.187 58.61L222.392 59.15C222.132 58.76 221.802 58.47 221.402 58.28C221.002 58.08 220.567 57.98 220.097 57.98C219.527 57.98 219.012 58.11 218.552 58.37C218.102 58.62 217.747 58.98 217.487 59.45C217.237 59.92 217.112 60.455 217.112 61.055C217.112 61.665 217.237 62.205 217.487 62.675C217.747 63.135 218.102 63.495 218.552 63.755C219.012 64.005 219.527 64.13 220.097 64.13C220.567 64.13 221.002 64.035 221.402 63.845C221.802 63.655 222.132 63.365 222.392 62.975L223.187 63.515C222.877 64.025 222.452 64.415 221.912 64.685C221.372 64.945 220.767 65.075 220.097 65.075ZM228.039 57.05C229.069 57.05 229.859 57.31 230.409 57.83C230.959 58.34 231.234 59.1 231.234 60.11V65H230.214V63.77C229.974 64.18 229.619 64.5 229.149 64.73C228.689 64.96 228.139 65.075 227.499 65.075C226.619 65.075 225.919 64.865 225.399 64.445C224.879 64.025 224.619 63.47 224.619 62.78C224.619 62.11 224.859 61.57 225.339 61.16C225.829 60.75 226.604 60.545 227.664 60.545H230.169V60.065C230.169 59.385 229.979 58.87 229.599 58.52C229.219 58.16 228.664 57.98 227.934 57.98C227.434 57.98 226.954 58.065 226.494 58.235C226.034 58.395 225.639 58.62 225.309 58.91L224.829 58.115C225.229 57.775 225.709 57.515 226.269 57.335C226.829 57.145 227.419 57.05 228.039 57.05ZM227.664 64.235C228.264 64.235 228.779 64.1 229.209 63.83C229.639 63.55 229.959 63.15 230.169 62.63V61.34H227.694C226.344 61.34 225.669 61.81 225.669 62.75C225.669 63.21 225.844 63.575 226.194 63.845C226.544 64.105 227.034 64.235 227.664 64.235ZM238.147 57.05C239.137 57.05 239.922 57.34 240.502 57.92C241.092 58.49 241.387 59.325 241.387 60.425V65H240.322V60.53C240.322 59.71 240.117 59.085 239.707 58.655C239.297 58.225 238.712 58.01 237.952 58.01C237.102 58.01 236.427 58.265 235.927 58.775C235.437 59.275 235.192 59.97 235.192 60.86V65H234.127V57.11H235.147V58.565C235.437 58.085 235.837 57.715 236.347 57.455C236.867 57.185 237.467 57.05 238.147 57.05ZM247.038 57.05C248.068 57.05 248.858 57.31 249.408 57.83C249.958 58.34 250.233 59.1 250.233 60.11V65H249.213V63.77C248.973 64.18 248.618 64.5 248.148 64.73C247.688 64.96 247.138 65.075 246.498 65.075C245.618 65.075 244.918 64.865 244.398 64.445C243.878 64.025 243.618 63.47 243.618 62.78C243.618 62.11 243.858 61.57 244.338 61.16C244.828 60.75 245.603 60.545 246.663 60.545H249.168V60.065C249.168 59.385 248.978 58.87 248.598 58.52C248.218 58.16 247.663 57.98 246.933 57.98C246.433 57.98 245.953 58.065 245.493 58.235C245.033 58.395 244.638 58.62 244.308 58.91L243.828 58.115C244.228 57.775 244.708 57.515 245.268 57.335C245.828 57.145 246.418 57.05 247.038 57.05ZM246.663 64.235C247.263 64.235 247.778 64.1 248.208 63.83C248.638 63.55 248.958 63.15 249.168 62.63V61.34H246.693C245.343 61.34 244.668 61.81 244.668 62.75C244.668 63.21 244.843 63.575 245.193 63.845C245.543 64.105 246.033 64.235 246.663 64.235ZM255.886 57.05C256.916 57.05 257.706 57.31 258.256 57.83C258.806 58.34 259.081 59.1 259.081 60.11V65H258.061V63.77C257.821 64.18 257.466 64.5 256.996 64.73C256.536 64.96 255.986 65.075 255.346 65.075C254.466 65.075 253.766 64.865 253.246 64.445C252.726 64.025 252.466 63.47 252.466 62.78C252.466 62.11 252.706 61.57 253.186 61.16C253.676 60.75 254.451 60.545 255.511 60.545H258.016V60.065C258.016 59.385 257.826 58.87 257.446 58.52C257.066 58.16 256.511 57.98 255.781 57.98C255.281 57.98 254.801 58.065 254.341 58.235C253.881 58.395 253.486 58.62 253.156 58.91L252.676 58.115C253.076 57.775 253.556 57.515 254.116 57.335C254.676 57.145 255.266 57.05 255.886 57.05ZM255.511 64.235C256.111 64.235 256.626 64.1 257.056 63.83C257.486 63.55 257.806 63.15 258.016 62.63V61.34H255.541C254.191 61.34 253.516 61.81 253.516 62.75C253.516 63.21 253.691 63.575 254.041 63.845C254.391 64.105 254.881 64.235 255.511 64.235ZM265.993 57.05C266.983 57.05 267.768 57.34 268.348 57.92C268.938 58.49 269.233 59.325 269.233 60.425V65H268.168V60.53C268.168 59.71 267.963 59.085 267.553 58.655C267.143 58.225 266.558 58.01 265.798 58.01C264.948 58.01 264.273 58.265 263.773 58.775C263.283 59.275 263.038 59.97 263.038 60.86V65H261.973V57.11H262.993V58.565C263.283 58.085 263.683 57.715 264.193 57.455C264.713 57.185 265.313 57.05 265.993 57.05ZM285.05 54.5V65H283.955V60.155H277.385V65H276.275V54.5H277.385V59.18H283.955V54.5H285.05ZM295.363 57.11V65H294.343V63.56C294.063 64.04 293.678 64.415 293.188 64.685C292.698 64.945 292.138 65.075 291.508 65.075C290.478 65.075 289.663 64.79 289.063 64.22C288.473 63.64 288.178 62.795 288.178 61.685V57.11H289.243V61.58C289.243 62.41 289.448 63.04 289.858 63.47C290.268 63.9 290.853 64.115 291.613 64.115C292.443 64.115 293.098 63.865 293.578 63.365C294.058 62.855 294.298 62.15 294.298 61.25V57.11H295.363ZM308.185 57.05C309.175 57.05 309.95 57.335 310.51 57.905C311.08 58.475 311.365 59.315 311.365 60.425V65H310.3V60.53C310.3 59.71 310.1 59.085 309.7 58.655C309.31 58.225 308.755 58.01 308.035 58.01C307.215 58.01 306.57 58.265 306.1 58.775C305.63 59.275 305.395 59.97 305.395 60.86V65H304.33V60.53C304.33 59.71 304.13 59.085 303.73 58.655C303.34 58.225 302.78 58.01 302.05 58.01C301.24 58.01 300.595 58.265 300.115 58.775C299.645 59.275 299.41 59.97 299.41 60.86V65H298.345V57.11H299.365V58.55C299.645 58.07 300.035 57.7 300.535 57.44C301.035 57.18 301.61 57.05 302.26 57.05C302.92 57.05 303.49 57.19 303.97 57.47C304.46 57.75 304.825 58.165 305.065 58.715C305.355 58.195 305.77 57.79 306.31 57.5C306.86 57.2 307.485 57.05 308.185 57.05ZM317.014 57.05C318.044 57.05 318.834 57.31 319.384 57.83C319.934 58.34 320.209 59.1 320.209 60.11V65H319.189V63.77C318.949 64.18 318.594 64.5 318.124 64.73C317.664 64.96 317.114 65.075 316.474 65.075C315.594 65.075 314.894 64.865 314.374 64.445C313.854 64.025 313.594 63.47 313.594 62.78C313.594 62.11 313.834 61.57 314.314 61.16C314.804 60.75 315.579 60.545 316.639 60.545H319.144V60.065C319.144 59.385 318.954 58.87 318.574 58.52C318.194 58.16 317.639 57.98 316.909 57.98C316.409 57.98 315.929 58.065 315.469 58.235C315.009 58.395 314.614 58.62 314.284 58.91L313.804 58.115C314.204 57.775 314.684 57.515 315.244 57.335C315.804 57.145 316.394 57.05 317.014 57.05ZM316.639 64.235C317.239 64.235 317.754 64.1 318.184 63.83C318.614 63.55 318.934 63.15 319.144 62.63V61.34H316.669C315.319 61.34 314.644 61.81 314.644 62.75C314.644 63.21 314.819 63.575 315.169 63.845C315.519 64.105 316.009 64.235 316.639 64.235ZM327.121 57.05C328.111 57.05 328.896 57.34 329.476 57.92C330.066 58.49 330.361 59.325 330.361 60.425V65H329.296V60.53C329.296 59.71 329.091 59.085 328.681 58.655C328.271 58.225 327.686 58.01 326.926 58.01C326.076 58.01 325.401 58.265 324.901 58.775C324.411 59.275 324.166 59.97 324.166 60.86V65H323.101V57.11H324.121V58.565C324.411 58.085 324.811 57.715 325.321 57.455C325.841 57.185 326.441 57.05 327.121 57.05ZM341.963 65.09C340.923 65.09 339.983 64.86 339.143 64.4C338.313 63.94 337.658 63.305 337.178 62.495C336.708 61.675 336.473 60.76 336.473 59.75C336.473 58.74 336.708 57.83 337.178 57.02C337.658 56.2 338.318 55.56 339.158 55.1C339.998 54.64 340.938 54.41 341.978 54.41C342.758 54.41 343.478 54.54 344.138 54.8C344.798 55.06 345.358 55.44 345.818 55.94L345.113 56.645C344.293 55.815 343.258 55.4 342.008 55.4C341.178 55.4 340.423 55.59 339.743 55.97C339.063 56.35 338.528 56.87 338.138 57.53C337.758 58.19 337.568 58.93 337.568 59.75C337.568 60.57 337.758 61.31 338.138 61.97C338.528 62.63 339.063 63.15 339.743 63.53C340.423 63.91 341.178 64.1 342.008 64.1C343.268 64.1 344.303 63.68 345.113 62.84L345.818 63.545C345.358 64.045 344.793 64.43 344.123 64.7C343.463 64.96 342.743 65.09 341.963 65.09ZM350.602 57.05C351.632 57.05 352.422 57.31 352.972 57.83C353.522 58.34 353.797 59.1 353.797 60.11V65H352.777V63.77C352.537 64.18 352.182 64.5 351.712 64.73C351.252 64.96 350.702 65.075 350.062 65.075C349.182 65.075 348.482 64.865 347.962 64.445C347.442 64.025 347.182 63.47 347.182 62.78C347.182 62.11 347.422 61.57 347.902 61.16C348.392 60.75 349.167 60.545 350.227 60.545H352.732V60.065C352.732 59.385 352.542 58.87 352.162 58.52C351.782 58.16 351.227 57.98 350.497 57.98C349.997 57.98 349.517 58.065 349.057 58.235C348.597 58.395 348.202 58.62 347.872 58.91L347.392 58.115C347.792 57.775 348.272 57.515 348.832 57.335C349.392 57.145 349.982 57.05 350.602 57.05ZM350.227 64.235C350.827 64.235 351.342 64.1 351.772 63.83C352.202 63.55 352.522 63.15 352.732 62.63V61.34H350.257C348.907 61.34 348.232 61.81 348.232 62.75C348.232 63.21 348.407 63.575 348.757 63.845C349.107 64.105 349.597 64.235 350.227 64.235ZM360.755 57.05C361.495 57.05 362.165 57.22 362.765 57.56C363.365 57.89 363.835 58.36 364.175 58.97C364.515 59.58 364.685 60.275 364.685 61.055C364.685 61.845 364.515 62.545 364.175 63.155C363.835 63.765 363.365 64.24 362.765 64.58C362.175 64.91 361.505 65.075 360.755 65.075C360.115 65.075 359.535 64.945 359.015 64.685C358.505 64.415 358.085 64.025 357.755 63.515V67.91H356.69V57.11H357.71V58.67C358.03 58.15 358.45 57.75 358.97 57.47C359.5 57.19 360.095 57.05 360.755 57.05ZM360.68 64.13C361.23 64.13 361.73 64.005 362.18 63.755C362.63 63.495 362.98 63.13 363.23 62.66C363.49 62.19 363.62 61.655 363.62 61.055C363.62 60.455 363.49 59.925 363.23 59.465C362.98 58.995 362.63 58.63 362.18 58.37C361.73 58.11 361.23 57.98 360.68 57.98C360.12 57.98 359.615 58.11 359.165 58.37C358.725 58.63 358.375 58.995 358.115 59.465C357.865 59.925 357.74 60.455 357.74 61.055C357.74 61.655 357.865 62.19 358.115 62.66C358.375 63.13 358.725 63.495 359.165 63.755C359.615 64.005 360.12 64.13 360.68 64.13ZM366.856 57.11H367.921V65H366.856V57.11ZM367.396 55.385C367.176 55.385 366.991 55.31 366.841 55.16C366.691 55.01 366.616 54.83 366.616 54.62C366.616 54.42 366.691 54.245 366.841 54.095C366.991 53.945 367.176 53.87 367.396 53.87C367.616 53.87 367.801 53.945 367.951 54.095C368.101 54.235 368.176 54.405 368.176 54.605C368.176 54.825 368.101 55.01 367.951 55.16C367.801 55.31 367.616 55.385 367.396 55.385ZM375.039 64.52C374.839 64.7 374.589 64.84 374.289 64.94C373.999 65.03 373.694 65.075 373.374 65.075C372.634 65.075 372.064 64.875 371.664 64.475C371.264 64.075 371.064 63.51 371.064 62.78V58.01H369.654V57.11H371.064V55.385H372.129V57.11H374.529V58.01H372.129V62.72C372.129 63.19 372.244 63.55 372.474 63.8C372.714 64.04 373.054 64.16 373.494 64.16C373.714 64.16 373.924 64.125 374.124 64.055C374.334 63.985 374.514 63.885 374.664 63.755L375.039 64.52ZM379.738 57.05C380.768 57.05 381.558 57.31 382.108 57.83C382.658 58.34 382.933 59.1 382.933 60.11V65H381.913V63.77C381.673 64.18 381.318 64.5 380.848 64.73C380.388 64.96 379.838 65.075 379.198 65.075C378.318 65.075 377.618 64.865 377.098 64.445C376.578 64.025 376.318 63.47 376.318 62.78C376.318 62.11 376.558 61.57 377.038 61.16C377.528 60.75 378.303 60.545 379.363 60.545H381.868V60.065C381.868 59.385 381.678 58.87 381.298 58.52C380.918 58.16 380.363 57.98 379.633 57.98C379.133 57.98 378.653 58.065 378.193 58.235C377.733 58.395 377.338 58.62 377.008 58.91L376.528 58.115C376.928 57.775 377.408 57.515 377.968 57.335C378.528 57.145 379.118 57.05 379.738 57.05ZM379.363 64.235C379.963 64.235 380.478 64.1 380.908 63.83C381.338 63.55 381.658 63.15 381.868 62.63V61.34H379.393C378.043 61.34 377.368 61.81 377.368 62.75C377.368 63.21 377.543 63.575 377.893 63.845C378.243 64.105 378.733 64.235 379.363 64.235ZM385.826 53.87H386.891V65H385.826V53.87Z" fill="#1C2C34"/>
<defs>
<filter id="filter0_d" x="55" y="224" width="487" height="152" filterUnits="userSpaceOnUse" color-interpolation-filters="sRGB">
<feFlood flood-opacity="0" result="BackgroundImageFix"/>
<feColorMatrix in="SourceAlpha" type="matrix" values="0 0 0 0 0 0 0 0 0 0 0 0 0 0 0 0 0 0 127 0"/>
<feOffset dy="16"/>
<feGaussianBlur stdDeviation="20"/>
<feColorMatrix type="matrix" values="0 0 0 0 0.905882 0 0 0 0 0.298039 0 0 0 0 0.235294 0 0 0 0.2 0"/>
<feBlend mode="normal" in2="BackgroundImageFix" result="effect1_dropShadow"/>
<feBlend mode="normal" in="SourceGraphic" in2="effect1_dropShadow" result="shape"/>
</filter>
<filter id="filter1_d" x="154" y="112" width="495" height="152" filterUnits="userSpaceOnUse" color-interpolation-filters="sRGB">
<feFlood flood-opacity="0" result="BackgroundImageFix"/>
<feColorMatrix in="SourceAlpha" type="matrix" values="0 0 0 0 0 0 0 0 0 0 0 0 0 0 0 0 0 0 127 0"/>
<feOffset dy="16"/>
<feGaussianBlur stdDeviation="20"/>
<feColorMatrix type="matrix" values="0 0 0 0 0.905882 0 0 0 0 0.298039 0 0 0 0 0.235294 0 0 0 0.2 0"/>
<feBlend mode="normal" in2="BackgroundImageFix" result="effect1_dropShadow"/>
<feBlend mode="normal" in="SourceGraphic" in2="effect1_dropShadow" result="shape"/>
</filter>
<filter id="filter2_d" x="0" y="0" width="455" height="152" filterUnits="userSpaceOnUse" color-interpolation-filters="sRGB">
<feFlood flood-opacity="0" result="BackgroundImageFix"/>
<feColorMatrix in="SourceAlpha" type="matrix" values="0 0 0 0 0 0 0 0 0 0 0 0 0 0 0 0 0 0 127 0"/>
<feOffset dy="16"/>
<feGaussianBlur stdDeviation="20"/>
<feColorMatrix type="matrix" values="0 0 0 0 0.905882 0 0 0 0 0.298039 0 0 0 0 0.235294 0 0 0 0.2 0"/>
<feBlend mode="normal" in2="BackgroundImageFix" result="effect1_dropShadow"/>
<feBlend mode="normal" in="SourceGraphic" in2="effect1_dropShadow" result="shape"/>
</filter>
</defs>
</svg>
