<svg width="214" height="155" viewBox="0 0 214 155" fill="none" xmlns="http://www.w3.org/2000/svg">
<g clip-path="url(#clip0)">
<path d="M136.371 116.199V153.563H42.6892C32.0154 153.563 23.3311 145.182 23.3311 134.881C23.3311 124.58 32.0154 116.199 42.6892 116.199H136.371Z" fill="#F2F2F2"/>
<path d="M138.673 153.275C138.673 153.657 138.521 154.022 138.251 154.291C137.982 154.561 137.616 154.712 137.235 154.713H41.0208C35.7953 154.713 30.7838 152.638 27.0887 148.946C23.3937 145.254 21.3179 140.246 21.3179 135.024C21.3179 129.803 23.3937 124.795 27.0887 121.103C30.7838 117.411 35.7953 115.336 41.0208 115.336H137.235C137.616 115.336 137.982 115.488 138.251 115.757C138.521 116.027 138.673 116.392 138.673 116.774C138.673 117.155 138.521 117.52 138.251 117.79C137.982 118.059 137.616 118.211 137.235 118.211H41.0208C36.5581 118.211 32.2782 119.982 29.1226 123.135C25.967 126.288 24.1942 130.565 24.1942 135.024C24.1942 139.484 25.967 143.76 29.1226 146.914C32.2782 150.067 36.5581 151.838 41.0208 151.838H137.235C137.616 151.839 137.982 151.99 138.251 152.259C138.521 152.529 138.673 152.894 138.673 153.275Z" fill="#CF2932"/>
<path d="M136.371 124.821H35.6993C35.623 124.821 35.5498 124.791 35.4959 124.737C35.4419 124.683 35.4116 124.61 35.4116 124.534C35.4116 124.458 35.4419 124.384 35.4959 124.331C35.5498 124.277 35.623 124.246 35.6993 124.246H136.371C136.448 124.246 136.521 124.277 136.575 124.331C136.629 124.384 136.659 124.458 136.659 124.534C136.659 124.61 136.629 124.683 136.575 124.737C136.521 124.791 136.448 124.821 136.371 124.821Z" fill="#CCCCCC"/>
<path d="M136.371 131.719H35.6993C35.623 131.719 35.5498 131.689 35.4959 131.635C35.4419 131.581 35.4116 131.508 35.4116 131.432C35.4116 131.356 35.4419 131.282 35.4959 131.229C35.5498 131.175 35.623 131.144 35.6993 131.144H136.371C136.448 131.144 136.521 131.175 136.575 131.229C136.629 131.282 136.659 131.356 136.659 131.432C136.659 131.508 136.629 131.581 136.575 131.635C136.521 131.689 136.448 131.719 136.371 131.719Z" fill="#CCCCCC"/>
<path d="M136.371 138.617H35.6993C35.623 138.617 35.5498 138.587 35.4959 138.533C35.4419 138.479 35.4116 138.406 35.4116 138.33C35.4116 138.254 35.4419 138.18 35.4959 138.127C35.5498 138.073 35.623 138.042 35.6993 138.042H136.371C136.448 138.042 136.521 138.073 136.575 138.127C136.629 138.18 136.659 138.254 136.659 138.33C136.659 138.406 136.629 138.479 136.575 138.533C136.521 138.587 136.448 138.617 136.371 138.617Z" fill="#CCCCCC"/>
<path d="M136.371 145.515H35.6993C35.623 145.515 35.5498 145.485 35.4959 145.431C35.4419 145.377 35.4116 145.304 35.4116 145.228C35.4116 145.152 35.4419 145.079 35.4959 145.025C35.5498 144.971 35.623 144.94 35.6993 144.94H136.371C136.448 144.94 136.521 144.971 136.575 145.025C136.629 145.079 136.659 145.152 136.659 145.228C136.659 145.304 136.629 145.377 136.575 145.431C136.521 145.485 136.448 145.515 136.371 145.515Z" fill="#CCCCCC"/>
<path d="M208.774 123.232L185.313 152.327L112.365 93.5931C104.053 86.9012 102.553 74.9304 109.021 66.9092C115.489 58.8879 127.514 57.8064 135.825 64.4983L208.774 123.232Z" fill="#F2F2F2"/>
<path d="M187.286 153.546C187.046 153.842 186.699 154.032 186.32 154.073C185.941 154.113 185.561 154.002 185.264 153.763L110.344 93.4422C106.275 90.1661 103.675 85.4089 103.116 80.2172C102.557 75.0256 104.085 69.8247 107.364 65.7588C110.642 61.6928 115.403 59.0948 120.599 58.5363C125.794 57.9779 130.999 59.5046 135.068 62.7808L209.988 123.102C210.135 123.22 210.257 123.366 210.348 123.532C210.439 123.698 210.496 123.879 210.516 124.067C210.536 124.255 210.519 124.445 210.466 124.626C210.413 124.807 210.324 124.976 210.206 125.123C210.087 125.27 209.941 125.392 209.775 125.483C209.609 125.573 209.427 125.63 209.239 125.65C209.052 125.67 208.862 125.653 208.68 125.6C208.499 125.547 208.33 125.458 208.183 125.34L133.263 65.0188C131.543 63.6324 129.566 62.5983 127.445 61.9756C125.325 61.3529 123.102 61.1537 120.904 61.3895C118.707 61.6253 116.577 62.2914 114.637 63.3498C112.697 64.4082 110.985 65.8382 109.598 67.5579C108.211 69.2777 107.177 71.2537 106.555 73.3729C105.933 75.4921 105.734 77.7131 105.971 79.909C106.208 82.1049 106.875 84.2326 107.935 86.1706C108.995 88.1087 110.427 89.8191 112.149 91.2041L187.068 151.525C187.365 151.764 187.555 152.111 187.596 152.49C187.636 152.869 187.525 153.249 187.286 153.546V153.546Z" fill="#CCCCCC"/>
<path d="M203.36 129.946L124.969 66.8302C124.94 66.8065 124.915 66.7773 124.897 66.7441C124.879 66.711 124.868 66.6747 124.863 66.6371C124.859 66.5996 124.863 66.5616 124.873 66.5254C124.884 66.4892 124.902 66.4554 124.925 66.4261C124.949 66.3967 124.978 66.3722 125.012 66.3541C125.045 66.336 125.081 66.3247 125.119 66.3206C125.156 66.3166 125.194 66.32 125.23 66.3306C125.267 66.3412 125.301 66.3589 125.33 66.3826L203.721 129.499C203.751 129.522 203.775 129.552 203.793 129.585C203.811 129.618 203.823 129.654 203.827 129.692C203.831 129.729 203.828 129.767 203.817 129.804C203.806 129.84 203.789 129.874 203.765 129.903C203.741 129.932 203.712 129.957 203.679 129.975C203.646 129.993 203.609 130.004 203.572 130.008C203.534 130.012 203.496 130.009 203.46 129.998C203.424 129.988 203.39 129.97 203.36 129.946V129.946Z" fill="#CCCCCC"/>
<path d="M199.029 135.318L120.638 72.2015C120.578 72.1537 120.54 72.0843 120.532 72.0085C120.524 71.9328 120.547 71.8569 120.594 71.7976C120.642 71.7383 120.712 71.7004 120.787 71.6922C120.863 71.684 120.939 71.7062 120.999 71.7539L199.39 134.87C199.419 134.894 199.444 134.923 199.462 134.956C199.48 134.989 199.492 135.026 199.496 135.063C199.5 135.101 199.496 135.139 199.486 135.175C199.475 135.211 199.457 135.245 199.434 135.274C199.41 135.304 199.381 135.328 199.348 135.346C199.314 135.364 199.278 135.376 199.24 135.38C199.203 135.384 199.165 135.38 199.128 135.37C199.092 135.359 199.058 135.341 199.029 135.318V135.318Z" fill="#CCCCCC"/>
<path d="M194.698 140.689L116.306 77.5729C116.247 77.525 116.209 77.4556 116.201 77.3798C116.193 77.304 116.215 77.2281 116.263 77.1687C116.311 77.1094 116.38 77.0714 116.456 77.0633C116.532 77.0551 116.608 77.0774 116.667 77.1253L195.059 140.241C195.088 140.265 195.113 140.294 195.131 140.327C195.149 140.36 195.16 140.397 195.164 140.434C195.168 140.472 195.165 140.51 195.154 140.546C195.144 140.582 195.126 140.616 195.102 140.645C195.078 140.675 195.049 140.699 195.016 140.717C194.983 140.735 194.947 140.747 194.909 140.751C194.871 140.755 194.833 140.752 194.797 140.741C194.761 140.73 194.727 140.713 194.698 140.689V140.689Z" fill="#CCCCCC"/>
<path d="M190.367 146.06L111.975 82.9443C111.946 82.9206 111.921 82.8914 111.903 82.8583C111.885 82.8252 111.874 82.7888 111.87 82.7513C111.866 82.7137 111.869 82.6758 111.88 82.6396C111.89 82.6033 111.908 82.5696 111.932 82.5402C111.956 82.5108 111.985 82.4864 112.018 82.4683C112.051 82.4502 112.087 82.4388 112.125 82.4348C112.163 82.4307 112.201 82.4341 112.237 82.4447C112.273 82.4554 112.307 82.473 112.336 82.4967L190.728 145.613C190.757 145.636 190.782 145.666 190.8 145.699C190.818 145.732 190.829 145.768 190.833 145.806C190.837 145.843 190.834 145.881 190.823 145.918C190.813 145.954 190.795 145.988 190.771 146.017C190.748 146.047 190.718 146.071 190.685 146.089C190.652 146.107 190.616 146.119 190.578 146.123C190.54 146.127 190.502 146.123 190.466 146.112C190.43 146.102 190.396 146.084 190.367 146.06V146.06Z" fill="#CCCCCC"/>
<path d="M213.712 155H0.287634C0.211349 155 0.138188 154.97 0.0842459 154.916C0.030304 154.862 0 154.789 0 154.713C0 154.636 0.030304 154.563 0.0842459 154.509C0.138188 154.455 0.211349 154.425 0.287634 154.425H213.712C213.789 154.425 213.862 154.455 213.916 154.509C213.97 154.563 214 154.636 214 154.713C214 154.789 213.97 154.862 213.916 154.916C213.862 154.97 213.789 155 213.712 155Z" fill="#CCCCCC"/>
<path d="M97.2437 112.271L93.9555 112.271L92.3916 99.5972L97.2449 99.5977L97.2437 112.271Z" fill="#FFB8B8"/>
<path d="M91.6062 111.332H97.9479V115.322H87.6133C87.6133 114.798 87.7166 114.28 87.9172 113.795C88.1179 113.311 88.412 112.872 88.7828 112.501C89.1535 112.131 89.5937 111.837 90.0782 111.636C90.5626 111.436 91.0818 111.332 91.6062 111.332V111.332Z" fill="#2F2E41"/>
<path d="M63.6495 112.271L60.3612 112.271L58.7974 99.5972L63.6506 99.5977L63.6495 112.271Z" fill="#FFB8B8"/>
<path d="M58.0125 111.332H64.3542V115.322H54.0195C54.0195 114.798 54.1228 114.28 54.3235 113.795C54.5241 113.311 54.8183 112.872 55.189 112.501C55.5598 112.131 56 111.837 56.4844 111.636C56.9689 111.436 57.4881 111.332 58.0125 111.332V111.332Z" fill="#2F2E41"/>
<path d="M74.6328 18.2605V16.8234C74.6328 14.3651 75.6101 12.0074 77.3497 10.2691C79.0894 8.53078 81.4488 7.5542 83.909 7.5542H83.909C86.3692 7.5542 88.7287 8.53078 90.4683 10.2691C92.2079 12.0074 93.1852 14.3651 93.1852 16.8234V18.2605C93.1852 20.0328 92.4807 21.7325 91.2265 22.9857C89.9724 24.2389 88.2714 24.943 86.4977 24.943H81.3203C80.4421 24.943 79.5725 24.7701 78.7611 24.4343C77.9498 24.0985 77.2125 23.6062 76.5915 22.9857C75.9705 22.3652 75.4779 21.6285 75.1419 20.8178C74.8058 20.007 74.6328 19.1381 74.6328 18.2605V18.2605Z" fill="#2F2E41"/>
<path d="M83.9088 25.4374C87.8105 25.4374 90.9734 22.2768 90.9734 18.3781C90.9734 14.4794 87.8105 11.3188 83.9088 11.3188C80.0072 11.3188 76.8442 14.4794 76.8442 18.3781C76.8442 22.2768 80.0072 25.4374 83.9088 25.4374Z" fill="#FFB8B8"/>
<path d="M45.4819 42.6398C45.7686 42.3693 46.1112 42.1649 46.4855 42.041C46.8598 41.9171 47.2567 41.8767 47.6483 41.9227C48.0399 41.9687 48.4167 42.0999 48.7521 42.3071C49.0874 42.5143 49.3733 42.7924 49.5894 43.122L55.6455 41.9773L57.2392 45.4851L48.6642 46.9816C48.0861 47.3077 47.4084 47.4107 46.7595 47.2709C46.1105 47.1311 45.5354 46.7583 45.1431 46.2231C44.7509 45.6879 44.5687 45.0276 44.6312 44.3671C44.6936 43.7067 44.9963 43.0921 45.4819 42.6398V42.6398Z" fill="#FFB8B8"/>
<path d="M78.4013 29.8831L78.4805 30.003L68.5497 36.5401L51.7926 41.887C51.5705 41.9584 51.3799 42.1044 51.2534 42.3003C51.127 42.4962 51.0723 42.7299 51.0988 42.9615L51.4644 46.1077C51.4806 46.247 51.5257 46.3813 51.597 46.5021C51.6682 46.6229 51.7638 46.7275 51.8779 46.8092C51.9919 46.8908 52.1217 46.9478 52.2591 46.9764C52.3964 47.005 52.5382 47.0047 52.6754 46.9753L68.4463 43.5974C69.2095 43.4348 69.9312 43.1173 70.5666 42.6645L81.7233 34.7327C82.1278 34.4436 82.4505 34.0548 82.6601 33.6042C82.8697 33.1536 82.959 32.6564 82.9194 32.1611C82.8785 31.665 82.7091 31.1882 82.4278 30.7775C82.1465 30.3667 81.7631 30.0362 81.3152 29.8185C80.8673 29.6007 80.3704 29.5033 79.8734 29.5356C79.3764 29.568 78.8963 29.729 78.4805 30.003L78.4013 29.8831Z" fill="#CCCCCC"/>
<path d="M94.0143 108.675C93.7619 108.675 93.5149 108.602 93.3036 108.464C93.0922 108.326 92.9256 108.129 92.8241 107.899L77.7492 70.6777C77.714 70.597 77.6549 70.529 77.5799 70.4828C77.5048 70.4367 77.4175 70.4146 77.3295 70.4195C77.2415 70.4245 77.1571 70.4562 77.0877 70.5105C77.0184 70.5648 76.9673 70.639 76.9414 70.7232L64.6426 106.959C64.5907 107.128 64.5048 107.284 64.3902 107.418C64.2756 107.552 64.1348 107.662 63.9763 107.74C63.8179 107.817 63.6452 107.862 63.4688 107.871C63.2925 107.879 63.1162 107.852 62.9509 107.79L58.8267 106.244C58.6028 106.161 58.4064 106.018 58.2593 105.83C58.1122 105.642 58.0201 105.417 57.9934 105.18C56.138 89.0291 72.3176 48.2626 72.4813 47.8528L72.5266 47.7393L87.2756 50.9994L87.3063 51.0328C93.1907 57.4473 98.0274 97.9053 98.9373 105.951C98.9712 106.241 98.9051 106.535 98.7497 106.783C98.5944 107.031 98.3591 107.218 98.0827 107.315L94.4423 108.601C94.3049 108.65 94.1601 108.675 94.0143 108.675Z" fill="#2F2E41"/>
<path d="M81.3065 52.3115C77.733 52.3115 73.749 51.5996 72.5227 48.6611L72.4945 48.5936L72.5326 48.531C73.5006 46.9441 74.7799 44.2369 74.0923 43.7287C72.7378 42.728 72.0805 41.0816 72.1388 38.8354C72.2655 33.9591 75.5906 29.6297 80.4129 28.0623H80.4129C81.759 27.6318 83.1287 27.2794 84.5154 27.0068C85.5264 26.8029 86.57 26.8254 87.5712 27.0724C88.5724 27.3195 89.5065 27.7851 90.3063 28.4357C91.1161 29.0906 91.7707 29.9166 92.2231 30.8544C92.6754 31.7922 92.9143 32.8185 92.9226 33.8594C92.9731 39.0706 92.1703 46.3285 88.0581 51.3115C87.8653 51.5427 87.5971 51.6985 87.3007 51.7516C85.3223 52.1092 83.3169 52.2965 81.3065 52.3115Z" fill="#CCCCCC"/>
<path d="M79.9771 52.1164C80.1716 51.4194 80.6335 50.8272 81.2625 50.4685C81.8915 50.1098 82.6367 50.0137 83.3362 50.201C83.479 50.2409 83.6183 50.2925 83.7527 50.3552L88.351 46.1736L91.5489 48.3264L84.9731 54.1411C84.6762 54.6761 84.2087 55.0965 83.6451 55.3353C83.0815 55.5742 82.4541 55.6179 81.8628 55.4594C81.5184 55.3652 81.196 55.2037 80.9144 54.9843C80.6328 54.7648 80.3976 54.4918 80.2222 54.1809C80.0469 53.8701 79.9349 53.5276 79.8928 53.1732C79.8508 52.8188 79.8794 52.4597 79.9771 52.1164V52.1164Z" fill="#FFB8B8"/>
<path d="M87.6227 52.1695C87.3244 52.1697 87.0352 52.0666 86.8043 51.8778L84.9909 50.3971C84.8398 50.2736 84.7185 50.1176 84.6362 49.9407C84.5539 49.7638 84.5128 49.5706 84.5158 49.3756C84.5188 49.1805 84.5659 48.9887 84.6536 48.8144C84.7414 48.6402 84.8674 48.488 85.0223 48.3693L92.6278 42.5405C92.718 42.4711 92.7771 42.3689 92.7924 42.2562C92.8076 42.1435 92.7778 42.0293 92.7094 41.9385L88.0151 35.7371C87.4697 35.019 87.1961 34.1313 87.2428 33.231C87.2896 32.3307 87.6535 31.476 88.2703 30.8182V30.8182C88.9199 30.1171 89.8095 29.6857 90.7626 29.6095C91.7157 29.5334 92.6626 29.818 93.4154 30.407L93.4452 30.4383L98.347 37.4519C98.8771 37.8672 99.3039 38.3993 99.5941 39.0067C99.8844 39.6141 100.03 40.2803 100.02 40.9532C100.01 41.6262 99.8445 42.2878 99.5363 42.8863C99.2281 43.4847 98.7856 44.0039 98.2434 44.4033L88.3932 51.9159C88.1702 52.0807 87.9001 52.1695 87.6227 52.1695Z" fill="#CCCCCC"/>
<path d="M77.6514 16.3923V12.8898L83.909 10.1593L89.8758 12.8898V16.3923C89.8758 16.5447 89.8152 16.6909 89.7073 16.7987C89.5995 16.9065 89.4531 16.9671 89.3006 16.9671H78.2266C78.0741 16.9671 77.9277 16.9065 77.8199 16.7987C77.712 16.6909 77.6514 16.5447 77.6514 16.3923Z" fill="#2F2E41"/>
<path d="M83.6216 8.01883C82.7015 5.0761 84.6338 1.7036 87.4905 0.538795C90.3471 -0.626012 93.7648 0.188224 96.1752 2.11266C98.5857 4.0371 100.081 6.91954 100.874 9.89913C101.666 12.8787 101.816 15.9857 101.963 19.0652C105.473 19.7095 107.86 23.8692 106.644 27.2217C105.428 30.5741 100.928 32.2396 97.8202 30.4874C94.7123 28.7352 93.8121 24.0249 96.0552 21.2516C97.1165 19.9393 97.7094 18.3108 97.7399 16.6238C97.7704 14.9368 97.2368 13.2879 96.2235 11.9382C95.2103 10.5884 93.7754 9.6151 92.1461 9.17229C90.5167 8.72947 88.7861 8.84249 87.2283 9.49346C85.4985 10.2163 83.3281 8.33822 83.6216 8.01883Z" fill="#2F2E41"/>
<path d="M44.1848 29.0529C39.9826 29.0253 35.833 28.1172 32.004 26.3871C31.7761 26.2856 31.5826 26.12 31.4472 25.9106C31.3117 25.7012 31.2402 25.4569 31.2412 25.2075V14.7404C31.2416 14.3975 31.3781 14.0687 31.6208 13.8263C31.8634 13.5838 32.1924 13.4474 32.5356 13.447H55.834C56.1771 13.4474 56.5061 13.5838 56.7488 13.8263C56.9914 14.0687 57.1279 14.3975 57.1283 14.7404V25.2076C57.1294 25.4569 57.0578 25.7012 56.9224 25.9106C56.7869 26.12 56.5935 26.2856 56.3655 26.3871C52.5365 28.1172 48.3869 29.0253 44.1848 29.0529V29.0529Z" fill="#CF2932"/>
<path d="M44.1816 20.5733C44.0089 20.5734 43.8379 20.5391 43.6786 20.4722L25.2033 12.6833C24.9651 12.5829 24.7624 12.4134 24.6214 12.1968C24.4804 11.9802 24.4076 11.7264 24.4123 11.468C24.4171 11.2097 24.4991 10.9587 24.648 10.7474C24.7968 10.5361 25.0056 10.3742 25.2473 10.2825L43.7229 3.27882C44.0205 3.1655 44.3495 3.1662 44.6466 3.28079L62.8746 10.2845C63.115 10.3769 63.3223 10.5388 63.4701 10.7496C63.6179 10.9604 63.6994 11.2105 63.7041 11.4678C63.7089 11.7251 63.6367 11.978 63.4968 12.1941C63.3569 12.4102 63.1557 12.5797 62.9189 12.6809L44.6907 20.4697C44.5297 20.5382 44.3566 20.5734 44.1816 20.5733V20.5733Z" fill="#CF2932"/>
<path d="M33.3982 27.0994C34.3513 27.0994 35.124 26.3273 35.124 25.3749C35.124 24.4225 34.3513 23.6504 33.3982 23.6504C32.445 23.6504 31.6724 24.4225 31.6724 25.3749C31.6724 26.3273 32.445 27.0994 33.3982 27.0994Z" fill="#3F3D56"/>
<path opacity="0.2" d="M62.9818 11.5754L44.7535 19.3642C44.6114 19.4249 44.4585 19.4564 44.304 19.4567C44.1494 19.4571 43.9964 19.4264 43.854 19.3663L25.3787 11.5777C25.1467 11.4822 24.9531 11.3122 24.8285 11.0945C24.7471 11.2357 24.6966 11.3925 24.6805 11.5547C24.6643 11.7168 24.6829 11.8805 24.7349 12.035C24.7869 12.1894 24.8712 12.331 24.9822 12.4504C25.0932 12.5697 25.2284 12.6642 25.3787 12.7273L43.854 20.516C43.9964 20.576 44.1494 20.6068 44.304 20.6064C44.4585 20.606 44.6114 20.5745 44.7535 20.5138L62.9818 12.7251C63.1314 12.6613 63.2657 12.5666 63.3759 12.4472C63.4861 12.3278 63.5698 12.1863 63.6213 12.0322C63.6728 11.8781 63.691 11.7149 63.6747 11.5532C63.6584 11.3916 63.608 11.2352 63.5267 11.0945C63.4031 11.3104 63.2115 11.4795 62.9818 11.5754V11.5754Z" fill="black"/>
<path d="M33.5435 25.3682C33.6198 25.3682 33.6929 25.3379 33.7469 25.284C33.8008 25.2301 33.8311 25.157 33.8311 25.0808V15.4634L43.3177 12.01C43.3939 12.0112 43.4676 11.982 43.5223 11.9289C43.577 11.8758 43.6084 11.8031 43.6096 11.7269C43.6107 11.6507 43.5815 11.5771 43.5284 11.5224C43.4752 11.4677 43.4025 11.4363 43.3262 11.4352L33.8397 14.8885C33.7634 14.8868 33.6875 14.9005 33.6166 14.9289C33.5457 14.9574 33.4814 14.9999 33.4274 15.0539C33.3729 15.1072 33.3296 15.1709 33.3002 15.2413C33.2707 15.3116 33.2556 15.3871 33.2559 15.4634V25.0808C33.2559 25.157 33.2862 25.2301 33.3401 25.284C33.3941 25.3379 33.4672 25.3682 33.5435 25.3682V25.3682Z" fill="#3F3D56"/>
</g>
<defs>
<clipPath id="clip0">
<rect width="214" height="155" fill="white"/>
</clipPath>
</defs>
</svg>
