<svg width="64" height="64" viewBox="0 0 64 64" fill="none" xmlns="http://www.w3.org/2000/svg">
<path d="M58.52 28L52 12H56V8H36V4H32V8H12V12H16L9.52 28H8V32H8.6C9.224 33.992 10.492 35.72 12.2 36.92C13.8866 38.143 15.9166 38.8016 18 38.8016C20.0834 38.8016 22.1134 38.143 23.8 36.92C25.5094 35.7127 26.7855 33.9878 27.44 32H28V28H26.2L19.52 12H32V44H24L22.44 44.72L14.44 54.76L16 58H52L53.56 54.76L45.56 44.72L44 44H36V12H48.52L41.84 28H40V32H40.6C41.2542 33.9818 42.5168 35.7067 44.208 36.9294C45.8993 38.1522 47.9331 38.8103 50.02 38.8103C52.1069 38.8103 54.1407 38.1522 55.832 36.9294C57.5232 35.7067 58.7858 33.9818 59.44 32H60V28H58.52ZM20.88 34.04C19.9979 34.5282 19.0082 34.7894 18 34.8C17.0038 34.7948 16.0257 34.533 15.16 34.04C14.2772 33.5561 13.5335 32.8537 13 32H23C22.471 32.8433 21.743 33.5438 20.88 34.04ZM21.88 28H13.88L17.88 18.4L21.88 28ZM43.04 48L48 54H20L24.96 48H43.04ZM50.16 18.48L54.16 28.08H46.16L50.16 18.48ZM52.88 34.12C52.0055 34.6268 51.0108 34.8893 50 34.88C49.0013 34.8942 48.0182 34.6311 47.16 34.12C46.2759 33.6026 45.5338 32.8743 45 32H55C54.5041 32.89 53.77 33.6241 52.88 34.12Z" fill="#CF2932"/>
</svg>
