<svg width="549" height="523" viewBox="0 0 549 523" fill="none" xmlns="http://www.w3.org/2000/svg">
<path d="M67.9009 395.916C74.0746 392.486 81.3323 392.041 88.1776 393.261C91.8535 393.921 95.6826 395.103 98.1922 398.088C100.702 401.073 101.161 406.307 98.2864 408.86C96.578 410.385 94.1981 410.613 91.9831 410.588C86.6223 410.524 80.6725 409.508 76.3957 412.976C73.945 414.971 72.3191 418.261 69.409 419.239C66.4989 420.217 63.3177 418.375 61.8097 415.593C60.416 412.699 60.1081 409.338 60.9496 406.205C61.2946 404.029 62.1015 401.967 63.3073 400.182C64.5131 398.398 66.0852 396.937 67.9009 395.916V395.916Z" fill="#CF2932"/>
<path d="M53.7744 366.52C57.5446 372.326 64.873 370.395 68.278 366.863C71.6829 363.332 73.1085 358.174 74.4163 353.283C77.3971 342.092 80.4133 330.417 78.1865 318.984C77.6555 315.531 76.2487 312.304 74.1218 309.66C73.0469 308.353 71.6723 307.375 70.1359 306.822C68.5994 306.269 66.9551 306.161 65.3678 306.51C61.6683 307.564 59.3826 311.464 57.7214 315.186C52.8279 326.142 50.2639 338.138 50.2163 350.298C50.2163 355.951 50.8172 361.883 53.7509 366.558" fill="#CF2932"/>
<path d="M43.418 374.853C47.5181 369.607 48.2957 361.972 46.4695 355.405C44.6433 348.837 40.5786 343.26 35.7951 338.7C30.2139 333.347 23.7189 329.218 16.6731 326.543C13.9463 325.351 11.0113 324.813 8.07233 324.968C6.60447 325.057 5.1792 325.533 3.92049 326.352C2.66178 327.171 1.60773 328.309 0.850032 329.668C-1.16467 333.809 0.767558 338.827 2.85295 342.93C6.53177 350.147 10.7312 357.041 15.4125 363.548C19.1827 368.781 23.4948 373.939 29.2326 376.251C34.9704 378.563 40.932 378.347 44.0307 374.104" fill="#CF2932"/>
<path d="M53.5269 454.097C53.7228 453.235 53.8372 452.354 53.8686 451.467C54.0336 449.536 54.2574 447.135 54.5166 444.265C54.8455 440.716 55.345 437.188 56.0129 433.695C56.8853 429.448 58.0671 425.281 59.5475 421.233C61.0098 417.193 62.993 413.396 65.4384 409.953C67.4347 407.152 69.987 404.869 72.9082 403.271C74.8984 402.227 77.0302 401.533 79.2233 401.213C80.0462 401.177 80.8635 401.049 81.6621 400.832C80.8399 400.733 80.0101 400.733 79.1879 400.832C76.9172 401.018 74.6951 401.637 72.6254 402.661C69.5558 404.227 66.8625 406.535 64.7551 409.407C62.2027 412.898 60.1422 416.776 58.6403 420.916C57.122 425.031 55.9393 429.282 55.1057 433.619C54.4717 437.153 54.035 440.725 53.7979 444.315C53.5859 447.377 53.5152 449.854 53.468 451.569C53.4031 452.411 53.4228 453.259 53.5269 454.097V454.097Z" fill="#263238"/>
<path d="M53.9864 448.558C54.0307 448.136 54.0307 447.71 53.9864 447.288V443.782C53.9864 440.746 53.9864 436.35 54.1278 430.926C54.3752 420.065 55.306 408.378 56.9201 391.901C58.4989 376.416 60.6314 358.377 62.8818 346.665C63.353 343.997 63.8479 341.583 64.2956 339.5C64.7433 337.417 65.1085 335.575 65.4738 334.101C65.839 332.628 66.0393 331.561 66.2396 330.709C66.3561 330.297 66.4234 329.87 66.4399 329.439C66.2593 329.799 66.1245 330.184 66.0393 330.582C65.7919 331.459 65.4856 332.577 65.0968 333.936C64.708 335.295 64.2485 337.188 63.7654 339.297C63.2823 341.406 62.7168 343.781 62.1866 346.436C59.4123 360.281 57.32 374.274 55.9187 388.357C54.2456 404.871 53.4916 419.899 53.4209 430.774C53.4209 436.223 53.4209 440.631 53.5976 443.667C53.6801 445.09 53.7508 446.208 53.7979 447.161C53.8016 447.634 53.8651 448.104 53.9864 448.558V448.558Z" fill="#263238"/>
<path d="M54.0454 419.569C54.1353 418.352 54.1353 417.128 54.0454 415.911C53.8535 412.591 53.5075 409.284 53.0086 406.002C52.2699 401.135 51.2747 396.316 50.0278 391.571C48.5575 385.746 46.6748 380.051 44.3961 374.536C40.4957 364.332 34.9065 354.979 27.9014 346.932C26.6877 345.556 25.3971 344.262 24.0369 343.057C23.4361 342.524 22.9177 341.977 22.3757 341.558L20.8794 340.44C20.0072 339.689 19.0814 339.014 18.1106 338.42C17.9457 338.649 22.1518 341.329 27.4655 347.414C34.2124 355.535 39.6271 364.836 43.4771 374.917C45.6983 380.417 47.5796 386.07 49.1088 391.838C50.5698 397.148 51.5477 402 52.2782 406.129C53.0086 410.258 53.3857 413.611 53.6331 415.949C53.6916 417.165 53.8294 418.374 54.0454 419.569V419.569Z" fill="#263238"/>
<path d="M28.0664 470.713L30.7527 510.512H78.1748L80.8729 470.713H28.0664Z" fill="#263238"/>
<path d="M86.5283 455.024H23.4834V470.713H86.5283V455.024Z" fill="#263238"/>
<path d="M23.4834 508.988V513.332H26.4407H85.4915V508.988H23.4834Z" fill="#455A64"/>
<path d="M29.3501 520.993L26.4399 513.332H83.2287L79.8355 520.993H29.3501Z" fill="#455A64"/>
<path d="M79.9888 483.785C79.9299 483.914 79.8546 484.033 79.765 484.14C79.5765 484.42 79.3526 484.75 79.0581 485.156L76.3011 488.967L76.1715 489.145L76.0537 488.967L69.2673 478.805H69.6561L62.9758 488.967L62.7637 489.285L62.5281 488.993L54.6106 478.83H55.0701C54.9287 479.008 54.7756 479.211 54.6342 479.415L47.5651 488.993L47.3294 489.31L47.1173 488.98L40.4252 478.818H40.814C37.5269 482.87 34.7228 486.3 32.5667 488.98L32.4253 489.158L32.3193 488.955C31.2236 486.998 30.3635 485.423 29.739 484.293C29.4681 483.785 29.2442 483.378 29.0793 483.022C28.9896 482.886 28.9183 482.736 28.8672 482.578C28.8672 482.578 28.9732 482.705 29.15 482.971L29.8804 484.166L32.5903 488.752H32.3311L40.4252 478.513L40.6373 478.259L40.814 478.538L47.5651 488.701H47.0938L54.1629 479.11L54.5989 478.525L54.8345 478.22L55.0583 478.513C57.8389 482.082 60.5016 485.525 62.964 488.675H62.5163L69.2673 478.513L69.4676 478.22L69.6561 478.513L76.3011 488.752H76.0655L78.9402 485.055L79.7061 484.089C79.8867 483.827 79.981 483.725 79.9888 483.785Z" fill="#E0E0E0"/>
<path d="M81.5325 470.446C81.5325 470.624 69.6446 470.764 54.9997 470.764C40.3548 470.764 28.4551 470.624 28.4551 470.446C28.4551 470.268 40.3312 470.128 54.9997 470.128C69.6682 470.128 81.5325 470.268 81.5325 470.446Z" fill="#455A64"/>
<path d="M83.9239 513.764C83.9239 513.942 70.9638 514.082 55.0818 514.082C39.1998 514.082 26.2397 513.942 26.2397 513.764C26.2397 513.587 39.1998 513.447 55.0818 513.447C70.9638 513.447 83.9239 513.587 83.9239 513.764Z" fill="#263238"/>
<path d="M408.209 353.08H518.405C523.133 353.08 527.667 355.105 531.01 358.709C534.353 362.314 536.231 367.203 536.231 372.3V521.717H390.418V372.3C390.418 367.209 392.292 362.326 395.627 358.723C398.962 355.12 403.488 353.09 408.209 353.08V353.08Z" fill="#455A64"/>
<path d="M523.955 353.944C524.132 353.944 524.261 391.482 524.261 437.786C524.261 484.089 524.132 521.628 523.955 521.628C523.778 521.628 523.648 484.089 523.648 437.786C523.648 391.482 523.79 353.944 523.955 353.944Z" fill="#263238"/>
<path d="M452.109 170.012C465.519 190.712 473.208 215.089 474.282 240.312C474.966 257.208 472.857 275.209 480.291 290.097C490.966 311.464 514.046 310.74 521.115 333.771C524.19 343.794 518.523 365.834 516.992 376.263C515.26 388.103 521.975 398.05 520.244 409.902C518.653 420.763 511.113 428.512 502.064 433.568C494.005 438.065 486.559 438.192 478.182 434.445C462.206 427.318 448.916 419.798 437.546 405.773C421.57 386.083 416.74 358.771 413.983 332.818C407.966 275.423 409.183 217.414 417.6 160.37" fill="#263238"/>
<path d="M486.264 436.871C486.43 436.813 486.599 436.767 486.771 436.731C487.113 436.642 487.631 436.554 488.291 436.338C493.261 434.88 497.715 431.86 501.086 427.661C502.354 426.061 503.323 424.21 503.937 422.211C504.525 419.938 504.861 417.597 504.939 415.237C505.024 409.796 504.51 404.364 503.407 399.053C502.382 393.286 501.051 387.138 500.65 380.468C500.455 377.064 500.681 373.646 501.322 370.306C502.06 366.836 503.061 363.437 504.314 360.143C505.597 356.763 506.722 353.317 507.684 349.815C508.683 346.236 508.964 342.469 508.509 338.763C507.959 335.076 506.651 331.569 504.679 328.499C502.752 325.511 500.511 322.775 497.999 320.343C493.133 315.44 487.867 311.451 483.366 306.853C475.337 298.842 468.858 289.197 464.303 278.473C462.538 274.368 461.072 270.121 459.92 265.77C459.354 263.877 459.025 262.048 458.624 260.396C458.223 258.745 458.047 257.195 457.787 255.823C457.422 253.041 457.139 250.894 457.069 249.472C457.069 248.76 456.974 248.201 456.951 247.795C456.927 247.388 456.951 247.223 456.951 247.223C456.951 247.223 456.951 247.414 457.033 247.795C457.116 248.176 457.139 248.748 457.222 249.459C457.328 250.92 457.646 253.067 458.047 255.811C458.318 257.183 458.612 258.707 458.93 260.371C459.248 262.035 459.684 263.814 460.273 265.706C461.456 270.014 462.941 274.218 464.715 278.283C469.302 288.909 475.774 298.463 483.767 306.408C488.244 310.905 493.522 314.932 498.435 319.861C500.98 322.328 503.253 325.103 505.21 328.131C507.233 331.284 508.574 334.887 509.133 338.674C509.603 342.468 509.318 346.327 508.296 349.993C507.377 353.601 506.093 357.018 504.903 360.372C503.66 363.626 502.659 366.982 501.911 370.407C501.274 373.701 501.048 377.072 501.239 380.43C501.557 387.011 502.924 393.134 503.937 398.939C505.021 404.294 505.512 409.77 505.398 415.25C505.299 417.649 504.943 420.028 504.338 422.339C503.683 424.372 502.68 426.255 501.38 427.89C499.302 430.489 496.773 432.625 493.934 434.178C492.165 435.191 490.285 435.959 488.338 436.465C487.657 436.657 486.964 436.793 486.264 436.871V436.871Z" fill="#455A64"/>
<path d="M266.897 482.26L323.451 453.309C323.451 453.309 345.471 338.027 349.642 329.376C353.813 320.725 371.203 313.242 371.203 313.242L368.292 469.341L363.108 505.38L283.369 513.523L266.897 482.26Z" fill="#CF2932"/>
<path d="M218.65 509.572C218.332 509.572 216.765 510.614 218.073 513.294C219.38 515.975 228.971 524.829 231.787 521.742C234.603 518.655 230.302 514.895 230.302 514.895L218.65 509.572Z" fill="#FFBE9D"/>
<path d="M230.703 515.009C230.703 515.009 242.273 516.585 246.715 518.414C251.557 520.396 257.448 519.036 261.407 516.153C263.656 514.538 265.756 512.691 267.675 510.639L282.426 510.385C284.546 507.708 285.937 504.45 286.445 500.972C286.952 497.494 286.556 493.932 285.3 490.682C284.511 488.421 283.372 486.321 281.931 484.471C280.175 482.425 277.407 480.774 272.623 479.885L255.103 483.962C255.103 483.962 228.005 481.866 223.127 484.331C223.127 484.331 217.06 488.205 215.186 489.831C214.479 490.454 212.323 497.898 216.742 501.772C216.742 501.772 212.901 505.063 214.986 508.022L215.976 509.293C215.976 509.293 213.396 512.901 214.727 514.476C216.058 516.051 227.687 523.368 231.822 521.64C235.958 519.913 232.541 515.733 230.703 514.971" fill="#FFBE9D"/>
<path d="M219.652 495.332C220.141 495.487 220.621 495.674 221.09 495.891C221.997 496.259 223.328 496.793 225.001 497.364C225.826 497.656 226.745 497.949 227.746 498.228C228.748 498.508 229.82 498.749 230.939 499.143C232.157 499.502 233.258 500.219 234.12 501.213C234.596 501.764 234.925 502.443 235.074 503.178C235.224 503.913 235.187 504.678 234.969 505.393C234.692 506.113 234.187 506.703 233.543 507.057C232.937 507.377 232.282 507.575 231.611 507.641C230.378 507.72 229.141 507.647 227.923 507.425C225.884 507.07 223.88 506.508 221.938 505.749C220.277 505.113 218.969 504.478 218.062 504.097C217.581 503.91 217.12 503.672 216.683 503.386C217.176 503.527 217.66 503.701 218.132 503.907C219.051 504.262 220.383 504.808 222.044 505.393C223.962 506.095 225.933 506.617 227.935 506.955C229.104 507.153 230.289 507.213 231.469 507.133C232.08 507.074 232.676 506.893 233.225 506.6C233.759 506.299 234.176 505.804 234.403 505.202C234.594 504.585 234.631 503.925 234.511 503.287C234.391 502.65 234.118 502.058 233.72 501.569C232.917 500.642 231.894 499.97 230.762 499.626C229.679 499.232 228.595 498.978 227.605 498.673C226.615 498.368 225.684 498.05 224.86 497.745C223.187 497.123 221.879 496.475 220.984 496.107C220.518 495.894 220.072 495.635 219.652 495.332V495.332Z" fill="#EB996E"/>
<path d="M220.689 486.325C221.176 486.472 221.653 486.659 222.114 486.884C223.033 487.265 224.353 487.811 226.002 488.396C227.652 488.98 229.643 489.666 231.893 490.212C233.128 490.421 234.301 490.934 235.322 491.711C235.863 492.196 236.219 492.879 236.323 493.63C236.427 494.386 236.324 495.158 236.029 495.853C235.729 496.515 235.306 497.103 234.784 497.58C234.263 498.057 233.656 498.412 233.001 498.622C231.812 499.039 230.548 499.148 229.313 498.94C227.303 498.506 225.332 497.886 223.422 497.085L219.522 495.611C219.039 495.448 218.566 495.248 218.108 495.014C218.609 495.105 219.102 495.241 219.581 495.421L223.528 496.691C225.448 497.428 227.417 498.005 229.419 498.419C230.586 498.599 231.775 498.486 232.895 498.088C233.49 497.892 234.041 497.565 234.514 497.128C234.986 496.69 235.37 496.153 235.64 495.548C235.918 494.971 236.012 494.311 235.908 493.67C235.804 493.03 235.507 492.444 235.063 492.004C234.098 491.278 232.995 490.796 231.834 490.593C229.584 489.984 227.593 489.323 225.943 488.663C224.294 488.002 222.998 487.392 222.102 486.986C221.615 486.807 221.143 486.586 220.689 486.325V486.325Z" fill="#EB996E"/>
<path d="M226.262 488.866C226.021 488.036 225.843 487.186 225.732 486.325C225.466 485.5 225.273 484.649 225.154 483.785C225.716 484.445 226.081 485.273 226.203 486.16C226.498 487.03 226.518 487.981 226.262 488.866V488.866Z" fill="#EB996E"/>
<path d="M267.062 489.272L256.753 485.055C256.753 485.055 228.134 470.649 227.651 471.437C227.168 472.224 225.613 472.123 225.955 475.883C226.297 479.643 242.968 487.24 243.498 488.586C244.028 489.933 243.145 496.488 249.307 501.201C255.468 505.914 259.91 506.028 259.91 506.028" fill="#FFBE9D"/>
<path d="M259.91 505.914H259.639L258.932 505.837C258.025 505.682 257.131 505.449 256.258 505.139C253.045 503.959 250.076 502.117 247.516 499.714C245.782 497.963 244.554 495.709 243.981 493.223C243.686 491.856 243.481 490.468 243.369 489.069C243.348 488.909 243.313 488.751 243.262 488.599C243.195 488.476 243.103 488.372 242.991 488.294C242.722 488.083 242.443 487.888 242.155 487.71C241.578 487.341 240.977 486.986 240.341 486.63C237.866 485.195 235.215 483.759 232.553 482.108C231.188 481.278 229.863 480.375 228.582 479.402C227.919 478.9 227.297 478.339 226.721 477.725C226.414 477.409 226.149 477.05 225.931 476.658C225.815 476.442 225.735 476.205 225.696 475.959C225.672 475.731 225.672 475.501 225.696 475.273C225.602 474.353 225.753 473.423 226.132 472.593C226.366 472.201 226.675 471.867 227.039 471.615C227.187 471.511 227.321 471.387 227.439 471.246C227.439 471.246 227.439 471.246 227.534 471.132C227.591 471.085 227.662 471.063 227.734 471.068C227.8 471.06 227.868 471.06 227.934 471.068L228.252 471.157C229.796 471.666 231.221 472.339 232.647 472.974C235.475 474.244 238.173 475.515 240.741 476.785C245.89 479.326 250.485 481.587 254.349 483.543C255.315 484.013 256.223 484.509 257.094 484.915L259.616 485.982L263.657 487.71L266.202 488.815L266.85 489.12C267.003 489.12 267.074 489.222 267.074 489.234C267.074 489.247 266.991 489.234 266.838 489.158L266.166 488.917L263.586 487.888L259.51 486.325L256.965 485.296C256.069 484.902 255.162 484.42 254.196 483.95L240.553 477.306C237.972 476.035 235.274 474.765 232.447 473.495C231.033 472.872 229.595 472.224 228.111 471.704L227.852 471.64H227.757C227.757 471.64 227.757 471.564 227.757 471.513C228.087 471.742 227.84 471.589 227.911 471.64C227.77 471.828 227.603 471.991 227.416 472.123C227.102 472.331 226.836 472.613 226.638 472.949C226.307 473.695 226.176 474.527 226.261 475.349C226.254 475.747 226.339 476.14 226.509 476.493C226.706 476.845 226.943 477.17 227.216 477.458C227.773 478.05 228.376 478.59 229.018 479.072C230.291 480.062 231.622 480.926 232.942 481.752C235.592 483.403 238.22 484.852 240.706 486.287C241.33 486.655 241.884 487.011 242.532 487.405C242.836 487.592 243.131 487.795 243.416 488.015C243.587 488.139 243.725 488.31 243.816 488.51C243.876 488.695 243.915 488.887 243.934 489.082C244.046 490.466 244.239 491.84 244.511 493.198C245.05 495.618 246.219 497.822 247.881 499.549C250.392 501.944 253.297 503.81 256.446 505.05C257.304 505.376 258.182 505.635 259.074 505.825C259.38 505.901 259.616 505.926 259.781 505.952L259.91 505.914Z" fill="#EB996E"/>
<path d="M228.347 507.362C228.727 507.411 229.097 507.527 229.443 507.705C230.411 508.124 231.319 508.689 232.141 509.382C232.713 509.865 233.235 510.414 233.696 511.02C233.985 511.362 234.209 511.763 234.352 512.2C234.496 512.636 234.557 513.099 234.532 513.561C234.438 514.087 234.209 514.573 233.872 514.966C233.535 515.359 233.102 515.642 232.624 515.784C231.639 516.075 230.597 516.039 229.631 515.683C226.354 514.637 223.175 513.263 220.135 511.579C219.219 511.064 218.33 510.496 217.472 509.877C217.142 509.673 216.838 509.426 216.565 509.14C216.915 509.29 217.251 509.477 217.566 509.699C218.203 510.093 219.122 510.639 220.288 511.249C223.333 512.818 226.484 514.134 229.714 515.187C230.594 515.516 231.545 515.556 232.447 515.301C232.843 515.189 233.204 514.961 233.488 514.643C233.773 514.325 233.971 513.929 234.061 513.498C234.087 513.089 234.038 512.679 233.917 512.291C233.795 511.903 233.604 511.545 233.354 511.236C232.922 510.644 232.432 510.103 231.893 509.623C230.804 508.711 229.613 507.952 228.347 507.362V507.362Z" fill="#EB996E"/>
<g opacity="0.3">
<path opacity="0.3" d="M362.708 505.38C353.447 471.704 345.282 428.334 336.022 394.658C332.629 425.743 336.87 466.787 342.172 497.555C342.796 501.163 343.079 504.694 345.707 507.07L362.708 505.38Z" fill="black"/>
</g>
<path d="M347.544 482.26C347.415 482.26 347.026 480.062 345.765 476.696C345.024 474.734 344.138 472.839 343.114 471.03C341.837 468.835 340.378 466.769 338.755 464.857C337.108 462.965 335.302 461.243 333.359 459.712C331.766 458.469 330.079 457.373 328.316 456.434C325.3 454.834 323.274 454.249 323.309 454.122C323.8 454.184 324.282 454.308 324.746 454.491C325.305 454.643 325.852 454.838 326.384 455.075C327.106 455.347 327.814 455.661 328.505 456.015C330.319 456.911 332.054 457.982 333.689 459.216C335.682 460.746 337.533 462.482 339.215 464.399C340.862 466.359 342.33 468.486 343.597 470.751C344.615 472.6 345.479 474.543 346.178 476.556C346.496 477.407 346.684 478.208 346.885 478.906C347.066 479.5 347.208 480.107 347.309 480.723C347.433 481.226 347.512 481.741 347.544 482.26V482.26Z" fill="#263238"/>
<path d="M365.193 311.667C365.193 311.667 335.585 382.996 335.585 396.132C335.585 409.267 357.771 500.21 357.771 500.21C357.559 503.83 356.699 521.958 356.699 521.958L481.104 522.428L483.001 493.591L473.292 466.114L482.989 388.433C482.989 388.433 489.516 343.336 490.058 330.722C490.788 314.945 441.21 296.652 442.565 294.467L434.011 282.068L384.987 324.993L375.29 294.81L363.673 306.637L365.193 311.667Z" fill="#CF2932"/>
<path d="M446.665 330.646C433.199 355.201 408.563 399.943 408.563 399.943L364.404 454.237C364.404 454.237 361.518 481.815 367.291 490.276C373.064 498.736 382.973 504.516 382.973 504.516C382.973 504.516 394.625 504.516 409.435 491.165C424.245 477.814 465.092 422.643 465.092 422.643L479.125 404.389C479.125 404.389 495.855 360.079 492.733 337.531C491.555 328.829 488.091 325.222 483.519 321.233C472.008 311.235 454.194 316.914 446.665 330.646Z" fill="#CF2932"/>
<path d="M484.32 389.018C484.261 389.192 484.19 389.362 484.108 389.526C483.955 389.881 483.731 390.351 483.46 390.974C482.871 392.244 481.976 394.086 480.75 396.424C478.312 401.111 474.518 407.73 469.569 415.72C467.083 419.709 464.315 424.041 461.263 428.639C458.212 433.238 454.748 437.976 451.896 443.515C449.045 449.054 446.453 455.1 443.331 461.147C440.124 467.412 436.363 473.33 432.103 478.817C427.841 484.328 422.828 489.108 417.234 492.994C411.992 496.601 406.137 499.045 400.009 500.184C394.463 501.246 388.769 500.985 383.326 499.422C380.863 498.705 378.489 497.668 376.257 496.335C374.179 495.154 372.228 493.731 370.436 492.092C368.794 490.625 367.322 488.949 366.054 487.1C364.911 485.458 363.939 483.686 363.155 481.815C361.944 478.807 361.15 475.622 360.799 472.364C360.596 470.31 360.53 468.242 360.599 466.178C360.599 465.492 360.669 464.907 360.693 464.564C360.681 464.382 360.681 464.2 360.693 464.018C360.706 464.2 360.706 464.383 360.693 464.564C360.693 464.958 360.693 465.492 360.693 466.178C360.67 468.232 360.773 470.286 360.999 472.326C361.395 475.549 362.22 478.694 363.45 481.663C364.242 483.497 365.214 485.235 366.348 486.846C367.611 488.662 369.075 490.304 370.707 491.737C372.482 493.343 374.414 494.736 376.469 495.891C378.67 497.19 381.008 498.2 383.432 498.901C388.819 500.418 394.447 500.652 399.927 499.587C405.972 498.444 411.747 496.017 416.916 492.448C422.46 488.59 427.429 483.849 431.655 478.386C435.891 472.935 439.627 467.056 442.813 460.83C445.935 454.821 448.456 448.723 451.413 443.21C454.301 438.062 457.448 433.087 460.839 428.309C463.902 423.736 466.73 419.417 469.192 415.453C474.188 407.514 478.029 400.933 480.527 396.297C481.787 393.972 482.718 392.155 483.331 390.91L484.049 389.488C484.123 389.32 484.214 389.163 484.32 389.018V389.018Z" fill="#263238"/>
<path d="M362.142 451.81C362.142 451.899 361.518 452.318 360.705 453.296C359.622 454.535 358.955 456.128 358.81 457.822C358.665 459.517 359.05 461.215 359.903 462.646C360.528 463.764 361.082 464.31 361.082 464.386C361.082 464.463 360.339 464.031 359.562 462.913C358.546 461.431 358.072 459.597 358.231 457.763C358.389 455.928 359.169 454.22 360.422 452.966C360.878 452.408 361.476 452.006 362.142 451.81V451.81Z" fill="#263238"/>
<path d="M370.307 466.216C370.544 466.25 370.777 466.309 371.002 466.394L371.827 466.635L373.005 466.864C375.453 467.212 377.942 466.96 380.286 466.127C383.775 464.867 386.984 462.843 389.712 460.182C392.954 456.827 395.893 453.147 398.489 449.193C401.127 445.207 404.166 441.547 407.55 438.281C409.152 436.833 410.719 435.55 412.027 434.165C413.272 432.933 414.274 431.443 414.972 429.783C415.44 428.57 415.624 427.252 415.507 425.945C415.39 424.637 414.975 423.381 414.301 422.288C413.732 421.535 412.999 420.946 412.168 420.573C412.402 420.62 412.631 420.693 412.852 420.789C413.486 421.095 414.047 421.556 414.489 422.135C415.236 423.254 415.709 424.557 415.866 425.924C416.022 427.292 415.857 428.68 415.385 429.96C414.683 431.694 413.665 433.258 412.392 434.559C411.061 435.982 409.482 437.303 407.915 438.751C404.587 442.013 401.593 445.65 398.984 449.6C396.357 453.588 393.373 457.29 390.077 460.652C387.292 463.329 384.017 465.345 380.463 466.571C378.052 467.385 375.496 467.573 373.005 467.118L371.827 466.826C371.497 466.724 371.226 466.597 371.014 466.521C370.768 466.45 370.531 466.347 370.307 466.216V466.216Z" fill="#263238"/>
<path d="M452.662 323.1C452.514 323.366 452.348 323.621 452.168 323.862C451.779 324.396 451.284 325.133 450.659 325.984C449.316 327.788 447.467 330.481 445.204 333.834C439.439 342.646 434.193 351.84 429.499 361.362C423.938 372.491 419.343 382.818 415.82 390.186C414.077 393.883 412.639 396.856 411.591 398.888L410.448 401.213C410.319 401.491 410.165 401.755 409.988 402C410.077 401.706 410.192 401.421 410.33 401.149L411.437 398.748L415.479 389.97C418.895 382.539 423.443 372.186 429.004 361.032C433.703 351.479 439.018 342.293 444.91 333.542C447.266 330.227 449.116 327.559 450.518 325.806L452.12 323.761C452.278 323.52 452.46 323.298 452.662 323.1V323.1Z" fill="#263238"/>
<g opacity="0.3">
<path opacity="0.3" d="M360.728 464.018C366.466 467.372 372.781 467.016 379.191 465.67C385.662 464.275 391.488 460.515 395.685 455.024C394.716 461.139 392.059 466.797 388.062 471.259C383.986 475.565 378.071 478.055 372.463 476.95C366.855 475.845 361.176 470.154 360.681 464.018" fill="black"/>
</g>
<g opacity="0.3">
<path opacity="0.3" d="M415.043 427.356C418.685 433.41 419.955 440.773 418.577 447.834C423.443 439.806 424.586 429.643 423.29 420.154C421.994 410.664 418.4 401.708 414.418 393.134C414.418 393.134 410.035 401.137 409.988 402.026C409.776 406.65 411.355 415.339 412.18 419.874C413.28 421.013 414.1 422.429 414.567 423.994C415.034 425.56 415.133 427.226 414.854 428.843" fill="black"/>
</g>
<g opacity="0.3">
<path opacity="0.3" d="M380.192 497.25C391.903 507.095 409.281 507.552 422.088 499.473C434.424 491.686 442.023 477.661 449.069 464.259C459.991 443.502 473.304 417.829 481.104 395.496C481.104 395.496 459.248 427.648 452.662 441.508C448.272 450.877 443.288 459.909 437.746 468.54C431.476 478.266 422.998 486.097 413.123 491.285C403.247 496.473 392.303 498.846 381.335 498.177" fill="black"/>
</g>
<path d="M356.699 521.894C356.68 521.764 356.68 521.631 356.699 521.501C356.699 521.196 356.699 520.815 356.699 520.345C356.699 519.265 356.781 517.804 356.852 515.937C357.017 512.126 357.241 506.663 357.523 500.146V500.299C355.414 492.677 352.94 483.429 350.372 473.444C346.979 460.207 344.116 448.164 342.183 439.412C341.229 435.042 340.475 431.485 340.004 429.02C339.78 427.839 339.603 426.886 339.473 426.188C339.404 425.857 339.353 425.522 339.32 425.184C339.439 425.496 339.53 425.819 339.591 426.149L340.239 428.97C340.817 431.51 341.618 434.991 342.596 439.297C344.634 448.025 347.568 460.042 350.961 473.266C353.518 483.251 355.956 492.499 358.03 500.134V500.223C357.665 506.739 357.358 512.164 357.135 516.026C357.017 517.868 356.922 519.341 356.852 520.421C356.852 520.878 356.781 521.259 356.758 521.564C356.751 521.676 356.731 521.787 356.699 521.894V521.894Z" fill="#263238"/>
<path d="M481.139 320.496C481.139 320.598 479.867 320.115 477.828 319.569C475.17 318.846 472.45 318.42 469.711 318.298C466.97 318.217 464.23 318.447 461.534 318.984C459.46 319.403 458.2 319.785 458.176 319.683C458.438 319.501 458.724 319.364 459.025 319.276C459.817 318.982 460.623 318.732 461.44 318.527C464.142 317.847 466.914 317.548 469.687 317.638C472.482 317.728 475.253 318.206 477.935 319.06C478.737 319.312 479.524 319.617 480.291 319.975C480.88 320.293 481.139 320.445 481.139 320.496Z" fill="#263238"/>
<path d="M441.752 297.046C441.667 297.277 441.56 297.498 441.434 297.706L440.433 299.523C439.549 301.098 438.241 303.334 436.58 306.116C433.246 311.616 428.474 319.124 422.83 327.102C418.294 333.542 413.9 339.322 410.306 343.845L410.047 344.162L409.894 343.781C408.174 339.741 406.76 336.388 405.735 333.961C405.275 332.844 404.91 331.929 404.616 331.23C404.471 330.918 404.356 330.59 404.274 330.252C404.463 330.539 404.625 330.845 404.757 331.167C405.075 331.853 405.476 332.742 405.994 333.834C407.066 336.235 408.551 339.551 410.33 343.565L409.929 343.502C413.464 338.928 417.811 333.136 422.347 326.708C427.979 318.73 432.786 311.286 436.215 305.849L440.232 299.383L441.328 297.63C441.445 297.416 441.587 297.219 441.752 297.046V297.046Z" fill="#263238"/>
<path d="M470.394 501.912C470.218 501.912 470.76 495.294 471.573 487.176C472.385 479.059 473.222 472.504 473.387 472.529C473.552 472.555 473.01 479.135 472.209 487.253C471.408 495.37 470.536 501.925 470.394 501.912Z" fill="#263238"/>
<path d="M385.117 500.172C385.786 503.831 386.254 507.53 386.519 511.249C386.996 514.941 387.259 518.662 387.308 522.39C386.646 518.729 386.178 515.031 385.906 511.313C385.443 507.619 385.18 503.899 385.117 500.172V500.172Z" fill="#263238"/>
<path d="M448.044 355.087C447.987 354.835 447.875 354.601 447.716 354.405C447.558 354.21 447.359 354.057 447.135 353.962C446.912 353.866 446.67 353.829 446.43 353.855C446.191 353.881 445.96 353.968 445.758 354.109L445.676 354.185C445.491 354.363 445.352 354.589 445.274 354.842C445.195 355.095 445.178 355.366 445.226 355.628C445.273 355.89 445.384 356.134 445.545 356.336C445.707 356.538 445.915 356.691 446.148 356.781C446.381 356.87 446.632 356.892 446.876 356.845C447.119 356.798 447.348 356.684 447.538 356.513C447.728 356.342 447.873 356.121 447.96 355.871C448.047 355.621 448.072 355.351 448.032 355.087H448.044Z" fill="white"/>
<path d="M435.755 322.795C435.698 322.543 435.586 322.309 435.428 322.114C435.27 321.918 435.071 321.766 434.847 321.67C434.623 321.574 434.381 321.538 434.142 321.563C433.902 321.589 433.672 321.676 433.47 321.817L433.399 321.893C433.214 322.071 433.076 322.297 432.997 322.55C432.918 322.803 432.901 323.074 432.949 323.336C432.997 323.598 433.107 323.842 433.268 324.044C433.43 324.246 433.638 324.4 433.871 324.489C434.104 324.578 434.355 324.6 434.599 324.553C434.843 324.506 435.071 324.392 435.261 324.221C435.451 324.05 435.597 323.829 435.683 323.579C435.77 323.329 435.795 323.059 435.755 322.795Z" fill="white"/>
<path d="M407.561 348.799C407.504 348.547 407.392 348.313 407.234 348.117C407.076 347.921 406.876 347.769 406.653 347.674C406.429 347.578 406.187 347.541 405.947 347.567C405.708 347.592 405.477 347.679 405.275 347.821H405.205C405.02 347.998 404.881 348.224 404.802 348.476C404.723 348.729 404.706 348.999 404.752 349.261C404.799 349.522 404.908 349.766 405.069 349.969C405.23 350.171 405.437 350.325 405.669 350.416C405.902 350.506 406.152 350.529 406.396 350.484C406.639 350.438 406.868 350.325 407.059 350.156C407.249 349.986 407.396 349.766 407.484 349.517C407.572 349.268 407.599 348.999 407.561 348.735V348.799Z" fill="white"/>
<path d="M377.082 335.74C377.026 335.488 376.915 335.254 376.758 335.058C376.601 334.862 376.403 334.71 376.18 334.614C375.957 334.518 375.716 334.482 375.477 334.507C375.238 334.533 375.009 334.62 374.808 334.762L374.725 334.838C374.54 335.016 374.402 335.242 374.323 335.495C374.244 335.748 374.228 336.019 374.275 336.281C374.323 336.543 374.433 336.787 374.595 336.989C374.756 337.191 374.964 337.344 375.197 337.434C375.431 337.523 375.681 337.545 375.925 337.498C376.169 337.451 376.397 337.337 376.587 337.166C376.777 336.995 376.923 336.773 377.009 336.523C377.096 336.273 377.121 336.003 377.082 335.74V335.74Z" fill="white"/>
<path d="M371.697 322.871C371.64 322.619 371.528 322.386 371.37 322.19C371.212 321.994 371.012 321.842 370.789 321.746C370.565 321.65 370.323 321.614 370.083 321.639C369.844 321.665 369.613 321.752 369.411 321.893L369.329 321.969C369.139 322.147 368.995 322.375 368.913 322.631C368.83 322.887 368.811 323.162 368.857 323.428C368.904 323.694 369.014 323.943 369.178 324.149C369.341 324.355 369.552 324.511 369.789 324.602C370.026 324.692 370.281 324.714 370.528 324.666C370.775 324.617 371.007 324.499 371.198 324.324C371.39 324.149 371.536 323.923 371.622 323.668C371.707 323.413 371.729 323.138 371.685 322.871H371.697Z" fill="white"/>
<path d="M374.042 308.009C373.985 307.756 373.873 307.523 373.715 307.327C373.557 307.131 373.357 306.979 373.134 306.883C372.91 306.787 372.668 306.751 372.428 306.776C372.189 306.802 371.958 306.889 371.757 307.03L371.674 307.094C371.489 307.271 371.35 307.497 371.271 307.749C371.192 308.002 371.175 308.272 371.222 308.534C371.268 308.795 371.378 309.04 371.538 309.242C371.699 309.445 371.906 309.598 372.139 309.689C372.371 309.779 372.621 309.803 372.865 309.757C373.109 309.711 373.337 309.598 373.528 309.429C373.719 309.259 373.865 309.039 373.953 308.79C374.041 308.541 374.068 308.272 374.03 308.009H374.042Z" fill="white"/>
<path d="M357.158 328.461C357.101 328.209 356.989 327.975 356.831 327.779C356.673 327.583 356.474 327.431 356.25 327.336C356.026 327.24 355.784 327.203 355.545 327.229C355.305 327.254 355.075 327.341 354.873 327.483L354.79 327.546C354.606 327.723 354.467 327.949 354.387 328.202C354.308 328.454 354.291 328.724 354.338 328.986C354.385 329.248 354.494 329.492 354.655 329.694C354.815 329.897 355.022 330.051 355.255 330.141C355.487 330.231 355.738 330.255 355.981 330.209C356.225 330.164 356.453 330.051 356.644 329.881C356.835 329.712 356.981 329.492 357.07 329.243C357.158 328.994 357.184 328.724 357.147 328.461H357.158Z" fill="white"/>
<path d="M396.31 334.355C396.254 334.103 396.143 333.87 395.986 333.674C395.829 333.478 395.631 333.325 395.408 333.229C395.185 333.134 394.944 333.097 394.705 333.123C394.466 333.148 394.237 333.236 394.036 333.377L393.953 333.453C393.768 333.631 393.63 333.857 393.551 334.11C393.472 334.363 393.456 334.634 393.503 334.896C393.551 335.158 393.661 335.402 393.823 335.604C393.984 335.806 394.192 335.96 394.425 336.049C394.659 336.138 394.909 336.16 395.153 336.113C395.397 336.066 395.625 335.952 395.815 335.781C396.005 335.61 396.151 335.389 396.237 335.139C396.324 334.889 396.349 334.619 396.31 334.355V334.355Z" fill="white"/>
<path d="M363.155 360.867C363.098 360.615 362.986 360.381 362.828 360.185C362.67 359.99 362.471 359.837 362.247 359.742C362.023 359.646 361.781 359.609 361.542 359.635C361.302 359.661 361.072 359.748 360.87 359.889H360.787C360.603 360.066 360.464 360.292 360.384 360.544C360.305 360.797 360.288 361.067 360.335 361.329C360.382 361.591 360.491 361.835 360.652 362.037C360.812 362.24 361.019 362.393 361.252 362.484C361.484 362.574 361.735 362.598 361.978 362.552C362.222 362.506 362.45 362.393 362.641 362.224C362.832 362.055 362.979 361.834 363.067 361.585C363.155 361.336 363.181 361.067 363.144 360.804L363.155 360.867Z" fill="white"/>
<path d="M332.852 437.112C332.795 436.86 332.683 436.627 332.525 436.431C332.367 436.235 332.167 436.083 331.944 435.987C331.72 435.891 331.478 435.855 331.238 435.88C330.999 435.906 330.768 435.993 330.567 436.134L330.496 436.198C330.311 436.375 330.172 436.601 330.093 436.853C330.014 437.106 329.997 437.376 330.043 437.638C330.09 437.899 330.199 438.143 330.36 438.346C330.521 438.548 330.728 438.702 330.96 438.793C331.193 438.883 331.443 438.906 331.687 438.861C331.93 438.815 332.159 438.702 332.35 438.533C332.54 438.363 332.687 438.143 332.775 437.894C332.863 437.645 332.89 437.376 332.852 437.112V437.112Z" fill="white"/>
<path d="M343.668 393.134C343.611 392.881 343.499 392.648 343.34 392.452C343.182 392.256 342.983 392.104 342.759 392.008C342.536 391.912 342.294 391.876 342.054 391.901C341.815 391.927 341.584 392.014 341.382 392.155L341.3 392.232C341.115 392.409 340.976 392.636 340.898 392.889C340.819 393.142 340.802 393.412 340.85 393.674C340.898 393.936 341.008 394.18 341.169 394.382C341.331 394.585 341.539 394.738 341.772 394.827C342.005 394.916 342.256 394.939 342.5 394.892C342.743 394.845 342.972 394.73 343.162 394.559C343.352 394.388 343.497 394.167 343.584 393.917C343.671 393.667 343.696 393.397 343.656 393.134H343.668Z" fill="white"/>
<path d="M423.408 315.923C423.351 315.671 423.238 315.437 423.08 315.241C422.922 315.045 422.723 314.893 422.499 314.797C422.276 314.702 422.034 314.665 421.794 314.691C421.555 314.716 421.324 314.803 421.122 314.945L421.04 315.008C420.855 315.185 420.716 315.411 420.637 315.663C420.558 315.916 420.541 316.186 420.587 316.448C420.634 316.71 420.743 316.954 420.904 317.156C421.065 317.359 421.272 317.513 421.504 317.603C421.737 317.693 421.987 317.717 422.231 317.671C422.474 317.626 422.703 317.513 422.894 317.343C423.084 317.174 423.231 316.954 423.319 316.705C423.407 316.456 423.434 316.186 423.396 315.923H423.408Z" fill="white"/>
<path d="M461.393 403.474C461.336 403.222 461.224 402.988 461.065 402.792C460.907 402.597 460.708 402.444 460.484 402.349C460.261 402.253 460.019 402.216 459.779 402.242C459.54 402.267 459.309 402.355 459.107 402.496L459.025 402.572C458.835 402.75 458.691 402.978 458.608 403.234C458.526 403.489 458.507 403.764 458.553 404.031C458.6 404.297 458.71 404.546 458.874 404.752C459.037 404.957 459.248 405.114 459.485 405.204C459.722 405.295 459.977 405.317 460.224 405.268C460.471 405.22 460.702 405.102 460.894 404.927C461.086 404.752 461.232 404.525 461.318 404.27C461.403 404.016 461.425 403.741 461.381 403.474H461.393Z" fill="white"/>
<path d="M476.203 328.131C476.147 327.879 476.036 327.645 475.88 327.449C475.723 327.253 475.524 327.101 475.301 327.005C475.078 326.909 474.837 326.872 474.598 326.898C474.36 326.924 474.13 327.011 473.929 327.152L473.846 327.216C473.662 327.393 473.523 327.619 473.444 327.871C473.364 328.124 473.347 328.394 473.394 328.656C473.441 328.918 473.55 329.162 473.711 329.364C473.871 329.567 474.078 329.72 474.311 329.811C474.543 329.901 474.794 329.925 475.037 329.879C475.281 329.833 475.509 329.72 475.7 329.551C475.891 329.382 476.038 329.162 476.126 328.912C476.214 328.663 476.24 328.394 476.203 328.131V328.131Z" fill="white"/>
<path d="M470.394 377.47C470.337 377.218 470.225 376.984 470.067 376.789C469.909 376.593 469.71 376.441 469.486 376.345C469.262 376.249 469.02 376.213 468.781 376.238C468.541 376.264 468.311 376.351 468.109 376.492L468.026 376.568C467.836 376.746 467.693 376.974 467.61 377.23C467.527 377.486 467.508 377.761 467.555 378.027C467.601 378.293 467.712 378.542 467.875 378.748C468.039 378.954 468.249 379.11 468.486 379.2C468.723 379.291 468.978 379.313 469.225 379.265C469.473 379.216 469.704 379.098 469.896 378.923C470.088 378.748 470.234 378.522 470.319 378.267C470.404 378.012 470.426 377.737 470.383 377.47H470.394Z" fill="white"/>
<path d="M437.157 413.103C437.1 412.851 436.988 412.617 436.83 412.421C436.672 412.226 436.472 412.074 436.249 411.978C436.025 411.882 435.783 411.845 435.544 411.871C435.304 411.897 435.074 411.984 434.872 412.125L434.789 412.201C434.604 412.379 434.466 412.605 434.387 412.858C434.308 413.111 434.292 413.382 434.339 413.644C434.387 413.906 434.497 414.15 434.659 414.352C434.82 414.554 435.028 414.707 435.261 414.797C435.494 414.886 435.745 414.908 435.989 414.861C436.233 414.814 436.461 414.7 436.651 414.529C436.841 414.358 436.987 414.137 437.073 413.887C437.16 413.637 437.185 413.367 437.145 413.103H437.157Z" fill="white"/>
<path d="M438.559 383.428C438.502 383.176 438.39 382.942 438.232 382.746C438.074 382.551 437.875 382.399 437.651 382.303C437.427 382.207 437.185 382.17 436.946 382.196C436.706 382.222 436.476 382.309 436.274 382.45L436.191 382.526C436.001 382.704 435.858 382.932 435.775 383.188C435.692 383.444 435.673 383.719 435.72 383.985C435.766 384.251 435.877 384.5 436.04 384.706C436.204 384.912 436.414 385.068 436.651 385.158C436.888 385.249 437.143 385.271 437.39 385.222C437.638 385.174 437.869 385.056 438.061 384.881C438.253 384.706 438.399 384.48 438.484 384.225C438.569 383.97 438.591 383.695 438.548 383.428H438.559Z" fill="white"/>
<path d="M458.601 328.385C458.545 328.133 458.434 327.899 458.277 327.703C458.12 327.507 457.922 327.355 457.699 327.259C457.476 327.163 457.235 327.126 456.996 327.152C456.757 327.178 456.528 327.265 456.327 327.406L456.244 327.483C456.059 327.66 455.921 327.887 455.842 328.14C455.763 328.393 455.747 328.664 455.794 328.926C455.842 329.187 455.952 329.431 456.114 329.634C456.275 329.836 456.483 329.989 456.716 330.078C456.95 330.168 457.2 330.19 457.444 330.143C457.688 330.096 457.916 329.981 458.106 329.81C458.296 329.64 458.442 329.418 458.528 329.168C458.615 328.918 458.64 328.648 458.601 328.385V328.385Z" fill="white"/>
<path d="M431.655 299.65C431.6 299.398 431.489 299.164 431.332 298.968C431.175 298.772 430.977 298.62 430.754 298.524C430.531 298.428 430.29 298.391 430.051 298.417C429.812 298.443 429.583 298.53 429.382 298.672L429.299 298.735C429.114 298.912 428.975 299.138 428.896 299.391C428.817 299.643 428.8 299.913 428.847 300.175C428.893 300.437 429.003 300.681 429.163 300.883C429.324 301.086 429.531 301.24 429.764 301.33C429.996 301.42 430.246 301.444 430.49 301.398C430.734 301.353 430.962 301.24 431.153 301.07C431.344 300.901 431.49 300.681 431.578 300.432C431.666 300.183 431.693 299.913 431.655 299.65V299.65Z" fill="white"/>
<path d="M430.63 345.979C430.575 345.725 430.464 345.489 430.307 345.292C430.149 345.094 429.949 344.941 429.725 344.845C429.5 344.749 429.257 344.713 429.017 344.74C428.776 344.767 428.546 344.856 428.344 345.001L428.274 345.064C428.089 345.241 427.95 345.467 427.871 345.72C427.791 345.972 427.774 346.242 427.821 346.504C427.868 346.766 427.977 347.01 428.138 347.212C428.299 347.415 428.506 347.569 428.738 347.659C428.971 347.749 429.221 347.773 429.465 347.727C429.708 347.682 429.937 347.569 430.127 347.399C430.318 347.23 430.465 347.01 430.553 346.761C430.641 346.512 430.668 346.242 430.63 345.979V345.979Z" fill="white"/>
<path d="M396.18 487.303C396.122 487.059 396.012 486.833 395.858 486.643C395.704 486.453 395.512 486.305 395.295 486.21C395.079 486.115 394.845 486.075 394.611 486.095C394.378 486.116 394.153 486.194 393.953 486.325L393.871 486.389C393.686 486.566 393.547 486.792 393.468 487.044C393.389 487.297 393.372 487.567 393.418 487.829C393.465 488.09 393.574 488.334 393.735 488.537C393.896 488.739 394.103 488.893 394.335 488.984C394.568 489.074 394.818 489.097 395.062 489.052C395.305 489.006 395.534 488.893 395.725 488.724C395.915 488.554 396.062 488.334 396.15 488.085C396.238 487.836 396.265 487.567 396.227 487.303H396.18Z" fill="white"/>
<path d="M356.651 464.056C356.594 463.804 356.482 463.57 356.324 463.374C356.166 463.179 355.967 463.027 355.743 462.931C355.519 462.835 355.277 462.798 355.038 462.824C354.798 462.85 354.568 462.937 354.366 463.078L354.283 463.154C354.099 463.332 353.96 463.558 353.881 463.811C353.802 464.064 353.786 464.335 353.833 464.597C353.881 464.859 353.991 465.103 354.153 465.305C354.314 465.507 354.522 465.661 354.755 465.75C354.989 465.839 355.239 465.861 355.483 465.814C355.727 465.767 355.955 465.653 356.145 465.482C356.335 465.311 356.481 465.09 356.568 464.84C356.654 464.59 356.679 464.32 356.64 464.056H356.651Z" fill="white"/>
<path d="M324.688 475.451C324.63 475.199 324.518 474.965 324.36 474.769C324.202 474.574 324.003 474.421 323.779 474.326C323.555 474.23 323.313 474.193 323.074 474.219C322.834 474.245 322.604 474.332 322.402 474.473L322.331 474.536C322.147 474.714 322.008 474.939 321.928 475.192C321.849 475.444 321.832 475.715 321.879 475.976C321.926 476.238 322.035 476.482 322.196 476.685C322.356 476.887 322.563 477.041 322.796 477.131C323.028 477.222 323.279 477.245 323.522 477.2C323.766 477.154 323.994 477.041 324.185 476.871C324.376 476.702 324.522 476.482 324.611 476.233C324.699 475.984 324.725 475.714 324.688 475.451Z" fill="white"/>
<path d="M321.271 495.078C321.214 494.826 321.101 494.592 320.943 494.396C320.785 494.2 320.586 494.048 320.362 493.952C320.138 493.857 319.897 493.82 319.657 493.846C319.417 493.871 319.187 493.958 318.985 494.1L318.903 494.163C318.718 494.34 318.579 494.566 318.5 494.818C318.42 495.071 318.403 495.341 318.45 495.603C318.497 495.865 318.606 496.109 318.767 496.311C318.928 496.514 319.134 496.668 319.367 496.758C319.6 496.848 319.85 496.872 320.094 496.826C320.337 496.781 320.565 496.668 320.756 496.498C320.947 496.329 321.094 496.109 321.182 495.86C321.27 495.611 321.297 495.341 321.259 495.078H321.271Z" fill="white"/>
<path d="M351.232 501.645C351.175 501.393 351.062 501.159 350.904 500.964C350.746 500.768 350.547 500.616 350.323 500.52C350.099 500.424 349.858 500.388 349.618 500.413C349.379 500.439 349.148 500.526 348.946 500.667L348.876 500.743C348.691 500.921 348.552 501.148 348.473 501.401C348.394 501.654 348.378 501.924 348.426 502.186C348.473 502.448 348.583 502.692 348.745 502.894C348.907 503.096 349.114 503.25 349.348 503.339C349.581 503.428 349.832 503.451 350.075 503.404C350.319 503.357 350.547 503.242 350.737 503.071C350.928 502.9 351.073 502.679 351.16 502.429C351.247 502.179 351.271 501.909 351.232 501.645Z" fill="white"/>
<path d="M341.218 457.692C341.161 457.44 341.048 457.206 340.89 457.01C340.732 456.814 340.533 456.662 340.309 456.566C340.085 456.471 339.844 456.434 339.604 456.46C339.364 456.485 339.134 456.572 338.932 456.714L338.85 456.79C338.659 456.967 338.516 457.195 338.433 457.451C338.35 457.707 338.331 457.982 338.378 458.249C338.424 458.515 338.535 458.763 338.698 458.969C338.862 459.175 339.073 459.331 339.31 459.422C339.546 459.513 339.801 459.535 340.049 459.486C340.296 459.437 340.527 459.32 340.719 459.145C340.911 458.97 341.057 458.743 341.142 458.488C341.228 458.233 341.25 457.959 341.206 457.692H341.218Z" fill="white"/>
<path d="M377.977 468.871C377.922 468.617 377.811 468.381 377.654 468.184C377.496 467.986 377.296 467.833 377.072 467.737C376.847 467.641 376.604 467.605 376.364 467.632C376.123 467.659 375.893 467.748 375.691 467.893L375.621 467.956C375.436 468.133 375.297 468.359 375.218 468.612C375.139 468.864 375.122 469.134 375.168 469.396C375.215 469.658 375.324 469.902 375.485 470.104C375.646 470.307 375.853 470.461 376.085 470.551C376.318 470.641 376.568 470.665 376.812 470.619C377.055 470.574 377.284 470.461 377.475 470.291C377.665 470.122 377.812 469.902 377.9 469.653C377.988 469.404 378.015 469.134 377.977 468.871V468.871Z" fill="white"/>
<path d="M465.363 457.628C465.31 457.375 465.201 457.139 465.044 456.941C464.888 456.744 464.689 456.59 464.465 456.494C464.241 456.397 463.999 456.361 463.76 456.389C463.52 456.416 463.29 456.506 463.09 456.65L463.007 456.714C462.822 456.891 462.683 457.117 462.604 457.369C462.525 457.622 462.508 457.892 462.555 458.154C462.601 458.415 462.711 458.659 462.871 458.862C463.032 459.064 463.239 459.218 463.472 459.308C463.704 459.399 463.954 459.422 464.198 459.377C464.442 459.331 464.67 459.218 464.861 459.049C465.052 458.879 465.198 458.659 465.286 458.41C465.375 458.161 465.401 457.892 465.363 457.628V457.628Z" fill="white"/>
<path d="M411.296 513.485C411.239 513.233 411.127 512.999 410.969 512.803C410.811 512.607 410.612 512.455 410.388 512.359C410.164 512.264 409.922 512.227 409.683 512.253C409.443 512.278 409.213 512.365 409.011 512.507L408.928 512.583C408.744 512.761 408.605 512.987 408.526 513.24C408.447 513.493 408.431 513.764 408.478 514.026C408.526 514.288 408.636 514.532 408.798 514.734C408.959 514.936 409.167 515.089 409.4 515.178C409.634 515.268 409.884 515.29 410.128 515.243C410.372 515.196 410.6 515.081 410.79 514.911C410.98 514.74 411.126 514.518 411.213 514.268C411.299 514.018 411.324 513.748 411.285 513.485H411.296Z" fill="white"/>
<path d="M434.353 482.387C434.298 482.135 434.187 481.901 434.03 481.706C433.873 481.51 433.675 481.357 433.452 481.261C433.229 481.165 432.988 481.129 432.749 481.154C432.51 481.18 432.281 481.267 432.08 481.409L431.997 481.485C431.812 481.663 431.674 481.889 431.595 482.142C431.516 482.395 431.5 482.666 431.547 482.928C431.595 483.19 431.705 483.434 431.867 483.636C432.028 483.838 432.236 483.991 432.469 484.081C432.702 484.17 432.953 484.192 433.197 484.145C433.441 484.098 433.669 483.984 433.859 483.813C434.049 483.642 434.195 483.421 434.281 483.171C434.368 482.921 434.393 482.651 434.353 482.387V482.387Z" fill="white"/>
<path d="M448.056 507.679C448.003 507.427 447.895 507.191 447.741 506.992C447.587 506.794 447.391 506.638 447.17 506.537C446.949 506.436 446.708 506.394 446.469 506.414C446.23 506.434 445.998 506.515 445.793 506.65L445.723 506.727C445.538 506.904 445.399 507.131 445.32 507.384C445.242 507.637 445.225 507.908 445.273 508.169C445.32 508.431 445.43 508.675 445.592 508.878C445.754 509.08 445.961 509.233 446.195 509.322C446.428 509.411 446.679 509.434 446.923 509.387C447.166 509.34 447.394 509.225 447.585 509.054C447.775 508.883 447.92 508.662 448.007 508.412C448.094 508.162 448.119 507.892 448.079 507.629L448.056 507.679Z" fill="white"/>
<path d="M409.941 375.235C409.884 374.982 409.772 374.749 409.614 374.553C409.456 374.357 409.257 374.205 409.033 374.109C408.809 374.013 408.567 373.977 408.328 374.002C408.088 374.028 407.858 374.115 407.656 374.256L407.573 374.333C407.389 374.51 407.25 374.737 407.171 374.99C407.092 375.243 407.076 375.514 407.123 375.775C407.171 376.037 407.281 376.281 407.443 376.483C407.604 376.686 407.812 376.839 408.045 376.928C408.279 377.017 408.529 377.04 408.773 376.993C409.017 376.946 409.245 376.831 409.435 376.66C409.625 376.489 409.771 376.268 409.858 376.018C409.944 375.768 409.969 375.498 409.93 375.235H409.941Z" fill="white"/>
<path d="M440.963 439.806C440.906 439.553 440.794 439.32 440.636 439.124C440.478 438.928 440.278 438.776 440.054 438.68C439.831 438.584 439.589 438.548 439.349 438.573C439.11 438.599 438.879 438.686 438.677 438.827L438.595 438.891C438.41 439.068 438.271 439.294 438.192 439.546C438.113 439.799 438.096 440.069 438.143 440.331C438.189 440.593 438.299 440.837 438.459 441.039C438.62 441.242 438.827 441.395 439.059 441.486C439.292 441.576 439.542 441.6 439.786 441.554C440.03 441.508 440.258 441.395 440.449 441.226C440.64 441.056 440.786 440.836 440.874 440.587C440.962 440.338 440.989 440.069 440.951 439.806H440.963Z" fill="white"/>
<path d="M430.901 464.259C430.844 464.007 430.732 463.774 430.574 463.578C430.415 463.382 430.216 463.23 429.992 463.134C429.769 463.038 429.527 463.002 429.287 463.027C429.048 463.053 428.817 463.14 428.615 463.281L428.533 463.345C428.348 463.522 428.209 463.748 428.13 464C428.051 464.253 428.034 464.523 428.081 464.785C428.127 465.046 428.237 465.29 428.397 465.493C428.558 465.695 428.765 465.849 428.997 465.94C429.23 466.03 429.48 466.053 429.724 466.008C429.967 465.962 430.196 465.849 430.387 465.68C430.577 465.51 430.724 465.29 430.812 465.041C430.9 464.792 430.927 464.523 430.889 464.259H430.901Z" fill="white"/>
<path d="M463.973 483.899C463.916 483.647 463.803 483.413 463.645 483.217C463.487 483.021 463.288 482.869 463.064 482.773C462.84 482.678 462.599 482.641 462.359 482.667C462.119 482.692 461.889 482.779 461.687 482.921L461.605 482.997C461.42 483.175 461.281 483.401 461.202 483.654C461.123 483.907 461.107 484.178 461.155 484.44C461.202 484.702 461.312 484.946 461.474 485.148C461.636 485.35 461.843 485.503 462.077 485.592C462.31 485.682 462.561 485.704 462.804 485.657C463.048 485.61 463.276 485.496 463.466 485.325C463.657 485.154 463.802 484.932 463.889 484.682C463.976 484.432 464 484.162 463.961 483.899H463.973Z" fill="white"/>
<path d="M373.476 512.265C373.422 512.011 373.311 511.776 373.153 511.578C372.995 511.381 372.796 511.227 372.571 511.131C372.346 511.035 372.103 510.999 371.863 511.026C371.623 511.053 371.392 511.143 371.191 511.287L371.108 511.351C370.923 511.528 370.785 511.754 370.705 512.006C370.626 512.258 370.609 512.529 370.656 512.791C370.703 513.052 370.812 513.296 370.972 513.499C371.133 513.701 371.34 513.855 371.573 513.945C371.805 514.036 372.056 514.059 372.299 514.014C372.543 513.968 372.771 513.855 372.962 513.686C373.153 513.516 373.299 513.296 373.387 513.047C373.476 512.798 373.502 512.529 373.464 512.265H373.476Z" fill="white"/>
<path d="M298.072 504.834C298.015 504.582 297.903 504.348 297.745 504.152C297.587 503.956 297.387 503.804 297.164 503.709C296.94 503.613 296.698 503.576 296.458 503.602C296.219 503.627 295.988 503.714 295.786 503.856L295.704 503.932C295.514 504.109 295.37 504.337 295.288 504.593C295.205 504.849 295.186 505.124 295.232 505.391C295.279 505.657 295.389 505.905 295.553 506.111C295.716 506.317 295.927 506.473 296.164 506.564C296.401 506.655 296.656 506.677 296.903 506.628C297.15 506.579 297.382 506.462 297.573 506.287C297.765 506.112 297.911 505.885 297.997 505.63C298.082 505.375 298.104 505.101 298.06 504.834H298.072Z" fill="white"/>
<path d="M364.498 491.483C364.441 491.23 364.329 490.997 364.171 490.801C364.013 490.605 363.814 490.453 363.59 490.357C363.366 490.262 363.124 490.225 362.885 490.251C362.645 490.276 362.415 490.363 362.213 490.504L362.13 490.581C361.94 490.758 361.797 490.986 361.714 491.242C361.631 491.498 361.612 491.773 361.659 492.039C361.705 492.306 361.816 492.554 361.979 492.76C362.143 492.966 362.353 493.122 362.59 493.213C362.827 493.304 363.082 493.326 363.329 493.277C363.577 493.228 363.808 493.111 364 492.935C364.192 492.76 364.338 492.534 364.423 492.279C364.508 492.024 364.53 491.75 364.487 491.483H364.498Z" fill="white"/>
<path d="M300.876 476.963C300.821 476.709 300.71 476.473 300.553 476.276C300.395 476.078 300.195 475.925 299.971 475.829C299.746 475.733 299.503 475.697 299.263 475.724C299.022 475.751 298.792 475.84 298.59 475.985L298.52 476.048C298.335 476.225 298.196 476.451 298.117 476.704C298.038 476.956 298.02 477.226 298.067 477.488C298.114 477.75 298.223 477.994 298.384 478.196C298.545 478.399 298.752 478.553 298.984 478.643C299.217 478.733 299.467 478.757 299.711 478.711C299.954 478.666 300.183 478.553 300.373 478.383C300.564 478.214 300.711 477.994 300.799 477.745C300.887 477.496 300.914 477.226 300.876 476.963V476.963Z" fill="white"/>
<path d="M407.149 430.85C407.092 430.598 406.98 430.364 406.822 430.168C406.663 429.972 406.464 429.82 406.24 429.724C406.017 429.629 405.775 429.592 405.535 429.618C405.296 429.643 405.065 429.73 404.863 429.872L404.781 429.935C404.596 430.112 404.457 430.338 404.378 430.59C404.299 430.843 404.282 431.113 404.329 431.375C404.375 431.637 404.485 431.881 404.645 432.083C404.806 432.286 405.013 432.44 405.245 432.53C405.478 432.62 405.728 432.644 405.972 432.598C406.216 432.553 406.444 432.44 406.635 432.27C406.826 432.101 406.972 431.881 407.06 431.632C407.148 431.383 407.175 431.113 407.137 430.85H407.149Z" fill="white"/>
<path d="M384.905 360.867C384.848 360.615 384.736 360.381 384.577 360.185C384.419 359.99 384.22 359.837 383.996 359.742C383.773 359.646 383.531 359.609 383.291 359.635C383.052 359.661 382.821 359.748 382.619 359.889H382.537C382.352 360.066 382.213 360.292 382.134 360.544C382.055 360.797 382.038 361.067 382.084 361.329C382.131 361.591 382.24 361.835 382.401 362.037C382.562 362.24 382.769 362.393 383.001 362.484C383.234 362.574 383.484 362.598 383.728 362.552C383.971 362.506 384.2 362.393 384.391 362.224C384.581 362.055 384.728 361.834 384.816 361.585C384.904 361.336 384.931 361.067 384.893 360.804L384.905 360.867Z" fill="white"/>
<path d="M379.344 421.538C379.287 421.286 379.174 421.052 379.016 420.856C378.858 420.661 378.659 420.509 378.435 420.413C378.211 420.317 377.97 420.28 377.73 420.306C377.49 420.332 377.26 420.419 377.058 420.56L376.987 420.636C376.803 420.814 376.664 421.04 376.585 421.293C376.506 421.546 376.49 421.817 376.537 422.079C376.585 422.341 376.695 422.585 376.857 422.787C377.018 422.989 377.226 423.142 377.459 423.232C377.693 423.321 377.944 423.343 378.187 423.296C378.431 423.249 378.659 423.135 378.849 422.964C379.039 422.793 379.185 422.572 379.272 422.322C379.358 422.072 379.383 421.802 379.344 421.538V421.538Z" fill="white"/>
<path d="M370.295 401.759C370.238 401.507 370.126 401.273 369.968 401.077C369.809 400.882 369.61 400.729 369.386 400.634C369.163 400.538 368.921 400.501 368.681 400.527C368.442 400.553 368.211 400.64 368.009 400.781H367.939C367.754 400.958 367.615 401.184 367.536 401.436C367.457 401.689 367.439 401.959 367.486 402.221C367.533 402.483 367.642 402.727 367.803 402.929C367.964 403.132 368.171 403.285 368.403 403.376C368.636 403.466 368.886 403.49 369.13 403.444C369.373 403.398 369.602 403.285 369.792 403.116C369.983 402.947 370.13 402.726 370.218 402.477C370.306 402.228 370.333 401.959 370.295 401.696V401.759Z" fill="white"/>
<path d="M410.318 463.98C410.261 463.728 410.149 463.494 409.991 463.298C409.833 463.103 409.633 462.95 409.41 462.855C409.186 462.759 408.944 462.722 408.705 462.748C408.465 462.773 408.235 462.861 408.033 463.002L407.95 463.078C407.76 463.255 407.616 463.484 407.534 463.739C407.451 463.995 407.432 464.27 407.478 464.537C407.525 464.803 407.636 465.052 407.799 465.257C407.963 465.463 408.173 465.619 408.41 465.71C408.647 465.801 408.902 465.823 409.149 465.774C409.396 465.726 409.628 465.608 409.819 465.433C410.011 465.258 410.157 465.031 410.243 464.776C410.328 464.522 410.35 464.247 410.306 463.98H410.318Z" fill="white"/>
<path d="M382.101 451.772C382.05 451.515 381.943 451.275 381.787 451.073C381.631 450.871 381.432 450.713 381.207 450.613C380.982 450.513 380.737 450.473 380.494 450.498C380.252 450.523 380.019 450.612 379.815 450.756L379.732 450.832C379.548 451.01 379.409 451.236 379.33 451.489C379.251 451.742 379.235 452.013 379.283 452.275C379.33 452.537 379.44 452.781 379.602 452.983C379.764 453.185 379.971 453.338 380.205 453.428C380.438 453.517 380.689 453.539 380.932 453.492C381.176 453.445 381.404 453.331 381.594 453.16C381.784 452.989 381.93 452.767 382.017 452.517C382.103 452.267 382.128 451.997 382.089 451.734L382.101 451.772Z" fill="white"/>
<path d="M394.177 384.762C394.121 384.51 394.011 384.276 393.854 384.08C393.697 383.885 393.499 383.732 393.276 383.636C393.053 383.54 392.811 383.504 392.573 383.529C392.334 383.555 392.104 383.642 391.903 383.784L391.821 383.847C391.636 384.024 391.497 384.25 391.418 384.503C391.338 384.755 391.321 385.026 391.368 385.287C391.415 385.549 391.524 385.793 391.685 385.996C391.846 386.198 392.052 386.352 392.285 386.442C392.518 386.533 392.768 386.556 393.011 386.51C393.255 386.465 393.483 386.352 393.674 386.182C393.865 386.013 394.012 385.793 394.1 385.544C394.188 385.295 394.215 385.025 394.177 384.762V384.762Z" fill="white"/>
<path d="M351.232 432.209C351.175 431.957 351.062 431.723 350.904 431.527C350.746 431.331 350.547 431.179 350.323 431.084C350.099 430.988 349.858 430.951 349.618 430.977C349.379 431.002 349.148 431.09 348.946 431.231L348.876 431.307C348.691 431.485 348.552 431.711 348.473 431.964C348.394 432.217 348.378 432.488 348.426 432.75C348.473 433.012 348.583 433.256 348.745 433.458C348.907 433.66 349.114 433.813 349.348 433.903C349.581 433.992 349.832 434.014 350.075 433.967C350.319 433.92 350.547 433.806 350.737 433.635C350.928 433.464 351.073 433.242 351.16 432.992C351.247 432.742 351.271 432.472 351.232 432.209Z" fill="white"/>
<path d="M417.517 410.435C417.46 410.183 417.348 409.95 417.19 409.754C417.032 409.558 416.832 409.406 416.609 409.31C416.385 409.214 416.143 409.178 415.904 409.203C415.664 409.229 415.434 409.316 415.232 409.457L415.149 409.521C414.964 409.698 414.826 409.924 414.746 410.176C414.667 410.429 414.65 410.699 414.697 410.961C414.744 411.222 414.853 411.466 415.013 411.669C415.174 411.871 415.381 412.025 415.614 412.116C415.846 412.206 416.097 412.229 416.34 412.184C416.584 412.138 416.812 412.025 417.003 411.856C417.194 411.686 417.34 411.466 417.428 411.217C417.517 410.968 417.543 410.699 417.506 410.435H417.517Z" fill="white"/>
<path d="M479.007 353.575C478.95 353.323 478.837 353.089 478.679 352.894C478.521 352.698 478.322 352.546 478.098 352.45C477.874 352.354 477.633 352.318 477.393 352.343C477.154 352.369 476.923 352.456 476.721 352.597L476.639 352.673C476.454 352.851 476.315 353.078 476.236 353.331C476.158 353.584 476.141 353.854 476.189 354.116C476.236 354.378 476.346 354.622 476.508 354.824C476.67 355.026 476.878 355.18 477.111 355.269C477.344 355.358 477.595 355.381 477.839 355.334C478.082 355.287 478.31 355.172 478.501 355.001C478.691 354.83 478.836 354.609 478.923 354.359C479.01 354.109 479.035 353.839 478.995 353.575H479.007Z" fill="white"/>
<path d="M454.041 310.524C453.984 310.272 453.872 310.038 453.714 309.842C453.555 309.646 453.356 309.494 453.132 309.398C452.909 309.303 452.667 309.266 452.427 309.292C452.188 309.317 451.957 309.404 451.755 309.546L451.673 309.622C451.488 309.8 451.35 310.026 451.271 310.279C451.192 310.532 451.175 310.803 451.223 311.065C451.271 311.327 451.381 311.571 451.542 311.773C451.704 311.975 451.912 312.128 452.145 312.217C452.378 312.307 452.629 312.329 452.873 312.282C453.116 312.235 453.345 312.12 453.535 311.95C453.725 311.779 453.87 311.557 453.957 311.307C454.044 311.057 454.069 310.787 454.029 310.524H454.041Z" fill="white"/>
<path d="M405.664 315.923C405.607 315.671 405.495 315.437 405.337 315.241C405.179 315.045 404.979 314.893 404.756 314.797C404.532 314.702 404.29 314.665 404.051 314.691C403.811 314.716 403.581 314.803 403.379 314.945L403.296 315.008C403.111 315.185 402.973 315.411 402.893 315.663C402.814 315.916 402.797 316.186 402.844 316.448C402.891 316.71 403 316.954 403.16 317.156C403.321 317.359 403.528 317.513 403.761 317.603C403.993 317.693 404.244 317.717 404.487 317.671C404.731 317.626 404.959 317.513 405.15 317.343C405.341 317.174 405.487 316.954 405.575 316.705C405.664 316.456 405.69 316.186 405.652 315.923H405.664Z" fill="white"/>
<path d="M356.31 161.387C347.037 167.738 343.35 181.09 345.093 188.978C345.989 192.954 347.662 196.956 346.931 200.958C346.307 204.426 343.986 207.208 342.219 210.206C339.307 215.252 337.969 221.171 338.401 227.096C338.833 233.022 341.012 238.642 344.62 243.136C348.227 247.631 353.073 250.762 358.45 252.074C363.826 253.385 369.451 252.807 374.501 250.424" fill="#263238"/>
<path d="M350.82 213.458C328.246 159.926 381.948 133.033 411.237 141.951C438.772 150.335 450.518 165.109 455.054 184.964C459.59 204.819 459.366 226.352 452.144 245.267C448.61 254.591 442.177 264.068 432.881 265.236" fill="#263238"/>
<path d="M377.27 344.188C376.881 318.603 376.598 283.478 376.598 283.618C376.598 283.758 356.251 279.972 351.974 251.314C349.877 237.048 350.549 213.661 351.656 194.542C352.669 177.329 363.238 156.216 379.143 158.033L428.804 171.562C431.135 171.826 433.29 173.025 434.839 174.922C436.389 176.819 437.22 179.274 437.169 181.801L433.941 292.536" fill="#FFBE9D"/>
<path d="M360.54 212.035C360.521 212.987 360.847 213.909 361.451 214.605C362.054 215.301 362.886 215.714 363.768 215.757C364.199 215.8 364.634 215.75 365.047 215.609C365.46 215.468 365.843 215.239 366.173 214.936C366.502 214.633 366.772 214.262 366.966 213.844C367.16 213.426 367.275 212.971 367.303 212.505C367.319 211.552 366.992 210.63 366.389 209.933C365.787 209.237 364.957 208.819 364.074 208.77C363.642 208.728 363.207 208.78 362.794 208.923C362.381 209.065 361.999 209.295 361.669 209.6C361.34 209.904 361.07 210.276 360.876 210.694C360.682 211.112 360.568 211.568 360.54 212.035V212.035Z" fill="#263238"/>
<path d="M395.791 212.035C395.775 212.985 396.103 213.904 396.706 214.597C397.309 215.29 398.139 215.701 399.019 215.744C399.451 215.788 399.886 215.737 400.299 215.596C400.712 215.455 401.094 215.227 401.424 214.923C401.753 214.62 402.023 214.249 402.217 213.831C402.411 213.414 402.526 212.958 402.554 212.492C402.573 211.54 402.246 210.618 401.643 209.922C401.04 209.227 400.208 208.813 399.326 208.77C398.893 208.727 398.457 208.777 398.044 208.919C397.63 209.061 397.247 209.291 396.917 209.595C396.587 209.9 396.318 210.273 396.124 210.692C395.931 211.111 395.818 211.568 395.791 212.035V212.035Z" fill="#263238"/>
<path d="M356.864 205.353C357.276 205.848 359.927 203.879 363.591 204.083C367.256 204.286 369.883 206.293 370.307 205.823C370.507 205.62 370.095 204.743 368.952 203.778C367.404 202.53 365.535 201.833 363.603 201.783C361.694 201.711 359.813 202.294 358.231 203.447C357.076 204.311 356.664 205.124 356.864 205.353Z" fill="#263238"/>
<path d="M391.715 206.293C392.139 206.776 394.719 204.692 398.383 204.692C402.047 204.692 404.757 206.649 405.146 206.166C405.346 205.95 404.91 205.086 403.732 204.172C402.141 202.986 400.246 202.364 398.312 202.393C396.404 202.393 394.546 203.052 393.011 204.273C391.879 205.213 391.502 206.077 391.715 206.293Z" fill="#263238"/>
<path d="M379.131 236.781C379.131 236.552 376.869 236.133 373.17 235.612C372.227 235.511 371.344 235.307 371.19 234.621C371.107 233.577 371.325 232.529 371.815 231.623C372.687 229.184 373.617 226.618 374.584 223.925C378.436 212.975 381.217 203.956 380.804 203.79C380.392 203.625 376.94 212.378 373.099 223.341L370.436 231.09C369.846 232.308 369.675 233.712 369.953 235.053C370.09 235.409 370.3 235.726 370.568 235.982C370.835 236.237 371.153 236.423 371.497 236.527C372.014 236.684 372.549 236.765 373.087 236.768C376.81 236.984 379.12 236.997 379.131 236.781Z" fill="#263238"/>
<path d="M376.599 283.618C389.125 283.825 401.458 280.28 412.227 273.379C412.227 273.379 403.226 293.323 376.599 290.643V283.618Z" fill="#EB996E"/>
<path d="M390.807 200.665C391.161 201.745 394.837 201.224 399.137 201.796C403.438 202.368 406.925 203.613 407.502 202.647C407.762 202.19 407.149 201.174 405.747 200.106C403.871 198.83 401.751 198.031 399.546 197.769C397.342 197.507 395.111 197.79 393.022 198.595C391.444 199.306 390.642 200.157 390.807 200.665Z" fill="#263238"/>
<path d="M357.712 195.419C358.36 196.321 360.893 195.419 363.933 195.343C366.973 195.266 369.553 195.952 370.142 195.012C370.401 194.555 370.001 193.653 368.869 192.802C367.368 191.756 365.601 191.241 363.815 191.328C362.029 191.366 360.297 191.996 358.855 193.132C357.783 194.034 357.429 194.962 357.712 195.419Z" fill="#263238"/>
<path d="M432.61 219.555C432.998 219.352 446.854 212.746 447.019 229.921C447.184 247.096 431.149 243.73 431.113 243.234C431.078 242.739 432.61 219.555 432.61 219.555Z" fill="#FFBE9D"/>
<path d="M435.92 236.654C435.991 236.654 436.203 236.857 436.674 237.086C437.34 237.372 438.082 237.372 438.748 237.086C440.421 236.4 441.811 233.504 441.858 230.404C441.894 228.933 441.616 227.473 441.045 226.136C440.893 225.6 440.621 225.112 440.253 224.716C439.886 224.319 439.433 224.026 438.936 223.862C438.617 223.773 438.279 223.809 437.982 223.962C437.685 224.115 437.447 224.377 437.31 224.7C437.098 225.183 437.204 225.526 437.122 225.551C437.04 225.577 436.769 225.272 436.898 224.56C436.981 224.135 437.198 223.754 437.511 223.481C437.726 223.3 437.972 223.166 438.234 223.087C438.497 223.009 438.772 222.987 439.042 223.023C439.697 223.156 440.31 223.467 440.821 223.928C441.333 224.388 441.726 224.982 441.964 225.653C442.658 227.132 443.006 228.772 442.978 230.429C442.907 233.885 441.293 237.149 438.995 237.886C438.569 238.025 438.119 238.059 437.679 237.987C437.239 237.914 436.819 237.737 436.45 237.467C435.956 237.073 435.873 236.679 435.92 236.654Z" fill="#EB996E"/>
<path d="M373.842 149.535C364.982 154.476 361.329 174.014 364.993 184.024C368.658 194.034 378.543 198.912 388.286 201.212C398.03 203.511 407.585 203.752 417.199 200.907C417.859 207.868 421.735 215.02 428.003 216.862C436.309 219.288 444.674 211.095 446.524 202.037C448.374 192.98 445.593 183.656 442.86 174.852" fill="#263238"/>
<path d="M444.121 211.844C444.121 211.844 443.72 212.352 442.883 213.115C441.714 214.182 440.491 215.178 439.219 216.1C437.319 217.514 435.229 218.606 433.022 219.339C430.266 220.276 427.303 220.227 424.574 219.2C421.888 218.033 419.638 215.937 418.177 213.242C416.993 211.089 416.213 208.706 415.879 206.229C415.647 204.582 415.564 202.914 415.632 201.25C415.606 200.641 415.674 200.031 415.832 199.446C416.009 199.446 415.832 202.05 416.516 206.102C416.92 208.457 417.718 210.713 418.872 212.759C420.271 215.242 422.374 217.175 424.869 218.272C427.422 219.223 430.187 219.285 432.775 218.45C434.914 217.783 436.957 216.795 438.842 215.516C442.118 213.305 444.026 211.705 444.121 211.844Z" fill="#263238"/>
<path d="M380.215 247.807C380.684 249.297 381.351 250.704 382.195 251.987C382.619 252.629 383.165 253.167 383.797 253.563C384.429 253.96 385.132 254.206 385.859 254.286C386.636 254.28 387.4 254.068 388.083 253.666C388.765 253.265 389.345 252.688 389.771 251.987C390.592 250.549 390.971 248.869 390.854 247.185C390.796 245.673 390.148 243.869 388.757 243.692C388.173 243.669 387.593 243.809 387.072 244.098L379.744 247.299" fill="#EB996E"/>
<path d="M383.137 254.299C383.137 254.058 384.787 254.756 387.049 253.778C388.332 253.244 389.385 252.217 390.006 250.894C390.357 250.088 390.547 249.211 390.564 248.32C390.58 247.429 390.422 246.545 390.101 245.724C389.931 245.305 389.718 244.909 389.464 244.543C389.17 244.212 389.217 244.225 388.911 244.276C388.604 244.327 388.121 244.606 387.732 244.771L386.554 245.305C384.987 245.991 383.562 246.575 382.372 247.071C380.015 248.036 378.448 248.544 378.378 248.341C378.307 248.138 379.697 247.325 382.006 246.131C383.185 245.534 384.54 244.86 386.083 244.085L387.261 243.514C387.697 243.323 388.015 243.12 388.604 242.917C388.956 242.791 389.336 242.791 389.688 242.917C390.01 243.065 390.29 243.301 390.501 243.603C391.288 244.705 391.763 246.028 391.869 247.413C391.976 248.799 391.709 250.189 391.102 251.415C390.711 252.194 390.181 252.881 389.541 253.437C388.902 253.993 388.167 254.407 387.379 254.655C386.355 255.017 385.258 255.066 384.21 254.794C383.456 254.655 383.114 254.388 383.137 254.299Z" fill="#263238"/>
<path d="M450.506 207.779C448.88 207.652 435.72 209.494 436.757 235.854C437.723 260.485 453.746 255.061 458.86 245.788C463.667 237.01 466.471 208.986 450.506 207.779Z" fill="#455A64"/>
<path d="M458.601 210.892C458.564 210.665 458.544 210.436 458.542 210.206C458.542 209.685 458.542 209.024 458.471 208.186C458.471 206.369 458.353 203.829 458.271 200.678C458.153 194.212 457.988 185.205 457.788 174.827L458.082 175.132H451.308L451.614 174.801C451.614 176.758 451.708 178.828 451.767 180.937C451.991 190.82 452.203 199.992 452.38 207.754V207.983H452.18C449.398 208.674 446.927 210.39 445.193 212.835C443.879 214.731 442.93 216.89 442.401 219.187C442.047 220.666 441.807 222.175 441.682 223.697C441.682 224.217 441.623 224.624 441.611 224.891C441.599 225.157 441.611 225.31 441.611 225.31C441.596 225.171 441.596 225.03 441.611 224.891C441.611 224.624 441.611 224.217 441.611 223.684C441.669 222.142 441.866 220.611 442.2 219.111C442.692 216.747 443.626 214.516 444.945 212.556C446.724 210.01 449.269 208.214 452.144 207.474L451.944 207.754C451.744 200.043 451.496 190.833 451.237 180.937C451.178 178.841 451.131 176.77 451.084 174.801V174.458H458.471V174.776C458.577 185.167 458.671 194.161 458.742 200.64C458.742 203.79 458.742 206.331 458.742 208.148C458.742 208.986 458.742 209.647 458.742 210.155C458.727 210.406 458.679 210.654 458.601 210.892V210.892Z" fill="#455A64"/>
<path d="M450.506 174.814C450.506 174.814 443.626 157.461 427.237 148.887C420.969 145.521 414.385 142.889 407.597 141.036C407.597 141.036 417.164 138.597 432.633 146.016C439.702 149.395 446.771 153.777 451.484 160.37C454.453 164.55 458.176 172.718 458.165 174.814H450.506Z" fill="#455A64"/>
<path d="M408.092 385.016C408.092 385.016 408.186 384.889 408.386 384.673C408.587 384.457 408.893 384.127 409.27 383.682C410.4 382.393 411.463 381.036 412.451 379.617C414.024 377.347 415.46 374.971 416.751 372.503C418.283 369.62 419.885 366.215 421.617 362.417C425.093 354.795 429.111 345.623 433.281 335.079C435.355 329.807 437.476 324.205 439.597 318.298L441.175 313.827C441.673 312.262 442.308 310.752 443.072 309.317C443.888 307.829 445.071 306.616 446.489 305.811C447.211 305.383 448.022 305.16 448.845 305.163C449.295 305.196 449.727 305.363 450.094 305.646C450.442 305.95 450.713 306.343 450.884 306.789V306.878V306.98C450.783 307.584 450.567 308.16 450.247 308.669C449.892 309.199 449.367 309.57 448.775 309.711C447.643 309.88 446.491 309.653 445.488 309.063C444.434 308.533 443.576 307.639 443.049 306.523C442.521 305.406 442.355 304.132 442.577 302.902C442.818 301.638 443.507 300.525 444.498 299.802C445.476 299.067 446.653 298.705 447.844 298.773C448.46 298.778 449.066 298.949 449.605 299.27C450.144 299.592 450.6 300.054 450.931 300.615C451.097 300.936 451.175 301.302 451.154 301.669C451.133 302.036 451.015 302.389 450.813 302.686C450.424 303.217 449.906 303.622 449.317 303.855C448.329 304.259 447.246 304.31 446.229 303.999C445.213 303.687 444.316 303.031 443.673 302.127C443.047 301.205 442.773 300.059 442.907 298.926C443.01 297.821 443.421 296.776 444.085 295.928C444.761 295.071 445.704 294.51 446.736 294.352C447.258 294.279 447.788 294.337 448.285 294.522C448.781 294.708 449.231 295.015 449.599 295.42C449.976 295.857 450.179 296.436 450.165 297.033C450.158 297.33 450.094 297.623 449.976 297.892C449.859 298.161 449.69 298.401 449.482 298.595C449.097 298.968 448.636 299.239 448.137 299.384C447.638 299.53 447.113 299.547 446.607 299.434C446.116 299.295 445.659 299.048 445.263 298.706C444.867 298.365 444.542 297.938 444.309 297.452C443.853 296.541 443.561 295.546 443.449 294.518C443.117 292.521 443.334 290.463 444.074 288.598C444.487 287.646 445.201 286.885 446.088 286.451C446.996 286.089 447.998 286.125 448.881 286.553C449.343 286.733 449.75 287.048 450.056 287.463C450.362 287.878 450.554 288.376 450.613 288.903C450.636 289.441 450.505 289.973 450.237 290.428C449.969 290.883 449.578 291.237 449.116 291.443C448.697 291.675 448.233 291.796 447.761 291.796C447.29 291.796 446.826 291.675 446.407 291.443C445.609 290.947 445.009 290.151 444.722 289.208C444.455 288.313 444.402 287.361 444.569 286.438C444.661 285.539 444.842 284.653 445.111 283.796C445.376 282.915 445.871 282.134 446.536 281.547C447.189 280.983 447.949 280.579 448.763 280.366C449.186 280.235 449.635 280.235 450.059 280.366C450.465 280.518 450.832 280.77 451.131 281.103C451.431 281.421 451.668 281.801 451.826 282.221C451.997 282.673 451.997 283.179 451.826 283.631C451.636 284.049 451.333 284.394 450.956 284.621C450.579 284.848 450.147 284.946 449.717 284.901C448.92 284.889 448.146 284.609 447.502 284.101C446.281 283.131 445.441 281.703 445.146 280.099C444.838 278.516 445.068 276.866 445.794 275.45C446.113 274.771 446.567 274.176 447.125 273.71C447.675 273.259 448.318 272.959 448.999 272.833C449.679 272.684 450.386 272.792 451.001 273.138C451.306 273.316 451.564 273.573 451.754 273.886C451.943 274.198 452.057 274.557 452.085 274.929C452.082 275.63 451.862 276.31 451.461 276.862C451.06 277.414 450.501 277.806 449.87 277.978C449.279 278.113 448.665 278.066 448.098 277.841C447.531 277.616 447.035 277.223 446.666 276.708C445.958 275.789 445.545 274.648 445.488 273.455C445.59 271.378 445.987 269.33 446.666 267.383C447.149 265.554 447.585 263.877 447.985 262.378C448.775 259.393 449.387 257.068 449.823 255.468C450.024 254.693 450.189 254.096 450.306 253.676C450.424 253.257 450.495 253.067 450.495 253.067C450.495 253.067 450.495 253.283 450.365 253.689C450.236 254.096 450.118 254.731 449.941 255.506C449.54 257.119 448.951 259.456 448.209 262.442L446.949 267.46C446.548 269.301 445.77 271.271 445.853 273.43C445.938 274.547 446.351 275.606 447.031 276.453C447.357 276.909 447.794 277.258 448.294 277.46C448.793 277.662 449.335 277.709 449.859 277.597C450.387 277.45 450.859 277.124 451.202 276.666C451.546 276.209 451.744 275.644 451.767 275.056C451.743 274.758 451.651 274.471 451.498 274.22C451.346 273.97 451.139 273.764 450.895 273.621C450.363 273.336 449.758 273.251 449.175 273.379C448.558 273.493 447.975 273.768 447.479 274.18C446.985 274.612 446.583 275.153 446.3 275.767C445.716 277.07 445.563 278.549 445.865 279.96C446.148 281.434 446.929 282.742 448.056 283.631C448.62 284.068 449.294 284.312 449.988 284.33C450.315 284.372 450.645 284.306 450.936 284.14C451.226 283.974 451.463 283.717 451.614 283.402C451.687 283.05 451.667 282.682 451.556 282.341C451.446 282 451.25 281.699 450.99 281.471C450.747 281.207 450.453 281.003 450.13 280.874C449.794 280.78 449.441 280.78 449.105 280.874C448.362 281.048 447.673 281.423 447.103 281.963C446.532 282.503 446.098 283.19 445.841 283.961C445.584 284.785 445.414 285.637 445.334 286.502C445.175 287.347 445.224 288.223 445.476 289.042C445.71 289.842 446.215 290.518 446.89 290.935C447.232 291.12 447.609 291.216 447.991 291.216C448.374 291.216 448.751 291.12 449.093 290.935C449.445 290.787 449.747 290.527 449.957 290.188C450.168 289.85 450.277 289.45 450.271 289.042C450.219 288.632 450.062 288.245 449.819 287.925C449.576 287.604 449.255 287.362 448.893 287.226C448.146 286.874 447.304 286.843 446.536 287.137C445.784 287.516 445.179 288.168 444.828 288.979C444.151 290.733 443.959 292.661 444.274 294.53C444.378 295.478 444.646 296.395 445.063 297.236C445.255 297.64 445.523 297.996 445.85 298.283C446.176 298.569 446.554 298.78 446.96 298.9C447.374 298.996 447.804 298.985 448.213 298.868C448.623 298.751 449.001 298.532 449.317 298.227C449.464 298.086 449.584 297.914 449.668 297.722C449.753 297.53 449.8 297.321 449.808 297.109C449.816 296.897 449.784 296.685 449.713 296.486C449.643 296.287 449.536 296.106 449.399 295.953C449.093 295.626 448.721 295.38 448.313 295.232C447.904 295.085 447.47 295.04 447.043 295.102C446.157 295.242 445.351 295.731 444.781 296.474C444.163 297.189 443.785 298.108 443.708 299.082C443.631 300.056 443.859 301.03 444.356 301.847C444.923 302.63 445.705 303.197 446.591 303.467C447.477 303.736 448.419 303.694 449.281 303.346C449.743 303.142 450.148 302.814 450.459 302.394C450.592 302.196 450.669 301.962 450.682 301.719C450.694 301.476 450.642 301.234 450.53 301.022C450.247 300.564 449.863 300.189 449.413 299.93C448.963 299.67 448.46 299.535 447.95 299.535C446.909 299.448 445.872 299.761 445.024 300.419C444.177 301.077 443.573 302.038 443.32 303.13C443.128 304.191 443.266 305.291 443.714 306.258C444.161 307.225 444.892 308.006 445.794 308.479C446.669 309.015 447.682 309.229 448.68 309.088C449.13 308.938 449.527 308.645 449.821 308.249C450.115 307.853 450.292 307.371 450.33 306.865V307.056C450.216 306.705 450.009 306.397 449.734 306.172C449.46 305.946 449.131 305.812 448.786 305.785C448.056 305.782 447.337 305.983 446.701 306.37C445.373 307.119 444.267 308.254 443.508 309.647C442.761 311.04 442.142 312.508 441.658 314.03L440.056 318.514C437.935 324.409 435.791 329.947 433.694 335.283C429.5 345.826 425.447 355.024 421.912 362.595C420.156 366.406 418.531 369.772 416.964 372.656C415.643 375.115 414.175 377.479 412.569 379.731C411.256 381.661 409.755 383.433 408.092 385.016V385.016Z" fill="white"/>
<path d="M464.751 195.419C464.607 193.804 464.246 192.221 463.679 190.719C461.967 186.678 458.964 183.436 455.219 181.585C452.648 180.333 449.883 179.605 447.066 179.438C443.824 179.258 440.574 179.523 437.393 180.226C430.642 181.572 423.549 184.71 415.608 186.006C411.737 186.559 407.815 186.559 403.944 186.006C400.35 185.422 396.832 184.391 393.458 182.932C387.731 180.445 382.524 176.748 378.142 172.058C375.193 168.921 372.698 165.324 370.743 161.387C370.413 160.787 370.121 160.163 369.871 159.519L369.306 158.109C369.164 157.766 369.058 157.474 368.964 157.245C368.919 157.149 368.887 157.047 368.87 156.941C368.932 157.026 368.983 157.12 369.023 157.22L369.412 158.058L370.036 159.43C370.305 160.065 370.612 160.681 370.955 161.272C372.976 165.126 375.499 168.647 378.448 171.727C385.404 179.073 394.345 183.846 403.98 185.358C407.796 185.904 411.663 185.904 415.479 185.358C423.314 184.088 430.418 180.963 437.252 179.641C440.477 178.947 443.771 178.699 447.054 178.905C449.931 179.093 452.749 179.864 455.361 181.179C459.169 183.102 462.191 186.465 463.855 190.63C464.269 191.763 464.542 192.951 464.668 194.161V195.101C464.71 195.202 464.738 195.309 464.751 195.419Z" fill="#455A64"/>
<path d="M446.972 168.043C446.693 168.117 446.409 168.168 446.123 168.196C445.569 168.285 444.745 168.412 443.696 168.615C441.599 168.983 438.595 169.707 434.895 170.698C430.567 171.956 426.161 172.877 421.711 173.455C416.243 174.059 410.725 173.927 405.287 173.061C399.847 172.21 394.52 170.667 389.417 168.462C385.234 166.677 381.227 164.443 377.458 161.793C375.88 160.637 374.466 159.57 373.264 158.554C372.062 157.538 371.049 156.661 370.271 155.873L368.481 154.057C368.08 153.638 367.868 153.409 367.891 153.384C368.131 153.551 368.356 153.743 368.563 153.955L370.425 155.67C371.226 156.432 372.298 157.245 373.476 158.211C374.654 159.176 376.115 160.231 377.694 161.349C386.093 167.061 395.508 170.813 405.334 172.362C410.73 173.214 416.201 173.359 421.629 172.794C426.053 172.276 430.438 171.427 434.754 170.254C438.465 169.326 441.505 168.666 443.625 168.361C444.686 168.208 445.511 168.119 446.076 168.081C446.373 168.035 446.673 168.023 446.972 168.043V168.043Z" fill="#455A64"/>
<path d="M448.715 253.156C448.558 253.123 448.403 253.071 448.256 253.003C447.845 252.817 447.451 252.592 447.078 252.33C445.653 251.32 444.471 249.962 443.626 248.366C442.417 245.979 441.694 243.342 441.505 240.63C441.233 237.351 441.233 234.052 441.505 230.772C441.76 227.494 442.264 224.244 443.013 221.054C443.548 218.42 444.433 215.883 445.64 213.521C446.509 211.919 447.721 210.565 449.175 209.57C449.545 209.307 449.94 209.086 450.353 208.91C450.648 208.796 450.812 208.745 450.812 208.77C450.812 208.796 450.212 209.062 449.257 209.786C447.926 210.837 446.824 212.19 446.029 213.75C444.896 216.101 444.071 218.611 443.578 221.207C442.863 224.371 442.375 227.59 442.117 230.836C441.871 234.074 441.871 237.328 442.117 240.567C442.268 243.224 442.925 245.819 444.05 248.189C444.827 249.76 445.922 251.123 447.254 252.177C448.15 252.851 448.751 253.092 448.715 253.156Z" fill="#263238"/>
<path d="M395.724 249.231L383.631 251.789C381.811 252.174 380.625 254.077 380.982 256.039L381.071 256.525C381.428 258.487 383.193 259.766 385.012 259.381L397.106 256.823C398.925 256.438 400.111 254.535 399.754 252.573L399.666 252.087C399.309 250.125 397.544 248.846 395.724 249.231Z" fill="#455A64"/>
<path d="M398.042 251.161L453.947 232.259C454.611 232.035 455.33 232.103 455.948 232.448C456.565 232.793 457.032 233.387 457.246 234.101V234.101C457.353 234.467 457.391 234.854 457.357 235.237C457.323 235.62 457.218 235.992 457.047 236.33C456.877 236.668 456.645 236.966 456.365 237.205C456.085 237.444 455.764 237.619 455.419 237.721L398.254 254.362L398.042 251.161Z" fill="#455A64"/>
<path d="M439.361 242.853C439.959 242.568 440.578 242.335 441.21 242.154L446.324 240.478C448.468 239.766 451.107 239.004 453.888 238.026C454.574 237.75 455.198 237.316 455.714 236.756C456.223 236.196 456.507 235.443 456.503 234.659C456.5 234.274 456.385 233.9 456.174 233.59C455.962 233.28 455.665 233.049 455.325 232.932C454.548 232.719 453.732 232.745 452.969 233.008L436.203 238.826L431.101 240.528C430.517 240.788 429.914 240.996 429.299 241.151C429.888 240.842 430.499 240.583 431.125 240.376L436.168 238.47C440.444 236.908 446.312 234.736 452.91 232.462C453.787 232.188 454.719 232.188 455.596 232.462C456.044 232.636 456.432 232.953 456.71 233.37C456.988 233.788 457.141 234.286 457.151 234.799C457.152 235.75 456.805 236.663 456.185 237.34C455.565 237.927 454.833 238.361 454.041 238.61C451.154 239.588 448.574 240.274 446.394 240.935L441.281 242.421C440.655 242.63 440.012 242.774 439.361 242.853Z" fill="#263238"/>
<path d="M348.004 196.689C349.912 203.93 343.091 210.142 340.687 217.218C338.331 224.052 340.334 231.712 343.197 238.318C346.06 244.924 349.83 251.174 351.291 258.275C354.908 275.806 340.204 294.695 343.044 312.391C344.057 318.844 346.472 325.577 348.558 331.713C350.572 337.499 350.572 343.877 348.558 349.663C345.376 359.825 339.98 364.589 336.187 374.472C334.243 379.554 334.396 385.194 334.49 390.656C334.584 396.119 334.561 401.835 332.299 406.739C330.036 411.642 324.876 415.428 319.975 414.005C322.62 417.2 326.168 419.366 330.07 420.168C333.972 420.969 338.01 420.361 341.559 418.439C348.004 414.729 351.609 407.209 354.696 400.07C369.635 365.504 377.541 362.582 377.081 324.447C377.081 321.995 376.634 283.796 376.634 283.796C373.538 282.9 370.569 281.554 367.809 279.794C351.126 267.371 350.513 245.241 350.643 228.079" fill="#263238"/>
<path d="M381.347 312.391V326.784C381.347 326.784 371.085 383.25 367.998 414.615C364.911 445.979 364.404 454.262 364.404 454.262C364.404 454.262 371.768 466.648 387.167 445.611C402.566 424.574 405.311 421.259 411.473 420.89C411.473 420.89 403.944 332.691 404.286 329.426C404.668 327.111 405.611 324.946 407.019 323.151L381.347 312.391Z" fill="#FFBE9D"/>
<path d="M401.541 279.921C401.541 279.921 384.775 303.905 383.409 307.208C382.042 310.511 381.347 312.366 381.347 312.366L407.019 323.075L432.009 293.552L441.246 267.345L438.501 236.349C438.501 236.349 433.034 235.981 432.009 241.151C431.381 244.425 431.147 247.772 431.314 251.11L423.655 244.466L411.296 240.414C411.296 240.414 408.386 245.572 413.181 248.163C417.977 250.755 419.343 250.704 419.343 250.704L423.655 258.821L421.77 267.917L413.028 259.024C412.182 258.162 411.082 257.647 409.92 257.568C408.757 257.489 407.606 257.852 406.666 258.593L401.011 263.013L395.721 260.473L385.459 270.369L381.347 274.421C381.347 274.421 384.092 279.96 389.594 277.381L395.073 274.84L401.541 279.921Z" fill="#FFBE9D"/>
<path d="M381.347 317.257C381.331 316.999 381.331 316.74 381.347 316.482C381.347 315.973 381.406 315.211 381.512 314.233C381.649 313.012 381.866 311.802 382.16 310.613C382.526 308.971 383.13 307.402 383.95 305.963C387.791 299.612 393.835 290.719 401.376 279.782V280.112L394.872 274.954H395.096L391.715 276.568C390.554 277.178 389.348 277.684 388.109 278.079C386.762 278.428 385.343 278.252 384.104 277.584C382.843 276.885 381.796 275.809 381.087 274.484L380.993 274.307L381.146 274.154C385.553 269.683 390.466 265.173 395.508 260.346L395.662 260.206L395.827 260.308L400.386 263.217H400.092L405.417 259.406C406.348 258.758 407.184 258.135 408.186 257.475C408.731 257.183 409.34 257.058 409.947 257.114C410.554 257.17 411.135 257.405 411.626 257.792L422.006 267.256L421.523 267.434C422.088 264.703 422.701 261.743 423.314 258.758V258.986L419.002 250.869L419.273 251.034C418.54 250.926 417.823 250.717 417.14 250.412C416.468 250.145 415.797 249.84 415.125 249.522C414.454 249.205 413.794 248.849 413.134 248.506C412.793 248.328 412.463 248.087 412.133 247.884C411.81 247.636 411.51 247.355 411.237 247.045C410.842 246.593 410.533 246.06 410.331 245.477C410.129 244.895 410.036 244.275 410.059 243.653C410.097 242.439 410.408 241.253 410.966 240.198L411.084 239.982L411.32 240.058L423.667 244.123H423.726L431.384 250.767L430.901 251.047C430.736 247.757 430.954 244.458 431.549 241.227C431.674 240.394 431.962 239.599 432.392 238.894C432.823 238.189 433.387 237.59 434.047 237.137C435.364 236.298 436.878 235.888 438.406 235.955H438.724V236.235C439.691 247.249 440.598 257.64 441.434 267.231V267.294C438.018 276.949 434.907 285.714 432.15 293.476L412.804 316.494L407.55 322.63C406.949 323.303 406.489 323.837 406.171 324.205L405.688 324.726C405.688 324.726 405.829 324.523 406.124 324.154L407.455 322.541L412.639 316.329L431.891 293.463V293.527L441.081 267.307V267.434C440.221 257.843 439.302 247.464 438.312 236.438L438.583 236.73C437.178 236.668 435.786 237.048 434.577 237.823C433.984 238.23 433.478 238.769 433.094 239.404C432.709 240.04 432.456 240.757 432.35 241.507C431.76 244.678 431.546 247.918 431.714 251.148V251.885L431.184 251.428L423.408 244.746H423.514L411.167 240.694L411.508 240.541C411.011 241.499 410.733 242.57 410.695 243.666C410.674 244.203 410.753 244.74 410.927 245.244C411.101 245.748 411.367 246.209 411.709 246.601C411.952 246.869 412.216 247.116 412.498 247.337C412.816 247.528 413.099 247.731 413.429 247.909C414.089 248.252 414.737 248.608 415.396 248.913C416.638 249.566 417.947 250.056 419.296 250.374H419.485L419.555 250.501L423.868 258.618L423.926 258.732V258.859C423.302 261.845 422.748 264.805 422.124 267.536L422.018 268.069L421.629 267.714L411.284 258.275C410.883 257.952 410.406 257.755 409.907 257.706C409.408 257.657 408.906 257.757 408.457 257.996C407.585 258.554 406.642 259.266 405.747 259.888L400.41 263.699L400.268 263.801L400.115 263.712L395.556 260.79H395.886C390.843 265.592 385.918 270.102 381.5 274.548L381.559 274.218C382.21 275.444 383.175 276.441 384.339 277.089C385.474 277.711 386.779 277.873 388.015 277.546C389.228 277.163 390.41 276.674 391.55 276.085L394.931 274.484H395.061L395.167 274.561L401.659 279.744L401.835 279.883L401.706 280.074C394.13 291.011 388.027 299.828 384.139 306.116C383.32 307.528 382.705 309.065 382.313 310.676C382.012 311.854 381.78 313.05 381.618 314.259C381.488 315.237 381.429 315.999 381.394 316.494C381.358 316.99 381.347 317.257 381.347 317.257Z" fill="#EB996E"/>
<path d="M413.11 285.473C412.993 285.473 413.44 283.517 413.629 280.391C413.753 278.57 413.479 276.742 412.828 275.056C411.845 273.081 410.444 271.384 408.739 270.102C405.695 267.585 402.52 265.257 399.231 263.128L396.227 261.222C395.841 261.017 395.477 260.765 395.143 260.473C395.558 260.581 395.955 260.757 396.321 260.994C397.075 261.362 398.147 261.946 399.443 262.721C402.815 264.749 406.044 267.042 409.105 269.581C410.887 270.921 412.336 272.715 413.323 274.802C413.999 276.578 414.251 278.509 414.053 280.417C413.952 281.676 413.759 282.925 413.476 284.152C413.412 284.608 413.289 285.053 413.11 285.473V285.473Z" fill="#EB996E"/>
<path d="M431.078 273.964C431.153 272.845 431.299 271.733 431.514 270.635C431.881 267.986 432.059 265.311 432.044 262.632C432.012 259.946 431.792 257.267 431.384 254.616C431.157 253.528 430.996 252.425 430.901 251.314C431.334 252.337 431.639 253.418 431.809 254.528C432.896 259.858 432.94 265.374 431.938 270.724C431.786 271.84 431.497 272.93 431.078 273.964V273.964Z" fill="#EB996E"/>
<path d="M316.664 179.832L304.411 156.496C311.999 143.207 314.703 127.338 311.991 112.009C309.279 96.6793 301.347 82.998 289.754 73.6538C278.162 64.3096 263.747 59.9783 249.343 61.5113C234.94 63.0443 221.588 70.3307 211.914 81.9383C202.24 93.5459 196.942 108.635 197.062 124.24C197.182 139.846 202.711 154.838 212.563 166.271C222.414 177.704 235.876 184.751 250.301 186.026C264.726 187.301 279.073 182.713 290.52 173.163V173.163L316.664 179.832Z" fill="white"/>
<path d="M316.664 179.832L290.437 173.353H290.213L290.355 173.15L290.567 173.379C286.893 176.454 282.895 179.051 278.655 181.115C273.608 183.55 268.264 185.193 262.785 185.993C259.749 186.449 256.682 186.615 253.619 186.489C252.052 186.4 250.438 186.349 248.824 186.209L243.934 185.409C229.361 182.299 216.438 173.312 207.799 160.282C202.976 153.082 199.642 144.852 198.02 136.145C196.346 126.952 196.58 117.473 198.703 108.388C200.887 98.8928 205.14 90.0958 211.11 82.7278L213.466 79.9203C214.244 78.9803 215.174 78.2054 216.011 77.3797C216.846 76.4851 217.723 75.6371 218.638 74.839L221.419 72.6032C222.334 71.8721 223.294 71.21 224.294 70.6215L227.227 68.7033L230.302 67.1154C231.303 66.5451 232.338 66.0486 233.401 65.6291C241.634 62.1224 250.491 60.6508 259.321 61.3227C267.676 61.9541 275.801 64.556 283.121 68.9447C296.279 76.8398 306.117 89.8894 310.596 105.391C312.395 111.987 313.246 118.842 313.117 125.716C312.964 131.672 312.011 137.572 310.29 143.234C308.851 147.945 306.901 152.456 304.481 156.674V156.509L316.628 179.921C316.11 178.943 312.175 171.588 304.222 156.661V156.585V156.509C306.603 152.3 308.521 147.807 309.936 143.119C311.616 137.485 312.54 131.62 312.681 125.703C312.784 118.89 311.922 112.101 310.125 105.568C305.651 90.2212 295.883 77.3116 282.838 69.5036C275.584 65.1839 267.541 62.63 259.274 62.0214C250.527 61.357 241.753 62.82 233.601 66.3024C232.55 66.7176 231.527 67.2099 230.538 67.776L227.498 69.3639L224.588 71.2694C223.593 71.8651 222.644 72.5447 221.749 73.3019L218.992 75.5123C218.061 76.2237 217.272 77.151 216.4 77.9513C215.528 78.7516 214.656 79.5773 213.878 80.492L211.522 83.2613C205.617 90.5588 201.408 99.268 199.245 108.668C197.142 117.661 196.905 127.042 198.55 136.145C200.157 144.753 203.451 152.891 208.211 160.015C216.788 172.899 229.581 181.793 244.005 184.901L248.847 185.701C250.449 185.853 252.052 185.891 253.56 185.993C256.598 186.126 259.642 185.972 262.656 185.536C272.728 184.098 282.268 179.811 290.308 173.112L291.227 172.35L290.52 173.353L290.425 173.087L316.664 179.832Z" fill="#263238"/>
<path d="M242.52 123.81C242.52 124.815 242.244 125.798 241.726 126.633C241.208 127.469 240.472 128.12 239.611 128.505C238.75 128.889 237.802 128.99 236.888 128.794C235.974 128.598 235.134 128.114 234.475 127.403C233.816 126.693 233.367 125.787 233.185 124.802C233.003 123.816 233.097 122.794 233.453 121.866C233.81 120.937 234.414 120.144 235.189 119.585C235.964 119.027 236.875 118.729 237.807 118.729C239.057 118.729 240.256 119.264 241.14 120.217C242.024 121.17 242.52 122.463 242.52 123.81Z" fill="#263238"/>
<path d="M261.324 123.81C261.324 124.815 261.048 125.798 260.53 126.633C260.012 127.469 259.276 128.12 258.415 128.505C257.554 128.889 256.606 128.99 255.692 128.794C254.778 128.598 253.938 128.114 253.279 127.403C252.62 126.693 252.171 125.787 251.989 124.802C251.808 123.816 251.901 122.794 252.258 121.866C252.614 120.937 253.218 120.144 253.993 119.585C254.768 119.027 255.68 118.729 256.612 118.729C257.862 118.729 259.06 119.264 259.944 120.217C260.828 121.17 261.324 122.463 261.324 123.81Z" fill="#263238"/>
<path d="M280.093 121.27C280.562 122.14 280.78 123.14 280.721 124.144C280.662 125.148 280.328 126.111 279.761 126.91C279.194 127.709 278.419 128.308 277.536 128.632C276.653 128.957 275.7 128.991 274.798 128.73C273.897 128.47 273.088 127.927 272.473 127.17C271.858 126.413 271.465 125.477 271.345 124.479C271.224 123.481 271.381 122.467 271.795 121.566C272.209 120.664 272.863 119.916 273.672 119.415C274.752 118.746 276.034 118.566 277.237 118.914C278.441 119.261 279.467 120.108 280.093 121.27Z" fill="#263238"/>
<path d="M548.296 522.072C548.296 522.263 428.521 522.403 280.847 522.403C133.172 522.403 13.3975 522.263 13.3975 522.072C13.3975 521.882 133.137 521.742 280.906 521.742C428.674 521.742 548.296 521.895 548.296 522.072Z" fill="#263238"/>
<path d="M396.958 522.39C399.722 517.854 403.451 514.095 407.834 511.426C412.218 508.757 417.129 507.255 422.159 507.044C439.372 506.409 447.973 522.39 447.973 522.39H396.958Z" fill="#455A64"/>
<path d="M429.947 521.895C429.719 520.985 429.55 520.06 429.44 519.125C428.515 514.718 426.078 510.852 422.618 508.302C421.856 507.842 421.12 507.333 420.415 506.778C421.304 506.925 422.153 507.28 422.901 507.819C424.779 509.001 426.388 510.621 427.611 512.559C428.834 514.498 429.64 516.706 429.97 519.024C430.155 519.971 430.147 520.951 429.947 521.895Z" fill="#263238"/>
<path d="M386.307 521.717V521.59C386.279 519.721 385.57 517.939 384.333 516.629C383.096 515.319 381.431 514.587 379.697 514.59H233.201C231.448 514.59 229.767 515.341 228.527 516.677C227.288 518.014 226.591 519.827 226.591 521.717H386.307Z" fill="#455A64"/>
<path d="M105.851 244.962C105.851 248.29 108.207 446.665 108.207 446.665L244.877 482.12H256.105L248.918 205.188H238.644L105.851 244.962Z" fill="#263238"/>
<path d="M134.751 438.421L92.3955 522.111H131.111C124.183 521.374 192.377 522.111 192.377 522.111L131.111 504.593L150.28 457.654L148.642 438.421H134.751Z" fill="#263238"/>
<path d="M135.694 453.868L131.111 297.871L172.724 293.578L177.85 460.131L162.993 460.944L135.694 453.868Z" fill="#263238"/>
<path d="M183.67 466.305C183.67 466.305 183.67 466.063 183.67 465.581C183.67 465.098 183.67 464.374 183.67 463.447C183.67 461.541 183.67 458.759 183.67 455.164C183.67 447.91 183.611 437.379 183.576 424.13C183.576 397.618 183.517 360.308 183.469 317.041L183.764 317.358H134.575L134.881 317.028V324.218C134.881 366.419 134.881 405.685 134.822 438.408V438.472C122.074 463.663 111.506 484.572 104.107 499.181C100.407 506.473 97.4969 512.189 95.5058 516.102C94.5161 518.033 93.7503 519.506 93.2319 520.535C92.7135 521.564 92.4189 522.034 92.4189 522.034C92.4189 522.034 92.6664 521.501 93.1612 520.497C93.656 519.494 94.4101 517.957 95.3644 516.013C97.332 512.088 100.195 506.346 103.847 499.029L134.363 438.205V438.345C134.363 405.621 134.363 366.355 134.363 324.155V316.634H184.059V316.952C184.059 360.219 183.976 397.529 183.953 424.041C183.953 437.278 183.882 447.821 183.858 455.075C183.858 458.67 183.858 461.427 183.858 463.358C183.858 464.285 183.858 464.996 183.858 465.492C183.858 465.987 183.67 466.305 183.67 466.305Z" fill="#455A64"/>
<path d="M150.28 457.654C150.433 457.717 144.542 472.415 137.119 490.454C129.697 508.493 123.547 523.076 123.394 523C123.24 522.924 129.131 508.238 136.554 490.187C143.977 472.136 150.127 457.578 150.28 457.654Z" fill="#455A64"/>
<path d="M244.818 482.171C244.818 482.171 244.818 481.93 244.818 481.46C244.818 480.99 244.818 480.266 244.818 479.364C244.818 477.496 244.759 474.791 244.723 471.31C244.723 464.323 244.523 454.211 244.299 441.711C243.863 416.711 242.815 382.196 241.53 344.073C240.246 305.951 239.268 271.398 238.938 246.398C238.762 233.897 238.679 223.773 238.715 216.786C238.715 213.305 238.715 210.6 238.715 208.732C238.715 207.83 238.715 207.144 238.715 206.636C238.715 206.128 238.715 205.925 238.715 205.925C238.715 205.925 238.715 206.166 238.715 206.636C238.715 207.106 238.715 207.83 238.715 208.732C238.715 210.6 238.715 213.305 238.809 216.786C238.809 223.773 238.997 233.885 239.233 246.385C239.74 271.385 240.788 305.938 242.072 344.048C243.357 382.158 244.335 416.698 244.664 441.698C244.841 454.199 244.912 464.323 244.888 471.31C244.888 474.791 244.888 477.496 244.888 479.364C244.888 480.266 244.888 480.964 244.888 481.46C244.888 481.955 244.818 482.171 244.818 482.171Z" fill="#455A64"/>
<path d="M176.212 315.885C176.388 315.885 176.518 349.066 176.518 389.983C176.518 430.901 176.388 464.082 176.212 464.082C176.035 464.082 175.905 430.913 175.905 389.983C175.905 349.053 176.047 315.885 176.212 315.885Z" fill="#455A64"/>
<path d="M102.587 509.052C102.364 508.777 102.166 508.479 101.998 508.162C101.797 507.857 101.573 507.489 101.314 507.07C101.002 506.572 100.719 506.055 100.466 505.52C98.7384 502.159 97.4799 498.542 96.731 494.786C95.6442 489.203 95.3976 483.468 96.0006 477.801C96.7379 470.863 98.4626 464.089 101.114 457.717C102.517 454.427 104.311 451.349 106.451 448.558C106.939 447.866 107.462 447.205 108.018 446.577C108.56 445.941 109.078 445.306 109.62 444.696C110.799 443.54 111.824 442.359 112.99 441.355C115.139 439.384 117.428 437.596 119.835 436.007C121.014 435.321 122.086 434.597 123.193 434.026C124.301 433.454 125.349 432.844 126.41 432.438C129.684 430.925 133.145 429.932 136.683 429.491C137.64 429.35 138.605 429.286 139.57 429.3C139.907 429.27 140.246 429.27 140.583 429.3C140.252 429.361 139.918 429.399 139.582 429.414C138.623 429.462 137.667 429.568 136.719 429.732C133.221 430.268 129.807 431.32 126.575 432.857C125.526 433.276 124.513 433.911 123.405 434.458C122.298 435.004 121.237 435.728 120.095 436.465C117.724 438.058 115.471 439.846 113.355 441.813C112.177 442.804 111.152 443.985 110.033 445.128C109.503 445.725 108.984 446.399 108.454 446.983C107.912 447.61 107.401 448.267 106.922 448.952C104.816 451.705 103.05 454.741 101.668 457.984C99.0419 464.289 97.3217 470.989 96.5661 477.852C95.9407 483.457 96.1395 489.133 97.1552 494.671C97.8672 498.4 99.0568 502.005 100.69 505.38C100.924 505.924 101.192 506.45 101.491 506.955L102.115 508.086C102.292 508.396 102.45 508.719 102.587 509.052V509.052Z" fill="#455A64"/>
</svg>
