<svg width="204" height="154" viewBox="0 0 204 154" fill="none" xmlns="http://www.w3.org/2000/svg">
<g clip-path="url(#clip0)">
<path d="M139.611 42.0818V141.01C125.966 149.19 109.277 154 91.257 154C67.2513 154 48.9395 144.925 35.165 131.023V42.0818H139.611Z" fill="#CF2932"/>
<path d="M45.2106 90.2851C50.6792 88.5451 56.3531 87.5333 62.0859 87.2757C64.9585 87.1534 67.8363 87.2661 70.6906 87.6124C73.5173 87.9864 76.3098 88.5844 79.0418 89.4009C81.741 90.1826 84.403 91.0857 87.0931 91.8973C89.8259 92.7321 92.6041 93.4103 95.4142 93.9284C98.2096 94.4344 101.033 94.771 103.869 94.9364C106.677 95.0997 109.513 95.1315 112.313 94.8323C114.929 94.5803 117.491 93.9307 119.911 92.9058C122.168 91.9207 124.254 90.5825 126.09 88.9415C126.548 88.5323 126.989 88.1051 127.413 87.6598C127.662 87.3986 127.266 87.0008 127.016 87.2627C123.436 91.0058 118.731 93.3267 113.627 94.1018C110.847 94.524 108.014 94.5485 105.209 94.4396C102.342 94.3289 99.4839 94.0401 96.6522 93.5748C93.8548 93.1108 91.0875 92.4807 88.3649 91.6879C85.6905 90.9129 83.0525 90.0194 80.3875 89.2137C77.6991 88.3693 74.9546 87.7152 72.1743 87.2564C69.3862 86.8315 66.5679 86.6359 63.7478 86.6713C58.1126 86.7614 52.5135 87.5908 47.094 89.1382C46.4133 89.3294 45.7358 89.5311 45.0614 89.7434C44.7177 89.8512 44.8644 90.3936 45.2106 90.2851H45.2106Z" fill="white"/>
<path d="M45.2106 104.515C50.6792 102.775 56.3531 101.763 62.0859 101.505C64.9585 101.383 67.8363 101.496 70.6906 101.842C73.5173 102.216 76.3098 102.814 79.0418 103.63C81.741 104.412 84.403 105.315 87.0931 106.127C89.8259 106.962 92.6041 107.64 95.4142 108.158C98.2096 108.664 101.033 109.001 103.869 109.166C106.677 109.329 109.513 109.361 112.313 109.062C114.929 108.81 117.491 108.16 119.911 107.135C122.168 106.15 124.254 104.812 126.09 103.171C126.548 102.762 126.989 102.335 127.413 101.889C127.662 101.628 127.266 101.23 127.016 101.492C123.436 105.235 118.731 107.556 113.627 108.331C110.847 108.754 108.014 108.778 105.209 108.669C102.342 108.559 99.4839 108.27 96.6522 107.804C93.8548 107.34 91.0875 106.71 88.3649 105.918C85.6905 105.143 83.0525 104.249 80.3875 103.443C77.6991 102.599 74.9546 101.945 72.1743 101.486C69.3862 101.061 66.5679 100.865 63.7478 100.901C58.1126 100.991 52.5135 101.82 47.094 103.368C46.4133 103.559 45.7358 103.761 45.0614 103.973C44.7177 104.081 44.8644 104.623 45.2106 104.515H45.2106Z" fill="white"/>
<path d="M45.2106 77.3661C50.6792 75.6262 56.3531 74.6143 62.0859 74.3567C64.9585 74.2345 67.8363 74.3471 70.6906 74.6935C73.5173 75.0674 76.3098 75.6655 79.0418 76.4819C81.741 77.2637 84.403 78.1667 87.0931 78.9784C89.8259 79.8132 92.6041 80.4914 95.4142 81.0095C98.2096 81.5155 101.033 81.8521 103.869 82.0175C106.677 82.1808 109.513 82.2126 112.313 81.9134C114.929 81.6614 117.491 81.0118 119.911 79.9869C122.168 79.0017 124.254 77.6635 126.09 76.0225C126.548 75.6134 126.989 75.1861 127.413 74.7409C127.662 74.4797 127.266 74.0819 127.016 74.3437C123.436 78.0869 118.731 80.4078 113.627 81.1829C110.847 81.6051 108.014 81.6296 105.209 81.5207C102.342 81.41 99.4839 81.1212 96.6522 80.6559C93.8548 80.1919 91.0875 79.5618 88.3649 78.769C85.6905 77.994 83.0525 77.1004 80.3875 76.2948C77.6991 75.4503 74.9546 74.7962 72.1743 74.3374C69.3862 73.9126 66.5679 73.7169 63.7478 73.7524C58.1126 73.8425 52.5135 74.6719 47.094 76.2193C46.4133 76.4104 45.7358 76.6122 45.0614 76.8245C44.7177 76.9323 44.8644 77.4747 45.2106 77.3661H45.2106Z" fill="white"/>
<path d="M44.5416 52.9399C45.9002 52.3378 47.4566 52.4428 48.8666 52.7919C50.3869 53.1683 51.8186 53.8229 53.3152 54.2755C55.9941 55.0739 58.8397 55.1279 61.547 54.4317C63.0711 54.0428 64.5255 53.4193 65.858 52.5834C66.1633 52.3915 65.8818 51.9052 65.5746 52.0984C63.1993 53.582 60.4536 54.365 57.6533 54.3573C56.2488 54.3552 54.8521 54.1494 53.5066 53.7465C52.0209 53.3009 50.6007 52.654 49.0956 52.2703C47.501 51.8638 45.791 51.7756 44.2582 52.4548C43.9285 52.601 44.2139 53.0851 44.5416 52.9399Z" fill="white"/>
<path d="M86.2645 139.068C91.0198 139.068 94.8748 135.212 94.8748 130.455C94.8748 125.699 91.0198 121.843 86.2645 121.843C81.5092 121.843 77.6543 125.699 77.6543 130.455C77.6543 135.212 81.5092 139.068 86.2645 139.068Z" fill="white"/>
<path d="M39.8445 24.4819C42.4289 24.4819 44.524 22.3862 44.524 19.8011C44.524 17.2159 42.4289 15.1202 39.8445 15.1202C37.2601 15.1202 35.165 17.2159 35.165 19.8011C35.165 22.3862 37.2601 24.4819 39.8445 24.4819Z" fill="#CF2932"/>
<path d="M80.8363 36.2775C82.5937 36.2775 84.0184 34.8525 84.0184 33.0946C84.0184 31.3367 82.5937 29.9116 80.8363 29.9116C79.0789 29.9116 77.6543 31.3367 77.6543 33.0946C77.6543 34.8525 79.0789 36.2775 80.8363 36.2775Z" fill="#CF2932"/>
<path d="M29.1752 66.7965C30.9326 66.7965 32.3572 65.3714 32.3572 63.6135C32.3572 61.8556 30.9326 60.4305 29.1752 60.4305C27.4178 60.4305 25.9932 61.8556 25.9932 63.6135C25.9932 65.3714 27.4178 66.7965 29.1752 66.7965Z" fill="#CF2932"/>
<path d="M16.3636 39.9674H16.0127V102.736H16.3636V39.9674Z" fill="#3F3D56"/>
<path d="M16.2557 97.3568C20.0348 97.3568 23.0984 90.3636 23.0984 81.7371C23.0984 73.1105 20.0348 66.1173 16.2557 66.1173C12.4766 66.1173 9.41309 73.1105 9.41309 81.7371C9.41309 90.3636 12.4766 97.3568 16.2557 97.3568Z" fill="#3F3D56"/>
<path d="M16.2557 61.7299C20.0348 61.7299 23.0984 54.7367 23.0984 46.1101C23.0984 37.4836 20.0348 30.4904 16.2557 30.4904C12.4766 30.4904 9.41309 37.4836 9.41309 46.1101C9.41309 54.7367 12.4766 61.7299 16.2557 61.7299Z" fill="#3F3D56"/>
<path d="M16.4239 33.3487L16.0877 33.2479C16.109 33.1769 18.1719 26.1055 14.7846 21.5532C12.8714 18.9822 9.58845 17.6785 5.02686 17.6785V17.3275C9.70616 17.3275 13.0841 18.6792 15.0671 21.345C18.5592 26.0399 16.4457 33.2762 16.4239 33.3487Z" fill="#3F3D56"/>
<path d="M5.02645 21.8906C7.44894 21.8906 9.41276 19.9262 9.41276 17.503C9.41276 15.0799 7.44894 13.1155 5.02645 13.1155C2.60396 13.1155 0.640137 15.0799 0.640137 17.503C0.640137 19.9262 2.60396 21.8906 5.02645 21.8906Z" fill="#3F3D56"/>
<path d="M144.266 116.96L140.984 147.16H163.628L164.613 144.862L165.925 147.16H187.257C187.257 147.16 185.616 115.975 182.662 114.99C179.709 114.005 144.266 116.96 144.266 116.96Z" fill="#2F2E41"/>
<path d="M163.628 50.6502C169.972 50.6502 175.114 45.5063 175.114 39.1609C175.114 32.8156 169.972 27.6716 163.628 27.6716C157.285 27.6716 152.142 32.8156 152.142 39.1609C152.142 45.5063 157.285 50.6502 163.628 50.6502Z" fill="#FFB8B8"/>
<path d="M157.065 46.3828C157.065 46.3828 158.049 56.8873 157.065 57.5439C156.08 58.2004 172.817 57.8721 172.817 57.8721C172.817 57.8721 170.52 48.3524 172.817 43.7567L157.065 46.3828Z" fill="#FFB8B8"/>
<path d="M162.972 55.246C162.972 55.246 171.416 56.5616 172.117 53.9342L176.427 59.8417L176.755 118.93C176.755 118.93 141.641 123.197 140.328 116.303C139.016 109.41 153.783 54.9177 153.783 54.9177L157.501 54.677C157.501 54.677 162.316 55.246 162.972 55.246Z" fill="#D0CDE1"/>
<path d="M157.445 51.9811L151.814 53.9329L135.733 57.8721L136.39 97.2639C136.39 97.2639 122.607 136.656 128.842 139.61C135.077 142.565 143.938 135.671 146.563 130.747C149.188 125.823 158.377 57.5438 158.377 56.2307C158.377 54.9177 157.445 51.9811 157.445 51.9811Z" fill="#3F3D56"/>
<path d="M171.906 51.9811L174.13 53.9329L189.882 61.1547L182.006 100.875C182.006 100.875 192.508 136.984 188.57 138.954C184.631 140.923 178.724 146.504 177.412 143.221C176.099 139.938 168.369 55.6098 171.906 51.9811Z" fill="#3F3D56"/>
<path d="M181.021 104.486C181.021 104.486 166.254 98.2488 165.926 103.829C165.597 109.41 182.662 113.349 182.662 111.708C182.662 110.066 181.021 104.486 181.021 104.486Z" fill="#FFB8B8"/>
<path d="M144.923 102.188C144.923 102.188 161.987 114.99 155.424 118.273C148.861 121.556 140.328 106.784 140.328 106.784L144.923 102.188Z" fill="#FFB8B8"/>
<path d="M168.727 22.3309C168.781 22.2167 168.868 22.1212 168.977 22.0567C169.085 21.9922 169.211 21.9617 169.337 21.9691C164.079 21.6544 158.54 22.2675 154.14 25.1661C152.908 25.9779 151.758 26.9706 150.355 27.4281L151.494 28.3212L150.133 28.736L152.135 30.0303C151.933 30.2601 151.674 30.4325 151.384 30.5297C151.093 30.627 150.783 30.6457 150.483 30.584C151.353 30.8383 151.993 31.6128 152.319 32.459C152.644 33.3053 152.703 34.2269 152.757 35.1319C153.094 33.8261 154.518 33.0574 155.864 32.9793C157.21 32.9012 158.523 33.3454 159.832 33.6647C162.685 34.3581 165.648 34.4721 168.545 33.9999C167.561 35.975 168.391 38.3309 169.226 40.3733L170.894 44.4515C171.82 44.5446 172.474 43.6236 173.172 43.0076C173.807 42.4461 171.276 47.3844 171.668 47.2034C172.177 46.9684 177.55 41.0353 177.801 40.5341C178.949 38.2472 179.638 35.6964 179.534 33.1396C179.431 30.5828 178.495 28.0247 176.733 26.1694C175.537 24.9099 173.882 24.6893 172.663 23.6424C172.183 23.2304 172.181 22.9085 171.522 22.6683C171.303 22.5885 168.764 22.2505 168.727 22.3309Z" fill="#2F2E41"/>
<path d="M138.031 58.8569L135.734 57.8721L117.356 88.0725C117.356 88.0725 114.075 95.9509 119.982 99.5618C125.889 103.173 139.672 114.005 139.672 114.005L147.548 101.86C147.548 101.86 131.468 94.3096 132.452 91.3552C133.437 88.4008 138.687 80.5224 138.687 80.5224L138.031 58.8569Z" fill="#3F3D56"/>
<path d="M185.616 60.4983L189.882 61.1548C189.882 61.1548 207.603 95.951 203.337 102.516C199.071 109.082 181.678 118.273 181.678 118.273C181.678 118.273 181.35 107.44 178.396 103.501L188.569 99.5619L182.99 77.8964L185.616 60.4983Z" fill="#3F3D56"/>
</g>
<defs>
<clipPath id="clip0">
<rect width="204" height="154" fill="white"/>
</clipPath>
</defs>
</svg>
